<svg version="1.2" xmlns="http://www.w3.org/2000/svg" viewBox="0 0 952 428" width="952" height="428">
	<title>2203_w026_n002_1490b_p1_1490-ai</title>
	<defs>
		<linearGradient id="g1" x2="1" gradientUnits="userSpaceOnUse" gradientTransform="matrix(9.139,-182.076,1195.733,60.017,329,229.531)">
			<stop offset="0" stop-color="#313385"/>
			<stop offset="1" stop-color="#9b3dff"/>
		</linearGradient>
		<linearGradient id="g2" x2="1" gradientUnits="userSpaceOnUse" gradientTransform="matrix(-532.919,44.887,-6.032,-71.611,1127.989,165.305)">
			<stop offset="0" stop-color="#313385"/>
			<stop offset="1" stop-color="#9b3dff"/>
		</linearGradient>
	</defs>
	<style>
		.s0 { opacity: .4;mix-blend-mode: multiply;fill: url(#g1) } 
		.s1 { opacity: .4;mix-blend-mode: multiply;fill: url(#g2) } 
	</style>
	<g id="_Artboards_">
	</g>
	<g id="layer1">
		<g id="&lt;Group&gt;">
			<g id="&lt;Group&gt;">
				<g id="&lt;Clip Group&gt;">
					<g id="&lt;Group&gt;">
						<path id="&lt;Path&gt;" class="s0" d="m70.8 105.5c0 0 168.1-5.3 222.3-11.7 1.7-0.2-40.8 4-39.5 1.4 1.3-2.6-55.9 3.4-55.6 3.2 5.7-2.6 70.4-8.8 89.3-12.3 98.9-18.6 323.4-35.3 323.4-35.3l-106.5 4.5c0 0 54.2-1.6 5.9 2.6-16.7 1.5-35.7-8-44-7.2-8.2 0.8-7.4 10-11.6 12.3-4.2 2.4-103.3 11.6-103.5 12.5-0.3 0.8-1.6 2.5-7.4 2.6-5.8 0.2-25.4-6-34.9-5-9.5 1-6.6 14.3-38.1 14-3-5.9-16.6 2.3-17.1 3.5-0.5 1.2-26.2-6.3-26.2-6.3 0 0-36.9-36.6-62-6.7-24.2 28.8-94.5 27.9-94.5 27.9z"/>
						<path id="&lt;Path&gt;" class="s1" d="m-167.3 126.5c-49.9-30-56.5 49.9 122.4 67.4 335.9 32.7 1213.3 61.8 1163.8-85.7-0.9-2.8-709.6 54.1-706.5 49.3 3.1-4.8-121.9 12.3-121.3 12.1 14.7-6.1 159.3-25.5 208-36.4 255.5-57.3 518.3-83.2 518.3-83.2l59.7 2.3c0 0-174.8 8-212.6 15.8-25.8 5.3-36.3-34.3-70.5-27.8-39.5 7.5-74.2 46.1-86.9 48.2-5.6 1-10.6-15.9-31.7-11.5-11.6 2.4-25.6 19.2-36.2 24.4-10.7 5.1-20.5 0.5-22.4 1.4-5.3 2.5-4.8 8.1-19.9 9.8-15.2 1.7-5.9-4.1-30.5 0.1-24.6 4.2-28.4 19-110.5 26.6-8.8-9.5-43.2 8.2-44.4 10.4-1.1 2.2-31.5-5.6-31.5-5.6 0 0-115.8-77.7-177.1-19.7-6.3 5.9-76 28.7-83.1 31.7-68.2 6.8-170.8-5.8-287.1-29.6z"/>
					</g>
				</g>
			</g>
		</g>
	</g>
</svg>