<svg version="1.2" xmlns="http://www.w3.org/2000/svg" viewBox="0 0 952 428" width="952" height="428">
	<title>2203_w026_n002_1490b_p1_1490-ai</title>
	<style>
		.s0 { fill: #150930 } 
		.s1 { fill: #09000f } 
		.s2 { fill: #0a0906 } 
		.s3 { fill: #005681 } 
	</style>
	<g id="_Artboards_">
	</g>
	<g id="layer1">
		<g id="&lt;Group&gt;">
			<g id="&lt;Group&gt;">
				<g id="&lt;Clip Group&gt;">
					<g id="&lt;Group&gt;">
						<path id="&lt;Path&gt;" class="s0" d="m914.5 354.6l56.8 23.7-6.7-90.7-44.4-21.5 43.8 13.5-2-20.3-49.2-38.3 48.4 29.5-0.5-6.2-46.4-27.2 46 22.9-12.6-81.6-35.5-35.3 28.1 16.3-43.6-114.9-21.2 119.2 24.5-14.9-27.3 20.7-26.4 134.2 41.5-26.6-41.6 31.8-17.2 82.4z"/>
						<path id="&lt;Path&gt;" class="s1" d="m914.1 431.7l-14.5-357.7 1.7-0.2 18 357.5z"/>
						<path id="&lt;Path&gt;" class="s2" d="m846.3 283.7l60.2-40.6-1.9-35.9-54.9 52.9z"/>
						<path id="&lt;Path&gt;" class="s2" d="m831 360.7l78.1-44.3-80.1 54.9z"/>
						<path id="&lt;Path&gt;" class="s2" d="m964 279.6l-50.8-14.3 50.2 7.9z"/>
						<path id="&lt;Path&gt;" class="s2" d="m969 347.8l-55-45.6-0.8-20.7 55.3 48.1z"/>
						<path id="&lt;Path&gt;" class="s2" d="m955.5 209.4l-47.9-64.3-1.1-28.4 41.2 41.7z"/>
						<path id="&lt;Path&gt;" class="s2" d="m856.2 221.8l48.2-28.7-0.8-5.5-48 30.7z"/>
						<path id="&lt;Path&gt;" class="s3" d="m829 371.3l20.3-83.9-3.1 1.5z"/>
						<path id="&lt;Path&gt;" class="s3" d="m846.3 283.7l15.2-65 11.2-69.2z"/>
						<path id="&lt;Path&gt;" class="s3" d="m875.5 143.7l11.7-50.3 9.5-68.9z"/>
					</g>
				</g>
			</g>
		</g>
	</g>
</svg>