<svg version="1.2" xmlns="http://www.w3.org/2000/svg" viewBox="0 0 952 428" width="952" height="428">
	<title>2203_w026_n002_1490b_p1_1490-ai</title>
	<defs>
		<clipPath clipPathUnits="userSpaceOnUse" id="cp1">
			<path d="m-0.5 428.5h952.19v-428.49h-952.19z"/>
		</clipPath>
		<linearGradient id="g1" x2="1" gradientUnits="userSpaceOnUse" gradientTransform="matrix(-6.483,358.996,-1250.637,-22.585,365.471,-6.24)">
			<stop offset="0" stop-color="#3434c6"/>
			<stop offset=".641" stop-color="#a7ccdd"/>
		</linearGradient>
		<radialGradient id="g2" cx="0" cy="0" r="1" gradientUnits="userSpaceOnUse" gradientTransform="matrix(5.291,0,0,5.291,389.422,8.452)">
			<stop offset="0" stop-color="#364efd"/>
			<stop offset="1" stop-color="#000000"/>
		</radialGradient>
		<radialGradient id="g3" cx="0" cy="0" r="1" gradientUnits="userSpaceOnUse" gradientTransform="matrix(5.291,0,0,5.291,602.512,57.584)">
			<stop offset="0" stop-color="#364efd"/>
			<stop offset="1" stop-color="#000000"/>
		</radialGradient>
		<linearGradient id="g4" x2="1" gradientUnits="userSpaceOnUse" gradientTransform="matrix(9.139,-182.076,1195.733,60.017,329,229.531)">
			<stop offset="0" stop-color="#313385"/>
			<stop offset="1" stop-color="#9b3dff"/>
		</linearGradient>
		<linearGradient id="g5" x2="1" gradientUnits="userSpaceOnUse" gradientTransform="matrix(-532.919,44.887,-6.032,-71.611,1127.989,165.305)">
			<stop offset="0" stop-color="#313385"/>
			<stop offset="1" stop-color="#9b3dff"/>
		</linearGradient>
		<linearGradient id="g6" x2="1" gradientUnits="userSpaceOnUse" gradientTransform="matrix(-85.571,308.31,-180.658,-50.142,808.466,79.216)">
			<stop offset="0" stop-color="#16224d"/>
			<stop offset="1" stop-color="#172861"/>
		</linearGradient>
		<linearGradient id="g7" x2="1" gradientUnits="userSpaceOnUse" gradientTransform="matrix(-113.835,410.142,-96.123,-26.679,819.065,120.792)">
			<stop offset="0" stop-color="#16224d"/>
			<stop offset="1" stop-color="#172861"/>
		</linearGradient>
		<linearGradient id="g8" x2="1" gradientUnits="userSpaceOnUse" gradientTransform="matrix(-32.723,136.025,-138.973,-33.432,890.537,149.185)">
			<stop offset="0" stop-color="#16224d"/>
			<stop offset="1" stop-color="#172861"/>
		</linearGradient>
		<linearGradient id="g9" x2="1" gradientUnits="userSpaceOnUse" gradientTransform="matrix(-7.321,81.409,-90.605,-8.148,895.937,121.447)">
			<stop offset="0" stop-color="#586400"/>
			<stop offset="1" stop-color="#ffffff"/>
		</linearGradient>
		<linearGradient id="g10" x2="1" gradientUnits="userSpaceOnUse" gradientTransform="matrix(-11.445,214.083,-109.219,-5.839,684.752,58.885)">
			<stop offset="0" stop-color="#16224d"/>
			<stop offset="1" stop-color="#172861"/>
		</linearGradient>
		<linearGradient id="g11" x2="1" gradientUnits="userSpaceOnUse" gradientTransform="matrix(-13.085,244.771,-79.429,-4.246,610.156,-8.33)">
			<stop offset="0" stop-color="#16224d"/>
			<stop offset="1" stop-color="#172861"/>
		</linearGradient>
		<linearGradient id="g12" x2="1" gradientUnits="userSpaceOnUse" gradientTransform="matrix(-3.892,72.8,-88.128,-4.711,836.085,178.128)">
			<stop offset="0" stop-color="#16224d"/>
			<stop offset="1" stop-color="#172861"/>
		</linearGradient>
		<linearGradient id="g13" x2="1" gradientUnits="userSpaceOnUse" gradientTransform="matrix(-1.78,33.296,-32.694,-1.748,838.578,135.155)">
			<stop offset="0" stop-color="#586400"/>
			<stop offset="1" stop-color="#ffffff"/>
		</linearGradient>
		<linearGradient id="g14" x2="1" gradientUnits="userSpaceOnUse" gradientTransform="matrix(-0.152,2.981,-1.699,-0.087,776.399,242.61)">
			<stop offset="0" stop-color="#16224d"/>
			<stop offset="1" stop-color="#172861"/>
		</linearGradient>
		<linearGradient id="g15" x2="1" gradientUnits="userSpaceOnUse" gradientTransform="matrix(-4.451,87.074,-69.73,-3.564,736.713,190.613)">
			<stop offset="0" stop-color="#16224d"/>
			<stop offset="1" stop-color="#172861"/>
		</linearGradient>
		<linearGradient id="g16" x2="1" gradientUnits="userSpaceOnUse" gradientTransform="matrix(-82.749,298.139,-174.698,-48.488,168.463,63.535)">
			<stop offset="0" stop-color="#16224d"/>
			<stop offset="1" stop-color="#172861"/>
		</linearGradient>
		<linearGradient id="g17" x2="1" gradientUnits="userSpaceOnUse" gradientTransform="matrix(-78.574,283.098,-67.348,-18.692,235.2,91.497)">
			<stop offset="0" stop-color="#16224d"/>
			<stop offset="1" stop-color="#172861"/>
		</linearGradient>
		<linearGradient id="g18" x2="1" gradientUnits="userSpaceOnUse" gradientTransform="matrix(-18.933,78.703,-122.595,-29.492,257.332,148.659)">
			<stop offset="0" stop-color="#16224d"/>
			<stop offset="1" stop-color="#172861"/>
		</linearGradient>
		<linearGradient id="g19" x2="1" gradientUnits="userSpaceOnUse" gradientTransform="matrix(-16.383,182.181,-132.94,-11.955,226.512,53.988)">
			<stop offset="0" stop-color="#16224d"/>
			<stop offset="1" stop-color="#172861"/>
		</linearGradient>
		<linearGradient id="g20" x2="1" gradientUnits="userSpaceOnUse" gradientTransform="matrix(-11.067,207.02,-105.616,-5.646,48.83,43.875)">
			<stop offset="0" stop-color="#16224d"/>
			<stop offset="1" stop-color="#172861"/>
		</linearGradient>
		<linearGradient id="g21" x2="1" gradientUnits="userSpaceOnUse" gradientTransform="matrix(-12.654,236.696,-76.809,-4.106,-23.845,.757)">
			<stop offset="0" stop-color="#16224d"/>
			<stop offset="1" stop-color="#172861"/>
		</linearGradient>
		<linearGradient id="g22" x2="1" gradientUnits="userSpaceOnUse" gradientTransform="matrix(-3.499,65.449,-66.849,-3.574,189.688,159.502)">
			<stop offset="0" stop-color="#16224d"/>
			<stop offset="1" stop-color="#172861"/>
		</linearGradient>
		<linearGradient id="g23" x2="1" gradientUnits="userSpaceOnUse" gradientTransform="matrix(-1.721,32.197,-31.615,-1.69,197.581,117.629)">
			<stop offset="0" stop-color="#586400"/>
			<stop offset="1" stop-color="#ffffff"/>
		</linearGradient>
		<linearGradient id="g24" x2="1" gradientUnits="userSpaceOnUse" gradientTransform="matrix(-0.147,2.883,-1.642,-0.084,137.453,221.538)">
			<stop offset="0" stop-color="#16224d"/>
			<stop offset="1" stop-color="#172861"/>
		</linearGradient>
		<linearGradient id="g25" x2="1" gradientUnits="userSpaceOnUse" gradientTransform="matrix(-4.304,84.202,-67.43,-3.447,98.537,193.137)">
			<stop offset="0" stop-color="#16224d"/>
			<stop offset="1" stop-color="#172861"/>
		</linearGradient>
		<linearGradient id="g26" x2="1" gradientUnits="userSpaceOnUse" gradientTransform="matrix(-114.834,413.743,-193.567,-53.725,82.278,-20.17)">
			<stop offset="0" stop-color="#16224d"/>
			<stop offset="1" stop-color="#172861"/>
		</linearGradient>
		<linearGradient id="g27" x2="1" gradientUnits="userSpaceOnUse" gradientTransform="matrix(275.896,521.109,-53.167,28.149,344.069,33.202)">
			<stop offset="0" stop-color="#16224d"/>
			<stop offset="1" stop-color="#172861"/>
		</linearGradient>
		<linearGradient id="g28" x2="1" gradientUnits="userSpaceOnUse" gradientTransform="matrix(-46.292,192.429,-147.269,-35.428,239.156,80.642)">
			<stop offset="0" stop-color="#16224d"/>
			<stop offset="1" stop-color="#172861"/>
		</linearGradient>
		<linearGradient id="g29" x2="1" gradientUnits="userSpaceOnUse" gradientTransform="matrix(2.552,29.461,-27.552,2.386,258.859,113.075)">
			<stop offset="0" stop-color="#586400"/>
			<stop offset="1" stop-color="#ffffff"/>
		</linearGradient>
		<linearGradient id="g30" x2="1" gradientUnits="userSpaceOnUse" gradientTransform="matrix(-15.821,295.938,-105.066,-5.617,-122.918,-39.437)">
			<stop offset="0" stop-color="#16224d"/>
			<stop offset="1" stop-color="#172861"/>
		</linearGradient>
		<linearGradient id="g31" x2="1" gradientUnits="userSpaceOnUse" gradientTransform="matrix(-18.141,339.343,-77.603,-4.149,-163.241,-100.444)">
			<stop offset="0" stop-color="#16224d"/>
			<stop offset="1" stop-color="#172861"/>
		</linearGradient>
		<linearGradient id="g32" x2="1" gradientUnits="userSpaceOnUse" gradientTransform="matrix(-5.786,108.225,-88.021,-4.706,185.266,131.124)">
			<stop offset="0" stop-color="#16224d"/>
			<stop offset="1" stop-color="#172861"/>
		</linearGradient>
		<linearGradient id="g33" x2="1" gradientUnits="userSpaceOnUse" gradientTransform="matrix(-2.441,45.661,-31.067,-1.661,205.669,71.736)">
			<stop offset="0" stop-color="#586400"/>
			<stop offset="1" stop-color="#ffffff"/>
		</linearGradient>
		<linearGradient id="g34" x2="1" gradientUnits="userSpaceOnUse" gradientTransform="matrix(-0.211,4.123,-1.682,-0.086,158.678,221.574)">
			<stop offset="0" stop-color="#16224d"/>
			<stop offset="1" stop-color="#172861"/>
		</linearGradient>
		<linearGradient id="g35" x2="1" gradientUnits="userSpaceOnUse" gradientTransform="matrix(-6.127,119.853,-66.938,-3.422,95.584,180.343)">
			<stop offset="0" stop-color="#16224d"/>
			<stop offset="1" stop-color="#172861"/>
		</linearGradient>
		<linearGradient id="g36" x2="1" gradientUnits="userSpaceOnUse" gradientTransform="matrix(-0.429,-11.488,53.018,-1.982,107.665,180.908)">
			<stop offset=".229" stop-color="#000000"/>
			<stop offset="1" stop-color="#c1d2ed"/>
		</linearGradient>
		<linearGradient id="g37" x2="1" gradientUnits="userSpaceOnUse" gradientTransform="matrix(-176.773,0,0,-5.609,487.066,274.617)">
			<stop offset="0" stop-color="#f1f1ff"/>
			<stop offset=".992" stop-color="#eaeffd"/>
		</linearGradient>
		<linearGradient id="g38" x2="1" gradientUnits="userSpaceOnUse" gradientTransform="matrix(-270.485,-2.191,.961,-118.619,178.941,96.151)">
			<stop offset="0" stop-color="#221e38"/>
			<stop offset="1" stop-color="#231a42"/>
		</linearGradient>
		<linearGradient id="g39" x2="1" gradientUnits="userSpaceOnUse" gradientTransform="matrix(-697.592,-5.65,.408,-50.402,1021.671,232.279)">
			<stop offset="0" stop-color="#221e38"/>
			<stop offset="1" stop-color="#231a42"/>
		</linearGradient>
		<linearGradient id="g40" x2="1" gradientUnits="userSpaceOnUse" gradientTransform="matrix(-523.236,-4.238,.764,-94.282,452.784,185.601)">
			<stop offset="0" stop-color="#221e38"/>
			<stop offset="1" stop-color="#231a42"/>
		</linearGradient>
		<linearGradient id="g41" x2="1" gradientUnits="userSpaceOnUse" gradientTransform="matrix(-115.792,-4.774,1.973,-47.85,124.407,213.844)">
			<stop offset="0" stop-color="#221e38"/>
			<stop offset="1" stop-color="#231a42"/>
		</linearGradient>
		<linearGradient id="g42" x2="1" gradientUnits="userSpaceOnUse" gradientTransform="matrix(-182.997,-7.546,2.403,-58.269,137.36,227.126)">
			<stop offset="0" stop-color="#221e38"/>
			<stop offset="1" stop-color="#231a42"/>
		</linearGradient>
		<linearGradient id="g43" x2="1" gradientUnits="userSpaceOnUse" gradientTransform="matrix(-61.223,-0.496,.132,-16.266,527.058,261.458)">
			<stop offset="0" stop-color="#221e38"/>
			<stop offset="1" stop-color="#231a42"/>
		</linearGradient>
		<linearGradient id="g44" x2="1" gradientUnits="userSpaceOnUse" gradientTransform="matrix(-22.177,-0.18,.122,-15.121,523.106,267.056)">
			<stop offset="0" stop-color="#221e38"/>
			<stop offset="1" stop-color="#231a42"/>
		</linearGradient>
		<linearGradient id="g45" x2="1" gradientUnits="userSpaceOnUse" gradientTransform="matrix(-72.602,-0.588,.139,-17.148,852.979,238.99)">
			<stop offset="0" stop-color="#221e38"/>
			<stop offset="1" stop-color="#231a42"/>
		</linearGradient>
		<linearGradient id="g46" x2="1" gradientUnits="userSpaceOnUse" gradientTransform="matrix(-183.817,-1.489,.126,-15.614,858.289,228.885)">
			<stop offset="0" stop-color="#221e38"/>
			<stop offset="1" stop-color="#231a42"/>
		</linearGradient>
		<linearGradient id="g47" x2="1" gradientUnits="userSpaceOnUse" gradientTransform="matrix(-24.925,56.979,-19.578,-8.564,138.195,221.054)">
			<stop offset="0" stop-color="#221e38"/>
			<stop offset="1" stop-color="#231a42"/>
		</linearGradient>
		<linearGradient id="g48" x2="1" gradientUnits="userSpaceOnUse" gradientTransform="matrix(-17.696,40.453,-31.323,-13.702,361.042,252.447)">
			<stop offset="0" stop-color="#221e38"/>
			<stop offset="1" stop-color="#231a42"/>
		</linearGradient>
		<linearGradient id="g49" x2="1" gradientUnits="userSpaceOnUse" gradientTransform="matrix(0,-35.205,845.979,0,442.475,311.511)">
			<stop offset="0" stop-color="#077fa9"/>
			<stop offset="1" stop-color="#331189"/>
		</linearGradient>
		<linearGradient id="g50" x2="1" gradientUnits="userSpaceOnUse" gradientTransform="matrix(1.118,-79.732,12.181,.171,271.339,373.446)">
			<stop offset="0" stop-color="#ffffff"/>
			<stop offset="1" stop-color="#5a70b8"/>
		</linearGradient>
		<linearGradient id="g51" x2="1" gradientUnits="userSpaceOnUse" gradientTransform="matrix(-1.334,54.676,-838.139,-20.443,751.32,273.988)">
			<stop offset="0" stop-color="#295ed1"/>
			<stop offset="1" stop-color="#ffffff"/>
		</linearGradient>
		<linearGradient id="g52" x2="1" gradientUnits="userSpaceOnUse" gradientTransform="matrix(3.336,197.93,-1303.305,21.967,238.559,195.678)">
			<stop offset="0" stop-color="#295ed1"/>
			<stop offset="1" stop-color="#ffffff"/>
		</linearGradient>
		<linearGradient id="g53" x2="1" gradientUnits="userSpaceOnUse" gradientTransform="matrix(1.002,-0.261,.065,.25,733.123,87.854)">
			<stop offset="0" stop-color="#ffffff"/>
			<stop offset="1" stop-color="#870050"/>
		</linearGradient>
	</defs>
	<style>
		.s0 { fill: url(#g1) } 
		.s1 { fill: #00ffff } 
		.s2 { fill: #0d96e1 } 
		.s3 { opacity: .5;fill: #00ffff } 
		.s4 { mix-blend-mode: screen;fill: url(#g2) } 
		.s5 { mix-blend-mode: screen;fill: url(#g3) } 
		.s6 { opacity: .4;fill: url(#g4) } 
		.s7 { opacity: .4;fill: url(#g5) } 
		.s8 { fill: url(#g6) } 
		.s9 { fill: url(#g7) } 
		.s10 { opacity: .5;mix-blend-mode: multiply;fill: url(#g8) } 
		.s11 { opacity: .5;mix-blend-mode: multiply;fill: url(#g9) } 
		.s12 { fill: url(#g10) } 
		.s13 { fill: url(#g11) } 
		.s14 { opacity: .5;mix-blend-mode: multiply;fill: url(#g12) } 
		.s15 { opacity: .5;mix-blend-mode: multiply;fill: url(#g13) } 
		.s16 { opacity: .5;mix-blend-mode: multiply;fill: url(#g14) } 
		.s17 { opacity: .5;mix-blend-mode: multiply;fill: url(#g15) } 
		.s18 { fill: url(#g16) } 
		.s19 { fill: url(#g17) } 
		.s20 { opacity: .5;mix-blend-mode: multiply;fill: url(#g18) } 
		.s21 { opacity: .5;mix-blend-mode: multiply;fill: url(#g19) } 
		.s22 { fill: url(#g20) } 
		.s23 { fill: url(#g21) } 
		.s24 { opacity: .5;mix-blend-mode: multiply;fill: url(#g22) } 
		.s25 { opacity: .5;mix-blend-mode: multiply;fill: url(#g23) } 
		.s26 { opacity: .5;mix-blend-mode: multiply;fill: url(#g24) } 
		.s27 { opacity: .5;mix-blend-mode: multiply;fill: url(#g25) } 
		.s28 { fill: url(#g26) } 
		.s29 { fill: url(#g27) } 
		.s30 { opacity: .5;mix-blend-mode: multiply;fill: url(#g28) } 
		.s31 { opacity: .5;mix-blend-mode: multiply;fill: url(#g29) } 
		.s32 { fill: url(#g30) } 
		.s33 { fill: url(#g31) } 
		.s34 { opacity: .5;mix-blend-mode: multiply;fill: url(#g32) } 
		.s35 { opacity: .5;mix-blend-mode: multiply;fill: url(#g33) } 
		.s36 { opacity: .5;mix-blend-mode: multiply;fill: url(#g34) } 
		.s37 { opacity: .5;mix-blend-mode: multiply;fill: url(#g35) } 
		.s38 { mix-blend-mode: screen;fill: url(#g36) } 
		.s39 { fill: url(#g37) } 
		.s40 { fill: url(#g38) } 
		.s41 { mix-blend-mode: multiply;fill: #6b5f9e } 
		.s42 { fill: #152f69 } 
		.s43 { fill: url(#g39) } 
		.s44 { fill: #4138a2 } 
		.s45 { fill: url(#g40) } 
		.s46 { fill: url(#g41) } 
		.s47 { fill: url(#g42) } 
		.s48 { fill: url(#g43) } 
		.s49 { fill: url(#g44) } 
		.s50 { fill: url(#g45) } 
		.s51 { fill: url(#g46) } 
		.s52 { fill: url(#g47) } 
		.s53 { fill: url(#g48) } 
		.s54 { opacity: .3;mix-blend-mode: multiply;fill: #c24672 } 
		.s55 { fill: url(#g49) } 
		.s56 { opacity: .1;mix-blend-mode: multiply;fill: url(#g50) } 
		.s57 { mix-blend-mode: multiply;fill: url(#g51) } 
		.s58 { mix-blend-mode: multiply;fill: url(#g52) } 
		.s59 { opacity: .5;mix-blend-mode: screen;fill: #6a6fff } 
		.s60 { fill: #1b1645 } 
		.s61 { opacity: .3;mix-blend-mode: multiply;fill: #0a001b } 
		.s62 { opacity: .2;mix-blend-mode: multiply;fill: #c24672 } 
		.s63 { fill: #191742 } 
		.s64 { opacity: .2;mix-blend-mode: multiply;fill: #96629b } 
		.s65 { fill: #420163 } 
		.s66 { mix-blend-mode: multiply;fill: #420163 } 
		.s67 { opacity: .8;mix-blend-mode: multiply;fill: #b57445 } 
		.s68 { opacity: .3;mix-blend-mode: multiply;fill: url(#g53) } 
		.s69 { fill: #6a6fff } 
		.s70 { fill: #0c0726 } 
		.s71 { fill: #000010 } 
		.s72 { fill: #09000f } 
		.s73 { fill: #150930 } 
		.s74 { fill: #0a0906 } 
		.s75 { fill: #005681 } 
		.s76 { fill: #180b38 } 
	</style>
	<g id="_Artboards_">
	</g>
	<g id="layer1">
		<g id="&lt;Group&gt;">
			<g id="&lt;Group&gt;">
				<g id="&lt;Clip Group&gt;" clip-path="url(#cp1)">
					<path id="&lt;Path&gt;" class="s0" d="m973 300.8h-1132.3v-306.2h1132.3z"/>
					<g id="&lt;Group&gt;">
						<path id="&lt;Path&gt;" class="s1" d="m626.4 141.9c0 0.4-0.2 0.6-0.5 0.6-0.4 0-0.6-0.2-0.6-0.6 0-0.3 0.2-0.6 0.6-0.6 0.3 0 0.5 0.3 0.5 0.6z"/>
						<path id="&lt;Path&gt;" class="s1" d="m914.5 46.9c0 0.3-0.2 0.5-0.6 0.5-0.3 0-0.6-0.2-0.6-0.5 0-0.4 0.3-0.6 0.6-0.6 0.4 0 0.6 0.2 0.6 0.6z"/>
						<path id="&lt;Path&gt;" class="s2" d="m444.5 248.6c0 0.3-0.3 0.6-0.6 0.6-0.3 0-0.6-0.3-0.6-0.6 0-0.3 0.3-0.6 0.6-0.6 0.3 0 0.6 0.3 0.6 0.6z"/>
						<path id="&lt;Path&gt;" class="s1" d="m514.5 29.1c0.2-0.1 0.4 0.1 0.4 0.3 0 0.2-0.1 0.4-0.3 0.4-0.2 0-0.4-0.1-0.4-0.3-0.1-0.2 0.1-0.4 0.3-0.4z"/>
						<path id="&lt;Path&gt;" class="s1" d="m603.7 57.1c0 0.7-0.5 1.2-1.1 1.2-0.7 0-1.2-0.5-1.2-1.2 0-0.6 0.5-1.1 1.2-1.1 0.6 0 1.1 0.5 1.1 1.1z"/>
						<path id="&lt;Path&gt;" class="s1" d="m560.9 13.2c0 0.3-0.3 0.6-0.6 0.6-0.3 0-0.6-0.3-0.6-0.6 0-0.4 0.3-0.6 0.6-0.6 0.3 0 0.6 0.2 0.6 0.6z"/>
						<path id="&lt;Path&gt;" class="s1" d="m698.8 40.1c0 0.3-0.2 0.6-0.6 0.6-0.3 0-0.5-0.3-0.5-0.6 0-0.4 0.2-0.6 0.5-0.6 0.4 0 0.6 0.2 0.6 0.6z"/>
						<path id="&lt;Path&gt;" class="s1" d="m603.2 8.2c0 0.4-0.2 0.6-0.6 0.6-0.3 0-0.6-0.2-0.6-0.6 0-0.3 0.3-0.5 0.6-0.5 0.4 0 0.6 0.2 0.6 0.5z"/>
						<path id="&lt;Path&gt;" class="s1" d="m484.6 254.3c0 0.4-0.3 0.6-0.6 0.6-0.4 0-0.6-0.2-0.6-0.6 0-0.3 0.2-0.6 0.6-0.6 0.3 0 0.6 0.3 0.6 0.6z"/>
						<path id="&lt;Path&gt;" class="s1" d="m833 17.8c0 0.3-0.3 0.6-0.6 0.6-0.4 0-0.6-0.3-0.6-0.6 0-0.4 0.2-0.6 0.6-0.6 0.3 0 0.6 0.2 0.6 0.6z"/>
						<path id="&lt;Path&gt;" class="s1" d="m596.6 59.3c0 0.3-0.3 0.6-0.6 0.6-0.3 0-0.6-0.3-0.6-0.6 0-0.3 0.3-0.6 0.6-0.6 0.3 0 0.6 0.3 0.6 0.6z"/>
						<path id="&lt;Path&gt;" class="s1" d="m497 36.9c0 0.2-0.2 0.4-0.4 0.4-0.2 0-0.3-0.2-0.3-0.4 0-0.2 0.1-0.4 0.3-0.4 0.2 0 0.4 0.2 0.4 0.4z"/>
						<path id="&lt;Path&gt;" class="s2" d="m554.1 261.6c0 0.4-0.3 0.6-0.6 0.6-0.3 0-0.6-0.2-0.6-0.6 0-0.3 0.3-0.5 0.6-0.5 0.3 0 0.6 0.2 0.6 0.5z"/>
						<path id="&lt;Path&gt;" class="s1" d="m480.6 56.6c0.3 0 0.6 0.2 0.7 0.5 0.1 0.3-0.2 0.6-0.5 0.7-0.3 0.1-0.6-0.2-0.7-0.5 0-0.3 0.2-0.6 0.5-0.7z"/>
						<path id="&lt;Path&gt;" class="s1" d="m699.4 81.4c0 0.4-0.3 0.6-0.6 0.6-0.4 0-0.6-0.2-0.6-0.6 0-0.3 0.2-0.6 0.6-0.6 0.3 0 0.6 0.3 0.6 0.6z"/>
						<path id="&lt;Path&gt;" class="s1" d="m565 32.7c0 0.2-0.2 0.3-0.4 0.3-0.2 0-0.3-0.1-0.3-0.3 0-0.2 0.1-0.4 0.3-0.4 0.2 0 0.4 0.2 0.4 0.4z"/>
						<path id="&lt;Path&gt;" class="s1" d="m447.9 14.3c0 0.4-0.3 0.6-0.6 0.6-0.3 0-0.6-0.2-0.6-0.6 0-0.3 0.3-0.5 0.6-0.5 0.3 0 0.6 0.2 0.6 0.5z"/>
						<path id="&lt;Path&gt;" class="s1" d="m706.8 154c0 0.3-0.3 0.6-0.6 0.6-0.3 0-0.6-0.3-0.6-0.6 0-0.3 0.3-0.6 0.6-0.6 0.3 0 0.6 0.3 0.6 0.6z"/>
						<path id="&lt;Path&gt;" class="s1" d="m500.8 31.1c0.2 0 0.4 0.1 0.5 0.3 0 0.3-0.1 0.5-0.3 0.5-0.2 0-0.4-0.1-0.5-0.3 0-0.2 0.1-0.4 0.3-0.5z"/>
						<path id="&lt;Path&gt;" class="s1" d="m900.1 49c0 0.4-0.2 0.6-0.6 0.6-0.3 0-0.5-0.2-0.5-0.6 0-0.3 0.2-0.6 0.5-0.6 0.4 0 0.6 0.3 0.6 0.6z"/>
						<path id="&lt;Path&gt;" class="s1" d="m613.9 83.5c0 0.3-0.2 0.6-0.5 0.6-0.4 0-0.6-0.3-0.6-0.6 0-0.3 0.2-0.6 0.6-0.6 0.3 0 0.5 0.3 0.5 0.6z"/>
						<path id="&lt;Path&gt;" class="s1" d="m534 16.9c0 0.3-0.2 0.5-0.5 0.5-0.3 0-0.5-0.2-0.5-0.5 0-0.3 0.2-0.5 0.5-0.5 0.3 0 0.5 0.2 0.5 0.5z"/>
						<path id="&lt;Path&gt;" class="s1" d="m559.3 46.5c0 0.3-0.2 0.6-0.6 0.6-0.3 0-0.5-0.3-0.5-0.6 0-0.3 0.2-0.6 0.5-0.6 0.4 0 0.6 0.3 0.6 0.6z"/>
						<path id="&lt;Path&gt;" class="s1" d="m948.7 55.8c0.2 0.1 0.3 0.5 0.2 0.8-0.2 0.3-0.6 0.4-0.8 0.2-0.3-0.2-0.4-0.5-0.2-0.8 0.1-0.3 0.5-0.4 0.8-0.2z"/>
						<path id="&lt;Path&gt;" class="s1" d="m458.5 180.6c0 0.4-0.3 0.6-0.6 0.6-0.3 0-0.6-0.2-0.6-0.6 0-0.3 0.3-0.6 0.6-0.6 0.3 0 0.6 0.3 0.6 0.6z"/>
						<path id="&lt;Path&gt;" class="s1" d="m736.8 63.4c0 0.8-0.6 1.4-1.4 1.4-0.7 0-1.3-0.6-1.3-1.4 0-0.7 0.6-1.3 1.3-1.3 0.8 0 1.4 0.6 1.4 1.3z"/>
						<path id="&lt;Path&gt;" class="s1" d="m618.9 47c0 0.3-0.2 0.6-0.6 0.6-0.3 0-0.5-0.3-0.5-0.6 0-0.3 0.2-0.6 0.5-0.6 0.4 0 0.6 0.3 0.6 0.6z"/>
						<path id="&lt;Path&gt;" class="s1" d="m673 12.8c0.4-0.2 0.9 0.1 1 0.6 0.2 0.4-0.1 0.9-0.6 1-0.4 0.1-0.9-0.1-1-0.6-0.2-0.4 0.1-0.9 0.6-1z"/>
						<path id="&lt;Path&gt;" class="s1" d="m751.9 123.5c0.4-0.1 0.9 0.1 1 0.6 0.1 0.5-0.1 0.9-0.6 1.1-0.5 0.1-0.9-0.2-1.1-0.7-0.1-0.4 0.2-0.9 0.7-1z"/>
						<path id="&lt;Path&gt;" class="s1" d="m874.3 66.1c0.4-0.2 0.9 0.1 1 0.6 0.2 0.4-0.1 0.9-0.6 1-0.4 0.2-0.9-0.1-1-0.6-0.2-0.4 0.1-0.9 0.6-1z"/>
						<path id="&lt;Path&gt;" class="s1" d="m779.2 4.2c0.5-0.1 1 0.2 1.1 0.6 0.1 0.5-0.2 1-0.6 1.1-0.5 0.1-1-0.2-1.1-0.6-0.1-0.5 0.2-1 0.6-1.1z"/>
						<path id="&lt;Path&gt;" class="s1" d="m658.4 25.2c0.5-0.1 0.9 0.1 1 0.6 0.2 0.5-0.1 0.9-0.6 1.1-0.4 0.1-0.9-0.2-1-0.7-0.1-0.4 0.1-0.9 0.6-1z"/>
						<path id="&lt;Path&gt;" class="s1" d="m190.4 54.2c0 0.4-0.2 0.6-0.6 0.6-0.3 0-0.5-0.2-0.5-0.6 0-0.3 0.2-0.5 0.5-0.5 0.4 0 0.6 0.2 0.6 0.5z"/>
						<path id="&lt;Path&gt;" class="s1" d="m121 45.1c0 0.3-0.3 0.6-0.6 0.6-0.3 0-0.6-0.3-0.6-0.6 0-0.3 0.3-0.6 0.6-0.6 0.3 0 0.6 0.3 0.6 0.6z"/>
						<path id="&lt;Path&gt;" class="s1" d="m390.3 8c0 0.5-0.4 0.9-0.9 0.9-0.5 0-0.9-0.4-0.9-0.9 0-0.5 0.4-0.9 0.9-0.9 0.5 0 0.9 0.4 0.9 0.9z"/>
						<path id="&lt;Path&gt;" class="s1" d="m191.3 26.1c0 0.2-0.2 0.4-0.4 0.4-0.2 0-0.4-0.2-0.4-0.4 0-0.3 0.2-0.5 0.4-0.5 0.2 0 0.4 0.2 0.4 0.5z"/>
						<path id="&lt;Path&gt;" class="s1" d="m388.7 68.1c0 0.2-0.2 0.4-0.5 0.4-0.2 0-0.4-0.2-0.4-0.4 0-0.2 0.2-0.4 0.4-0.4 0.3 0 0.5 0.2 0.5 0.4z"/>
						<path id="&lt;Path&gt;" class="s1" d="m359.7 10.1c0 0.3-0.3 0.6-0.6 0.6-0.3 0-0.6-0.3-0.6-0.6 0-0.3 0.3-0.6 0.6-0.6 0.3 0 0.6 0.3 0.6 0.6z"/>
						<path id="&lt;Path&gt;" class="s1" d="m110.2 77.8c0 0.4-0.3 0.6-0.6 0.6-0.4 0-0.6-0.2-0.6-0.6 0-0.3 0.2-0.6 0.6-0.6 0.3 0 0.6 0.3 0.6 0.6z"/>
						<path id="&lt;Path&gt;" class="s1" d="m97.7 17c0 0.3-0.2 0.6-0.6 0.6-0.3 0-0.5-0.3-0.5-0.6 0-0.3 0.2-0.6 0.5-0.6 0.4 0 0.6 0.3 0.6 0.6z"/>
						<path id="&lt;Path&gt;" class="s1" d="m316.5 13.4c0 0.3-0.2 0.5-0.5 0.5-0.2 0-0.4-0.2-0.4-0.5 0-0.2 0.2-0.4 0.4-0.4 0.3 0 0.5 0.2 0.5 0.4z"/>
						<path id="&lt;Path&gt;" class="s1" d="m153.9 103.5c0 0.3-0.3 0.6-0.6 0.6-0.3 0-0.6-0.3-0.6-0.6 0-0.3 0.3-0.6 0.6-0.6 0.3 0 0.6 0.3 0.6 0.6z"/>
						<path id="&lt;Path&gt;" class="s1" d="m201.2 86.1c0 0.4-0.3 0.6-0.6 0.6-0.3 0-0.6-0.2-0.6-0.6 0-0.3 0.3-0.5 0.6-0.5 0.3 0 0.6 0.2 0.6 0.5z"/>
						<path id="&lt;Path&gt;" class="s1" d="m302.8 25.8c0 0.3-0.2 0.5-0.5 0.5-0.2 0-0.4-0.2-0.4-0.5 0-0.2 0.2-0.4 0.4-0.4 0.3 0 0.5 0.2 0.5 0.4z"/>
						<path id="&lt;Path&gt;" class="s1" d="m21.6 64.7c0 0.3-0.2 0.5-0.5 0.5-0.4 0-0.6-0.2-0.6-0.5 0-0.4 0.2-0.6 0.6-0.6 0.3 0 0.5 0.2 0.5 0.6z"/>
						<path id="&lt;Path&gt;" class="s1" d="m72.2 92.2c0 0.3-0.2 0.6-0.6 0.6-0.3 0-0.5-0.3-0.5-0.6 0-0.4 0.2-0.6 0.5-0.6 0.4 0 0.6 0.2 0.6 0.6z"/>
						<path id="&lt;Path&gt;" class="s1" d="m48.8 77c0 0.3-0.2 0.6-0.6 0.6-0.3 0-0.6-0.3-0.6-0.6 0-0.4 0.3-0.6 0.6-0.6 0.4 0 0.6 0.2 0.6 0.6z"/>
						<path id="&lt;Path&gt;" class="s1" d="m21.5-18c0 0.4-0.3 0.6-0.6 0.6-0.3 0-0.6-0.2-0.6-0.6 0-0.3 0.3-0.6 0.6-0.6 0.3 0 0.6 0.3 0.6 0.6z"/>
						<path id="&lt;Path&gt;" class="s1" d="m-18.3 34.8c0 0.3-0.3 0.5-0.6 0.5-0.3 0-0.6-0.2-0.6-0.5 0-0.4 0.3-0.6 0.6-0.6 0.3 0 0.6 0.2 0.6 0.6z"/>
						<path id="&lt;Path&gt;" class="s1" d="m405.7 14c0 0.1-0.1 0.2-0.3 0.2-0.1 0-0.2-0.1-0.2-0.2 0-0.2 0.1-0.3 0.2-0.3 0.2 0 0.3 0.1 0.3 0.3z"/>
						<path id="&lt;Path&gt;" class="s1" d="m233.1 10.6c0 0.3-0.2 0.6-0.6 0.6-0.3 0-0.5-0.3-0.5-0.6 0-0.3 0.2-0.6 0.5-0.6 0.4 0 0.6 0.3 0.6 0.6z"/>
						<path id="&lt;Path&gt;" class="s1" d="m167.7 71.8c0 0.3-0.2 0.6-0.6 0.6-0.3 0-0.6-0.3-0.6-0.6 0-0.3 0.3-0.6 0.6-0.6 0.4 0 0.6 0.3 0.6 0.6z"/>
						<path id="&lt;Path&gt;" class="s1" d="m921.5 62.3c0 0.3-0.3 0.6-0.6 0.6-0.3 0-0.6-0.3-0.6-0.6 0-0.3 0.3-0.6 0.6-0.6 0.3 0 0.6 0.3 0.6 0.6z"/>
						<path id="&lt;Path&gt;" class="s1" d="m941.6 56.1c-0.1-0.2 0-0.4 0.2-0.4 0.1-0.1 0.3 0 0.4 0.1 0 0.2 0 0.4-0.2 0.4-0.2 0.1-0.3 0-0.4-0.1z"/>
						<path id="&lt;Path&gt;" class="s1" d="m395.1-6c0 0.3-0.3 0.6-0.6 0.6-0.4 0-0.6-0.3-0.6-0.6 0-0.3 0.2-0.6 0.6-0.6 0.3 0 0.6 0.3 0.6 0.6z"/>
						<path id="&lt;Path&gt;" class="s1" d="m963.2 36.7c0.3 0.2 0.4 0.6 0.2 0.8-0.2 0.3-0.5 0.4-0.8 0.2-0.3-0.1-0.4-0.5-0.2-0.8 0.2-0.3 0.5-0.3 0.8-0.2z"/>
						<path id="&lt;Path&gt;" class="s1" d="m394.2 73.4c0 0.3-0.2 0.5-0.4 0.5-0.3 0-0.5-0.2-0.5-0.5 0-0.2 0.2-0.4 0.5-0.4 0.2 0 0.4 0.2 0.4 0.4z"/>
						<path id="&lt;Path&gt;" class="s1" d="m525.6 10c0 0.4-0.4 0.8-0.8 0.8-0.4 0-0.8-0.4-0.8-0.8 0-0.5 0.4-0.8 0.8-0.8 0.4 0 0.8 0.3 0.8 0.8z"/>
						<path id="&lt;Path&gt;" class="s1" d="m864.3 8.1c0.3 0.2 0.4 0.6 0.2 0.8-0.1 0.3-0.5 0.4-0.8 0.2-0.2-0.1-0.3-0.5-0.2-0.8 0.2-0.3 0.6-0.3 0.8-0.2z"/>
						<path id="&lt;Path&gt;" class="s1" d="m400.1 144.8c0 0.4-0.3 0.6-0.6 0.6-0.4 0-0.6-0.2-0.6-0.6 0-0.3 0.2-0.5 0.6-0.5 0.3 0 0.6 0.2 0.6 0.5z"/>
						<path id="&lt;Path&gt;" class="s1" d="m571.5 28c0 0.3-0.2 0.5-0.6 0.5-0.3 0-0.6-0.2-0.6-0.5 0-0.4 0.3-0.6 0.6-0.6 0.4 0 0.6 0.2 0.6 0.6z"/>
						<path id="&lt;Path&gt;" class="s1" d="m439.3 66c0 0.4-0.2 0.6-0.5 0.6-0.4 0-0.6-0.2-0.6-0.6 0-0.3 0.2-0.6 0.6-0.6 0.3 0 0.5 0.3 0.5 0.6z"/>
						<path id="&lt;Path&gt;" class="s1" d="m916.2 41.3c0.2 0.2 0.3 0.5 0.2 0.8-0.2 0.3-0.6 0.4-0.8 0.2-0.3-0.1-0.4-0.5-0.2-0.8 0.1-0.3 0.5-0.4 0.8-0.2z"/>
						<path id="&lt;Path&gt;" class="s1" d="m783.9 76.9c0.3 0.2 0.4 0.5 0.3 0.8-0.1 0.3-0.4 0.5-0.7 0.3-0.3-0.1-0.5-0.4-0.4-0.7 0.1-0.3 0.5-0.5 0.8-0.4z"/>
						<path id="&lt;Path&gt;" class="s1" d="m767.2 70.6c0 0.3-0.2 0.5-0.6 0.5-0.3 0-0.5-0.2-0.5-0.5 0-0.4 0.2-0.6 0.5-0.6 0.4 0 0.6 0.2 0.6 0.6z"/>
						<path id="&lt;Path&gt;" class="s1" d="m734.9 72.5c0 0.3-0.3 0.6-0.6 0.6-0.3 0-0.6-0.3-0.6-0.6 0-0.3 0.3-0.6 0.6-0.6 0.3 0 0.6 0.3 0.6 0.6z"/>
						<path id="&lt;Path&gt;" class="s1" d="m794.1 60.4c0.5-0.2 1 0.1 1.1 0.6 0.1 0.4-0.2 0.9-0.6 1-0.5 0.1-0.9-0.1-1.1-0.6-0.1-0.5 0.2-0.9 0.6-1z"/>
						<path id="&lt;Path&gt;" class="s1" d="m752 80.8c0 0.4-0.2 0.6-0.6 0.6-0.3 0-0.6-0.2-0.6-0.6 0-0.3 0.3-0.5 0.6-0.5 0.4 0 0.6 0.2 0.6 0.5z"/>
						<path id="&lt;Path&gt;" class="s1" d="m194.3 44.7c0 0.5-0.4 0.9-0.9 0.9-0.5 0-0.9-0.4-0.9-0.9 0-0.5 0.4-0.9 0.9-0.9 0.5 0 0.9 0.4 0.9 0.9z"/>
						<path id="&lt;Path&gt;" class="s1" d="m12.7 18.1c0 0.3-0.3 0.6-0.6 0.6-0.3 0-0.6-0.3-0.6-0.6 0-0.3 0.3-0.6 0.6-0.6 0.3 0 0.6 0.3 0.6 0.6z"/>
						<path id="&lt;Path&gt;" class="s1" d="m80 19.4c0 0.4-0.3 0.6-0.6 0.6-0.4 0-0.6-0.2-0.6-0.6 0-0.3 0.2-0.5 0.6-0.5 0.3 0 0.6 0.2 0.6 0.5z"/>
						<path id="&lt;Path&gt;" class="s1" d="m372 25.6c0 0.3-0.2 0.5-0.5 0.5-0.2 0-0.4-0.2-0.4-0.5 0-0.2 0.2-0.4 0.4-0.4 0.3 0 0.5 0.2 0.5 0.4z"/>
						<g id="&lt;Group&gt;">
							<path id="&lt;Path&gt;" class="s3" d="m758 67.4c0 0.2-0.2 0.4-0.4 0.4-0.2 0-0.4-0.2-0.4-0.4 0-0.2 0.2-0.4 0.4-0.4 0.2 0 0.4 0.2 0.4 0.4z"/>
							<path id="&lt;Path&gt;" class="s3" d="m704.3 71.6c0 0.2-0.1 0.4-0.3 0.4-0.2 0-0.4-0.2-0.4-0.4 0-0.2 0.2-0.3 0.4-0.3 0.2 0 0.3 0.1 0.3 0.3z"/>
							<path id="&lt;Path&gt;" class="s3" d="m689.6 40c0 0.2-0.2 0.4-0.4 0.4-0.2 0-0.3-0.2-0.3-0.4 0-0.2 0.1-0.3 0.3-0.3 0.2 0 0.4 0.1 0.4 0.3z"/>
							<path id="&lt;Path&gt;" class="s3" d="m709.9 71.3c0 0.2-0.1 0.3-0.3 0.3-0.2 0-0.4-0.1-0.4-0.3 0-0.2 0.2-0.4 0.4-0.4 0.2 0 0.3 0.2 0.3 0.4z"/>
							<path id="&lt;Path&gt;" class="s3" d="m723 60.1c0 0.2-0.2 0.4-0.4 0.4-0.2 0-0.3-0.2-0.3-0.4 0-0.2 0.1-0.4 0.3-0.4 0.2 0 0.4 0.2 0.4 0.4z"/>
							<path id="&lt;Path&gt;" class="s3" d="m706 40c0.3 0.1 0.4 0.4 0.3 0.7-0.1 0.3-0.4 0.5-0.7 0.4-0.3-0.2-0.5-0.5-0.4-0.8 0.1-0.3 0.5-0.5 0.8-0.3z"/>
							<path id="&lt;Path&gt;" class="s3" d="m879.5 56.4c0 0.4-0.2 0.6-0.6 0.6-0.3 0-0.6-0.2-0.6-0.6 0-0.3 0.3-0.5 0.6-0.5 0.4 0 0.6 0.2 0.6 0.5z"/>
							<path id="&lt;Path&gt;" class="s3" d="m871.9 81.2c0 0.3-0.3 0.6-0.6 0.6-0.3 0-0.6-0.3-0.6-0.6 0-0.4 0.3-0.6 0.6-0.6 0.3 0 0.6 0.2 0.6 0.6z"/>
							<path id="&lt;Path&gt;" class="s3" d="m754.8 53.4c0 0.2-0.2 0.3-0.4 0.3-0.2 0-0.4-0.1-0.4-0.3 0-0.2 0.2-0.4 0.4-0.4 0.2 0 0.4 0.2 0.4 0.4z"/>
							<path id="&lt;Path&gt;" class="s3" d="m812.2 9.8c0.5-0.2 1 0.1 1.1 0.6 0.1 0.4-0.1 0.9-0.6 1-0.5 0.2-0.9-0.1-1.1-0.6-0.1-0.4 0.2-0.9 0.6-1z"/>
							<path id="&lt;Path&gt;" class="s3" d="m713 25.3c0 0.2-0.2 0.4-0.4 0.4-0.2 0-0.4-0.2-0.4-0.4 0-0.2 0.2-0.3 0.4-0.3 0.2 0 0.4 0.1 0.4 0.3z"/>
							<path id="&lt;Path&gt;" class="s3" d="m676.2 28c0 0.2-0.2 0.4-0.4 0.4-0.2 0-0.4-0.2-0.4-0.4 0-0.2 0.2-0.3 0.4-0.3 0.2 0 0.4 0.1 0.4 0.3z"/>
							<path id="&lt;Path&gt;" class="s3" d="m83.3 10.3c0 0.5-0.4 0.9-0.9 0.9-0.5 0-0.9-0.4-0.9-0.9 0-0.5 0.4-0.9 0.9-0.9 0.5 0 0.9 0.4 0.9 0.9z"/>
							<path id="&lt;Path&gt;" class="s3" d="m39 86.8c0 0.4-0.3 0.6-0.6 0.6-0.3 0-0.6-0.2-0.6-0.6 0-0.3 0.3-0.6 0.6-0.6 0.3 0 0.6 0.3 0.6 0.6z"/>
							<path id="&lt;Path&gt;" class="s3" d="m160.7 54.6c0 0.2-0.2 0.4-0.5 0.4-0.2 0-0.4-0.2-0.4-0.4 0-0.3 0.2-0.5 0.4-0.5 0.3 0 0.5 0.2 0.5 0.5z"/>
							<path id="&lt;Path&gt;" class="s3" d="m712.3 59.1c0.3 0.1 0.4 0.4 0.3 0.7-0.1 0.3-0.4 0.5-0.8 0.4-0.3-0.1-0.4-0.5-0.3-0.8 0.1-0.3 0.5-0.4 0.8-0.3z"/>
							<path id="&lt;Path&gt;" class="s3" d="m892.3 74.7c0.1-0.2 0.3-0.2 0.4-0.1 0.2 0.1 0.2 0.3 0.1 0.5-0.1 0.1-0.3 0.1-0.4 0-0.2-0.1-0.2-0.3-0.1-0.4z"/>
							<path id="&lt;Path&gt;" class="s3" d="m898.1 73.6c0.1-0.1 0.3-0.1 0.4 0 0.2 0.1 0.2 0.3 0.1 0.4-0.1 0.1-0.3 0.2-0.5 0.1-0.1-0.2-0.1-0.3 0-0.5z"/>
							<path id="&lt;Path&gt;" class="s3" d="m899.2 67.7c0 0.4-0.3 0.6-0.6 0.6-0.3 0-0.6-0.2-0.6-0.6 0-0.3 0.3-0.5 0.6-0.5 0.3 0 0.6 0.2 0.6 0.5z"/>
							<path id="&lt;Path&gt;" class="s3" d="m154.9 56.7c0.2 0.1 0.3 0.3 0.2 0.6 0 0.2-0.3 0.3-0.5 0.2-0.2-0.1-0.3-0.3-0.2-0.5 0.1-0.2 0.3-0.3 0.5-0.3z"/>
							<path id="&lt;Path&gt;" class="s3" d="m143.7 55.5c0 0.3-0.1 0.5-0.4 0.5-0.2 0-0.4-0.2-0.4-0.5 0-0.2 0.2-0.4 0.4-0.4 0.3 0 0.4 0.2 0.4 0.4z"/>
							<path id="&lt;Path&gt;" class="s3" d="m23.9 64.7c0 0.3-0.3 0.6-0.6 0.6-0.3 0-0.6-0.3-0.6-0.6 0-0.3 0.3-0.6 0.6-0.6 0.3 0 0.6 0.3 0.6 0.6z"/>
							<path id="&lt;Path&gt;" class="s3" d="m48.4 39.3c0 0.4-0.3 0.6-0.6 0.6-0.3 0-0.6-0.2-0.6-0.6 0-0.3 0.3-0.5 0.6-0.5 0.3 0 0.6 0.2 0.6 0.5z"/>
							<path id="&lt;Path&gt;" class="s3" d="m41 55.9c0 0.3-0.2 0.6-0.5 0.6-0.4 0-0.6-0.3-0.6-0.6 0-0.3 0.2-0.6 0.6-0.6 0.3 0 0.5 0.3 0.5 0.6z"/>
							<path id="&lt;Path&gt;" class="s3" d="m163.6 73.2c0.2 0.1 0.3 0.3 0.2 0.5 0 0.2-0.3 0.3-0.5 0.2-0.2-0.1-0.3-0.3-0.2-0.5 0.1-0.2 0.3-0.3 0.5-0.2z"/>
						</g>
						<path id="&lt;Path&gt;" class="s1" d="m274.4 65.8c0 0.4-0.3 0.6-0.6 0.6-0.3 0-0.6-0.2-0.6-0.6 0-0.3 0.3-0.5 0.6-0.5 0.3 0 0.6 0.2 0.6 0.5z"/>
						<path id="&lt;Path&gt;" class="s1" d="m457.6 34.9c0 0.3-0.2 0.6-0.5 0.6-0.4 0-0.6-0.3-0.6-0.6 0-0.3 0.2-0.6 0.6-0.6 0.3 0 0.5 0.3 0.5 0.6z"/>
						<path id="&lt;Path&gt;" class="s4" d="m394.7 8.5c0 2.9-2.4 5.2-5.3 5.2-2.9 0-5.3-2.3-5.3-5.2 0-3 2.4-5.3 5.3-5.3 2.9 0 5.3 2.3 5.3 5.3z"/>
						<path id="&lt;Path&gt;" class="s5" d="m607.8 57.6c0 2.9-2.4 5.3-5.3 5.3-2.9 0-5.3-2.4-5.3-5.3 0-2.9 2.4-5.3 5.3-5.3 2.9 0 5.3 2.4 5.3 5.3z"/>
					</g>
					<g id="&lt;Group&gt;">
						<path id="&lt;Path&gt;" class="s6" d="m70.8 105.5c0 0 168.1-5.3 222.3-11.7 1.7-0.2-40.8 4-39.5 1.4 1.3-2.6-55.9 3.4-55.6 3.2 5.7-2.6 70.4-8.8 89.3-12.3 98.9-18.6 323.4-35.3 323.4-35.3l-106.5 4.5c0 0 54.2-1.6 5.9 2.6-16.7 1.5-35.7-8-44-7.2-8.2 0.8-7.4 10-11.6 12.3-4.2 2.4-103.3 11.6-103.5 12.5-0.3 0.8-1.6 2.5-7.4 2.6-5.8 0.2-25.4-6-34.9-5-9.5 1-6.6 14.3-38.1 14-3-5.9-16.6 2.3-17.1 3.5-0.5 1.2-26.2-6.3-26.2-6.3 0 0-36.9-36.6-62-6.7-24.2 28.8-94.5 27.9-94.5 27.9z"/>
						<path id="&lt;Path&gt;" class="s7" d="m-167.3 126.5c-49.9-30-56.5 49.9 122.4 67.4 335.9 32.7 1213.3 61.8 1163.8-85.7-0.9-2.8-709.6 54.1-706.5 49.3 3.1-4.8-121.9 12.3-121.3 12.1 14.7-6.1 159.3-25.5 208-36.4 255.5-57.3 518.3-83.2 518.3-83.2l59.7 2.3c0 0-174.8 8-212.6 15.8-25.8 5.3-36.3-34.3-70.5-27.8-39.5 7.5-74.2 46.1-86.9 48.2-5.6 1-10.6-15.9-31.7-11.5-11.6 2.4-25.6 19.2-36.2 24.4-10.7 5.1-20.5 0.5-22.4 1.4-5.3 2.5-4.8 8.1-19.9 9.8-15.2 1.7-5.9-4.1-30.5 0.1-24.6 4.2-28.4 19-110.5 26.6-8.8-9.5-43.2 8.2-44.4 10.4-1.1 2.2-31.5-5.6-31.5-5.6 0 0-115.8-77.7-177.1-19.7-6.3 5.9-76 28.7-83.1 31.7-68.2 6.8-170.8-5.8-287.1-29.6z"/>
					</g>
					<g id="&lt;Group&gt;">
						<g id="&lt;Group&gt;">
							<g id="&lt;Group&gt;">
								<path id="&lt;Path&gt;" class="s8" d="m879.1 249.5l18.9-1.3 11.1-0.8h0.2 0.9l25.7-1.8-8.1-19.7-6.8-16.6-5.1-12.5 6.5 12.1 0.2 0.4 8.7-2.6-12.5-26.2-8.4-17.4 3-2.5q0 0 0 0c-0.6-0.7-8.8-11.1-12-23.9q-0.2-0.7-0.4-1.3l-13.2 31.3-1.1 2.5 1 1.8q0.8-2.4 1.6-4.4c2.6-6.7 5.2-10.3 5.4-10.5l-3.1 10.2v0.2l-2.2 7.4 0.1 0.2-2.6 12.3-3.6 17.1-0.1 0.5 1.8 1.6-0.6 4.6-0.7 4.7-0.8 6.1-3.4 25.9z"/>
							</g>
							<path id="&lt;Path&gt;" class="s9" d="m817.7 234.1l5.3 2.5 10.5-30.8z"/>
							<path id="&lt;Path&gt;" class="s10" d="m878.1 251.2l59.1-2.3-16.2-39.6-12.2 3-5.4-18.4 0.6 16.5-20.7-6.9-0.1 0.5 1.8 1.6-0.6 4.6-0.7 4.7z"/>
							<path id="&lt;Path&gt;" class="s11" d="m918.8 180.5l-8.4-17.4 3-2.5-5.9 3.6-15.9 2.1v0.2l-2.2 7.4 0.1 0.2-2.6 12.3z"/>
						</g>
						<path id="&lt;Path&gt;" class="s12" d="m821.7 266.7l34.3-2.3 3.1 0.4v-26.1l1.5 7.5 3.4 17.7 0.2 0.9 56.4 2.3q-1.5-1.5-3.3-3.5c-2.8-3.3-5.9-7.6-9.1-12.4q-0.6-0.8-1.1-1.6c-5.9-8.9-12.2-19.5-17.7-29.1-2.1-3.8-4.1-7.4-6-10.7-5.3-9.7-8.9-16.7-8.9-16.7l4.8-1.6-0.8-2.2-10.9-35.9-4.2-13.9 4.9 1.3-3.4-18.3-8.5-45.7v-0.2l-0.2-1-0.2-0.9-0.5 2.6-14.8 68.7-0.1 0.4q0 0 0.1 0l2.9-0.8-6.2 20.7-8.7 29.3 3.1 3.4 9.9-26.4-6 27.2-9.2 42-3.8 17.2z"/>
						<path id="&lt;Path&gt;" class="s13" d="m744.2 238.1l17.3-2.1 16.6-2-2.3-14.6-0.8-4.6v-0.6l3 6 0.7 1.5-0.2-0.9-4.1-17.4-2.5-11-0.7-2.9 1.9-0.8-12-55.3-0.1 0.7-8.6 48.4v0.4l2.5-0.8 0.6-1.7-1.7 5.5-5 16.2-4 12.9 3.2-0.8 3.1-9.1-3.3 15.6z"/>
						<path id="&lt;Path&gt;" class="s14" d="m826.5 241.8l73.3 4.1c-2.1-3.8-25.3-52.8-25.3-52.8l4.8-1.6-22.1 4.7-4.3-13.6-1.6 18.3-15.6-1.1z"/>
						<path id="&lt;Path&gt;" class="s15" d="m837.4 166.3l30.2-12.9-4.2-13.9-9.3-2.3-13.4 8.8-0.1 0.4q0 0 0.1 0l2.9-0.8z"/>
						<path id="&lt;Path&gt;" class="s16" d="m777.4 242.9l0.8 1.4-0.2-0.9z"/>
						<path id="&lt;Path&gt;" class="s17" d="m744.2 238.1l17.3-2.1 16.6-2-2.3-14.6-0.8-4.6-9.6-17.6-1.1 21.2-16.5 2.3z"/>
					</g>
					<g id="&lt;Group&gt;">
						<g id="&lt;Group&gt;">
							<g id="&lt;Group&gt;">
								<path id="&lt;Path&gt;" class="s18" d="m236.8 228.2l18.2-1.3 10.8-0.7h0.2 0.8l24.9-1.7-7.8-19.1-6.6-16.1-4.9-12.1 6.3 11.8 0.1 0.3 8.5-2.5-12.2-25.3-8.1-16.9 2.9-2.3q0 0 0-0.1c-0.6-0.7-8.4-10.7-11.6-23.1q-0.2-0.6-0.3-1.2l-12.9 30.2-1 2.4 1 1.8q0.7-2.3 1.5-4.3c2.6-6.4 5.1-9.9 5.2-10.1l-2.9 9.9-0.1 0.1-2.1 7.2 0.1 0.2-2.5 11.9-3.5 16.5-0.1 0.5 1.7 1.5-0.6 4.5-0.6 4.6-0.8 5.9-3.3 25z"/>
							</g>
							<path id="&lt;Path&gt;" class="s19" d="m237.7 165.7l2.2 6.7 0.4-1.1 7.2-20.5-5.4 8.2z"/>
							<path id="&lt;Path&gt;" class="s20" d="m240.4 200.7l43.5 4.7-6.6-16.1-11.8 3-5.3-17.9 0.6 16-20-6.7-0.1 0.5 1.7 1.5-0.6 4.5-0.6 4.6z"/>
							<path id="&lt;Path&gt;" class="s21" d="m284.3 202.7l-17.3-58.1 2.9-2.3-5.6 3.4-15.4 2.1-0.1 0.1-2.1 7.2 0.1 0.2-2.5 11.9z"/>
						</g>
						<path id="&lt;Path&gt;" class="s22" d="m181.3 244.9l33.2-2.3 2.9 0.4v-25.3l1.4 7.3 3.4 17.2 0.2 0.8 54.5 2.2q-1.5-1.4-3.2-3.4c-2.7-3.1-5.7-7.3-8.8-12q-0.6-0.7-1.1-1.5c-5.7-8.6-11.8-18.9-17-28.1-2.1-3.7-4.1-7.2-5.8-10.4-5.2-9.4-8.7-16.1-8.7-16.1l4.6-1.6-0.7-2.2-10.5-34.6-4.1-13.4v-0.1l4.7 1.2-3.2-17.6-8.3-44.2v-0.2l-0.2-1-0.2-0.8-0.5 2.5-14.2 66.4-0.1 0.4q0 0 0 0l2.9-0.8-6 20.1-8.4 28.3 2.9 3.3 9.6-25.5-5.8 26.3-8.9 40.5-3.7 16.7z"/>
						<path id="&lt;Path&gt;" class="s23" d="m105.8 239.1l16.7-2 16.1-2-2.3-14.1-0.7-4.5-0.1-0.5 3 5.8 0.7 1.4-0.2-0.9-4-16.8-2.5-10.7-0.6-2.8 1.8-0.8-11.5-53.4-0.1 0.6-8.4 46.8v0.5l2.4-0.8 0.6-1.6-1.6 5.2-4.9 15.8-3.8 12.5 3-0.8 3.1-8.8-3.2 15.1z"/>
						<path id="&lt;Path&gt;" class="s24" d="m185.9 220.7l60.9-20.5c-2.1-3.7-4.1-7.2-5.8-10.4-5.2-9.4-8.7-16.1-8.7-16.1l4.6-1.6-21.3 4.6-4.2-13.2-1.5 17.7-15.1-1z"/>
						<path id="&lt;Path&gt;" class="s25" d="m196.5 147.8l29.2-12.5-4.1-13.4-9-2.3-12.9 8.5-0.1 0.4q0 0 0 0l2.9-0.8z"/>
						<path id="&lt;Path&gt;" class="s26" d="m138.5 221.8l0.7 1.4-0.2-0.9z"/>
						<path id="&lt;Path&gt;" class="s27" d="m105.8 239.1l16.7-2 16.1-2-2.3-14.1-0.7-4.5-9.3-17-1.1 20.5-15.9 2.3z"/>
					</g>
					<g id="&lt;Group&gt;">
						<g id="&lt;Group&gt;">
							<g id="&lt;Group&gt;">
								<path id="&lt;Path&gt;" class="s28" d="m259.5 231.2l18.2-1.8 10.7-1 0.2-0.1h0.9l24.9-2.5-7.8-27.5-6.6-23.1-4.9-17.4 6.2 16.9 0.2 0.5 8.5-3.6-12.2-36.5-8.1-24.4 2.9-3.4q0 0 0 0c-0.6-1-8.4-15.5-11.6-33.3q-0.2-0.9-0.3-1.8l-12.9 43.6-1 3.5 1 2.4q0.7-3.2 1.5-6c2.6-9.3 5.1-14.4 5.2-14.6l-2.9 14.2-0.1 0.2-2.1 10.3 0.1 0.4-2.5 17.1-3.5 23.8-0.1 0.7 1.7 2.2-0.6 6.4-0.6 6.6-0.8 8.5-3.3 36.1z"/>
							</g>
							<path id="&lt;Path&gt;" class="s29" d="m320.1 210.8l-0.1 9.9-0.7-1.4-17-41.7z"/>
							<path id="&lt;Path&gt;" class="s30" d="m255.2 230.7l60.5 2.4-15.7-57.9-25.4 2.2 0.2-31-6.9 24.7-4.4-4-0.1 0.7 1.7 2.2-0.6 6.4-0.6 6.6z"/>
							<path id="&lt;Path&gt;" class="s31" d="m297.8 135.1l-8.1-24.4 2.9-3.4-5.6 5-15.4 3-0.1 0.2-2.1 10.3 0.1 0.4-2.5 17.1z"/>
						</g>
						<path id="&lt;Path&gt;" class="s32" d="m204 255.2l33.2-3.3 2.9 0.7v-36.5l1.4 10.5 3.4 24.7 0.2 1.3 54.5 3.2q-1.5-2.1-3.2-4.9c-2.7-4.6-5.7-10.6-8.8-17.3q-0.6-1.1-1.1-2.2c-5.7-12.5-11.8-27.2-17-40.6-2.1-5.3-14.5-38.2-14.5-38.2l4.6-2.2-0.7-3.2-10.5-49.9-4.1-19.4 4.7 1.7-3.3-25.4-8.2-63.6v-0.4l-0.2-1.4-0.2-1.2-0.5 3.6-14.2 95.8-0.1 0.6q0 0 0-0.1l2.9-1.1-6 28.9-8.4 40.7 2.9 4.8 9.5-36.7-5.7 37.9-8.9 58.4-3.7 24v0.1z"/>
						<path id="&lt;Path&gt;" class="s33" d="m128.5 246.9l16.7-2.9 16-2.8-2.2-20.4-0.7-6.4-0.1-0.8 3 8.3 0.6 2-0.1-1.1-4-24.3-2.5-15.4-0.6-4 1.8-1.1-11.5-77.1-0.2 1-8.3 67.4v0.6l2.4-1.1 0.6-2.4-1.6 7.7-4.9 22.6-3.8 18 3-1.1 3-12.7-3.1 21.8z"/>
						<path id="&lt;Path&gt;" class="s34" d="m208.6 220.4l75.1 13.5c-2.1-5.3-28.7-81.3-28.7-81.3l4.6-2.2-21.3 6.5-4.2-18.9-1.5 25.4-15.1-1.4z"/>
						<path id="&lt;Path&gt;" class="s35" d="m219.2 115.3l29.2-18-4.1-19.4-9-3.2-12.9 12.3-0.1 0.6q0 0 0-0.1l2.9-1.1z"/>
						<path id="&lt;Path&gt;" class="s36" d="m161.2 221.9l0.6 2-0.1-1.1z"/>
						<path id="&lt;Path&gt;" class="s37" d="m128.5 246.9l16.7-2.9 16-2.8-2.2-20.4-0.7-6.4-9.3-24.6-1.1 29.6-15.9 3.3z"/>
					</g>
					<g id="&lt;Group&gt;">
						<path id="&lt;Path&gt;" class="s38" d="m81.2 165.3c0.8 0.3 20.4 6.1 50.2 9-33.1-5.4-49.5-8.8-50.2-9z"/>
						<path id="&lt;Path&gt;" class="s39" d="m400.4 274.6c20.9 3.4 65.3 4.2 86.7 3.4-40.3 1.6-137.8 4.3-176.8-0.5z"/>
						<g id="&lt;Group&gt;">
							<g id="&lt;Group&gt;">
								<g id="&lt;Group&gt;">
									<g id="&lt;Group&gt;">
										<path id="&lt;Path&gt;" class="s40" d="m-91.5 94l8 56.9c16.3 8.8 43.3 23.3 59.6 32.1 12.8 2 187.7 29.5 201.9 31.8-10.9-13.2-44.3-53.5-55.7-67.3-0.4-0.1-213.3-53.4-213.8-53.5z"/>
										<path id="&lt;Path&gt;" class="s41" d="m130 204.8l-15.5-28.1-4.3-0.9-8.6-19.1-123.8-25.3-49.9 15.6 8.1 24.3z"/>
										<g id="&lt;Group&gt;">
											<path id="&lt;Path&gt;" class="s42" d="m-108.5 80.6l12.7 148.8c107.8-2.2 222.4-4.5 330.3-6.6-44.6-14.4-93.8-30.1-138.3-44.5l18.3-1.6-4.5-1.2-57.5-16.5-109.9-7.3v-5.5l95.5 10-39.2-8.6-7.1-8.7 109.8 17.8-17.6-12.3c-10.9-3.2-108.1-30.5-115.9-33 0.9 0.2 155 37 155.8 37.1-21.5-16.7-152.1-57.1-179.5-66.8 0 0-52.9-1.1-52.9-1.1z"/>
										</g>
									</g>
									<g id="&lt;Group&gt;">
										<g id="&lt;Group&gt;">
											<path id="&lt;Path&gt;" class="s43" d="m323.9 248c80.1 11.2 179.4 12.5 267.4 17.7 97.5 4.4 299.2 16.4 384.1 16.6 1.2-14.5 44.2-22.9 46.1-24.8 0-0.2-168.5-20.9-168.5-21 0 0-5.4-2.8-5.4-2.8-2.7 0-11.6-0.2-14.1-0.3-53.2-1.2-125.5-2.9-179.3-4.1-0.2 1.2-0.8 3.6-1.1 4.7l-105.7-0.9-4.7 9.5c-63.1 1.6-156.5 3.9-218.8 5.4z"/>
											<path id="&lt;Compound Path&gt;" fill-rule="evenodd" class="s41" d="m461.3 246.9c0-0.1 0-0.7 0-0.8l88.7-1-7.3-2.5 25.6 5.2 0.2-9.1 104.3-3.6c0.1 1 0.3 7.8 0.3 8.9l3.1 1c0-3.2 0-8.6 0-11.8 18.4-0.6 68.5-2.3 86-2.9 3.6 0.9 11.2 2.8 14.8 3.7 3.9 0.9 17.1 4.3 20.6 5.1 0 0 53 13.2 53 13.2 2 0.1 170.3 4.9 172.3 5.3l-49.7 28.2c-81.6 7.8-143.6-10.1-225.3-5.2-0.4-4-1.2-10.3-1.6-14.2-40.1-1.6-234.8-9.2-278.8-10.9l-8.7-8.8zm153.4 2.1l24.5 8.2-0.4-7.5-13.3-11.3-11.4 10.4c0 0 0.6 0.2 0.6 0.2z"/>
											<g id="&lt;Group&gt;">
												<path id="&lt;Path&gt;" class="s44" d="m625.5 238.4l13.3 11.3c97.9 3.1 285.4 7.3 382.7 7.8-0.3 0.1-20.1-31.8-20.2-31.8l-347.1 3.6c13.9 5.9 98.1 3.7 114.3 4.1-33.2 1.2-110.9 3.9-143 5z"/>
												<path id="&lt;Path&gt;" class="s42" d="m547.4 233.1l21.1 5.6 104.3-3.6c-10.4-5.6-111.8-1.5-125.4-2z"/>
												<path id="&lt;Path&gt;" class="s42" d="m639.1 257.1l-24.4-8.1-155.9-2.3 8.7 8.8 278.8 10.9-5.7-2.9z"/>
												<path id="&lt;Path&gt;" class="s44" d="m550 245.1l-7.3-2.5-141.4 3.7z"/>
											</g>
											<path id="&lt;Path&gt;" class="s41" d="m571.2 259.6l12.8 15.7 21.2 1.9-20.6-17.1z"/>
											<path id="&lt;Path&gt;" class="s41" d="m467.5 255.5l0.2 6.8 109.4 9.8-7.9-12.6z"/>
										</g>
										<path id="&lt;Path&gt;" class="s42" d="m-48.7 265.4c318.4 5.9 672 13.5 991.5 18.6-5.7-2.2-18.8-7.1-24.7-9.3-2-0.1-5.9-0.2-7.8-0.3-0.6 0-163.5-5.3-164-5.3l0.3 3.7c-76.3-3.9-204.1-10.3-279-14.1 0 0-13.2-0.7-13.2-0.7-4.1-2.3-15.9-9.5-20.1-11.9l-0.9-0.6c-0.2-0.1-0.9-0.5-1-0.6 0 0-9-5.3-9-5.3l-188.9-24.6-2.6-7c-43.8-7.4-104.8-17.7-148.1-25-12.8-0.2-93-1.1-103.9-1.2-7.2 21.2-21.4 62.6-28.6 83.6z"/>
										<path id="&lt;Path&gt;" class="s45" d="m-71.2 275.6c162.7 1.1 339.9 2.2 502.5 3.2 3.7-3.8 17-17.6 20.9-21.5-8-5-20.8-12.8-28.8-17.7-10.5 1.6-47.6 7.7-57.3 9.3-38.3-4.3-124.1-13.9-161.8-18.1 9.5-5 20.8-10.9 30.2-15.8l-2.6-7c-43.1 3.5-93.4 7.6-136.5 11.1-4.1-1.3-115.8-37.5-115.5-37.3-12.9 23.8-38.1 70-51.1 93.8z"/>
										<path id="&lt;Path&gt;" class="s41" d="m199 277.4c66.3 0.4 163.6 1 229.8 1.4-17.2-8.4-45.3-21.6-62.7-29.9-38.2-4.3-124.1-13.9-161.8-18.1-0.5 5.1-4.8 42.5-5.3 46.6z"/>
										<path id="&lt;Path&gt;" class="s41" d="m-71.2 275.6c17.2 0.2 140.1 0.9 160.3 1.1 2-18.7 4.2-38.9 6.3-57.6-4.7-1.5-115-37.2-115.5-37.3-12.9 23.8-38.1 70-51.1 93.8z"/>
										<path id="&lt;Path&gt;" class="s42" d="m354.2 251.5l-73-7.8-40 3c8.6 0.2 108.1 8.8 113 4.8z"/>
										<path id="&lt;Path&gt;" class="s42" d="m377.9 261.9l-72.3-8.5-5-0.5 53.1 10.3z"/>
										<path id="&lt;Path&gt;" class="s44" d="m182.1 214.5l-87.6 12.9c-4.1-0.3-83.7-22.7-85.9-18.3l114.5 35.4 90.1-28.2z"/>
										<path id="&lt;Path&gt;" class="s44" d="m165.7 236.8l-23.8 10.4 51.8-9.2z"/>
										<path id="&lt;Path&gt;" class="s46" d="m123.1 244.5l-1 17.2-97.1-43.3-14.8 0.7-1.6-10z"/>
										<path id="&lt;Path&gt;" class="s47" d="m134.2 270.9l1 8.4-183.2-1.5 26.6-57.2z"/>
										<path id="&lt;Path&gt;" class="s41" d="m182.1 214.5l31.1 1.8c-0.3 2.5-0.8 8.2-1 10.6 6.6-3.5 15.8-8.4 22.3-11.9l-2.6-7c-32.7 2.7-74.4 6.1-107.1 8.6-0.1 0.2-2.9 6.6-3.1 6.9z"/>
										<path id="&lt;Path&gt;" class="s41" d="m123.1 244.5l-1 17.2-40.6-17.6 0.5-12.2 15.1 5-1.2 15.6 1.5 0.7 1.7-16 9.3 2.3 0.1 18.6 11.6 5z"/>
										<path id="&lt;Path&gt;" class="s44" d="m141.5 270.5c-1.3-0.3-114.3-51.9-114.3-51.9l-48.6 2 155.6 50.3z"/>
										<path id="&lt;Path&gt;" class="s41" d="m-46.4 281.6c37.9-0.9 126-2.8 163.2-3.6-15.3-1.9-40.1-4.9-55.6-6.7l-1.6 4.4-44.1-0.1c1.4-5.9 7.1-30.3 8.6-36.7-0.5 1-12.2 27.4-12.7 28.4l-1.9-0.7c0-0.1 13.3-30.6 13.3-30.7-5-1.5-29.2-9-33.7-10.4-7.3 11.5-25.9 39.5-35.5 56.1z"/>
										<path id="&lt;Path&gt;" class="s41" d="m193.7 238l-9 39.7-41.9 1.6-0.9-32.1z"/>
										<path id="&lt;Path&gt;" class="s44" d="m184.1 243.8c-1.7 0.4-37.8 2.3-38 4.5l24.7 3.7z"/>
										<path id="&lt;Path&gt;" class="s48" d="m527.1 261.5l-59.8 15.7-1.6-0.4 58.7-15.4z"/>
										<path id="&lt;Path&gt;" class="s49" d="m500.9 268.4l11 7.8c2.8 2.3 7.7 4.8 11.1 6-1.1-1.5-4.3-4.1-6.3-5.9q0 0 0 0c-4.7-4.1-9.8-8.4-11-9.4-0.2 0.1-4.6 1.4-4.8 1.5z"/>
										<path id="&lt;Path&gt;" class="s50" d="m852.8 256l-72.4-17.6c8.8 2.1 64.5 19.6 72.4 17.6z"/>
										<path id="&lt;Path&gt;" class="s51" d="m674.3 243c7.4-0.5 144.2-3.3 183.9-7.1l-21-7.2c-1.7 0.2-5.8 0.5-7.5 0.7-27.1 2.3-126.6 11.1-155.4 13.6z"/>
										<path id="&lt;Path&gt;" class="s41" d="m832.2 229.2l-2.5 0.2 7.5 8.1q2.2-0.2 4.2-0.3z"/>
										<path id="&lt;Path&gt;" class="s41" d="m790.3 232.8l3 6.5c11.2-0.4 21.7-0.8 31-1.2l-9.7-7.4z"/>
										<path id="&lt;Path&gt;" class="s52" d="m170.9 252l-1.9 29.3 5.9-4.2 8.9-33.1z"/>
										<path id="&lt;Path&gt;" class="s53" d="m353.7 263.2c0.4 5.3 1 13.9 1.3 19.2l13.3-0.7c2.5-5 7.1-14.7 9.6-19.8z"/>
										<path id="&lt;Path&gt;" class="s41" d="m-50.4 280.9c2.5 0 17.7 0.3 20.6 0.3 0 0 277.2 4.4 277.2 4.4-1.1-6.6-6.1-38.2-6.2-38.9l39-3.3 34.5 3.3 3.7-2.7c-26.8-3.2-86.7-10.3-113-13.4l6.8-3.7c0.2-2.3 0.7-8.1 1-10.6-15.6 4.9-73.5 23-90.1 28.2-32.8-10.2-81.2-25.1-114.5-35.4l1.6 10-31.6 1.5c-7.1 14.9-21.9 45.5-29 60.3z"/>
										<path id="&lt;Path&gt;" class="s41" d="m409.7 270.5c6 2 15.6 6.9 21.7 8.2 133.2 2 388.5 5.3 521.3 7.3-10.1-2.9 14.1 5.4 4 2.5 0 0 14.9-11.9 14.9-11.9l48.6-18.7c-1.3-0.1-169.6-2.4-170.8-2.5-0.2 0.4-6.4 16.9-6.5 17.3l-2.1-0.3c0-0.2-1-17.3-1-17.5-0.3 0-200.7-5.2-201-5.2l0.3 7.5c0.9 0.1 46.3 6.8 47.1 6.9l-98.6-3.5 3.7 3.8c-23.2-1.1-113.3-5.3-136.9-6.4l-5.1-3.3c-6.7 2.6-32.5 13-39.6 15.8z"/>
									</g>
									<path id="&lt;Path&gt;" class="s41" d="m49.4 162.1l-39.3-3.8v1.2l54.4 8.5z"/>
									<path id="&lt;Path&gt;" class="s41" d="m36.5 185.2l-10.4-4.7-17.3-2.5 5.8 3.5z"/>
									<path id="&lt;Path&gt;" class="s41" d="m33.2 164.3l-64.7-9.8 76.3 13.4z"/>
									<path id="&lt;Path&gt;" class="s41" d="m120.7 203.8l-116.6-17.7 6.8 2.4 120.4 21.8-8.1-9.4z"/>
									<path id="&lt;Path&gt;" class="s42" d="m123.2 200.9c-4.4-0.3-118.3-17-119.1-14.8l116.6 17.7z"/>
									<path id="&lt;Path&gt;" class="s41" d="m113.9 176.9l-15.6 1.2-43.1-17.1c1.5-2.1 55.9 15.6 58.7 15.9z"/>
									<path id="&lt;Path&gt;" class="s41" d="m238.8 232l79.9-0.5-76.4-4.1z"/>
									<path id="&lt;Path&gt;" class="s41" d="m342.9 238.6l-42.8-6.1-1.1-0.1 53.2 9.7z"/>
								</g>
							</g>
							<path id="&lt;Path&gt;" class="s54" d="m926.5 257.8l-79.4-17.2c4.8-2.2 118.9 18.9 122.4 17.5-13.6-3.1-123.2-22.4-132.3-29.4l188.6 21.4 3.8-4.4-62.5-15-54.5-0.7v-1.9l100.9 1.4 7.6 26.5z"/>
						</g>
						<g id="&lt;Group&gt;">
							<path id="&lt;Path&gt;" class="s55" d="m-69.8 273.4v42.6h1022.8v-42.6z"/>
							<path id="&lt;Path&gt;" class="s56" d="m-69.8 273.4c-1 13.9 3.7 87.1 4.5 102.5l7.1-1.6 4-100.9z"/>
						</g>
						<path id="&lt;Path&gt;" class="s57" d="m548 273.7l94.6 7.5 7 9.2 306.9 9.7-2.2-26.7z"/>
						<path id="&lt;Path&gt;" class="s58" d="m592.6 273.1l-148 5.4-38.1 14.6-167.8 11.3-1.6 4.9-96.4 10.5-29.2 55.1-205.8-5.6 24.5-95.9z"/>
						<path id="&lt;Path&gt;" class="s59" d="m-108.5 279.2l915.8-0.6-915.8 4.2z"/>
						<path id="&lt;Path&gt;" class="s59" d="m1014.9 293.1c-5.5 1.6-657.8-5.4-657.8-5.4l653.6 14.1z"/>
					</g>
					<g id="&lt;Group&gt;">
						<path id="&lt;Path&gt;" class="s59" d="m319.3 219.3l0.7 1.4 0.1-9.9-17.8-33.2z"/>
						<path id="&lt;Path&gt;" class="s59" d="m957.1 288.2c-0.2 0.2-0.4 0.3-0.4 0.3 3.8 1.1 2.7 0.6 0.4-0.3z"/>
						<path id="&lt;Path&gt;" class="s59" d="m1029.6 245.7l-12.3-3 1.9 6.7 6.6 0.7z"/>
					</g>
					<path id="&lt;Path&gt;" class="s60" d="m-174.1 444.4h1138.1l-0.8-146.4h-1138.2z"/>
					<path id="&lt;Path&gt;" class="s61" d="m999.8 338.5c-107.8-9.9-670.9-3.7-670.9-3.7 0 0 223.3 24.9 310.4 52.1 69.2 21.7 191.3 44.6 191.3 44.6l-306.1 70.2c0 0-134.2-105.2-238-136.2l-81.7-27.2 169.5-12.1 615.6 1.5z"/>
					<path id="&lt;Path&gt;" class="s61" d="m367 325.9c-65.5 5.2-554.1 30.8-554.1 30.8 0 0 204.6-7.2 292.2 12.8 81.1 18.4 190.2 74.9 190.2 74.9l-392.1 20.7c0 0-103-114.2-192-120.6-89-6.4-32.7-23.6-32.7-23.6l164.1-6.4 510.6 3.9z"/>
					<path id="&lt;Path&gt;" class="s62" d="m952.2 319.3l-270.4 3.4 262-1.5z"/>
					<path id="&lt;Path&gt;" class="s62" d="m726.5 324.9l-49.1 1.8 2.3 0.2 52.9-0.7z"/>
					<g id="&lt;Group&gt;">
						<path id="&lt;Path&gt;" class="s63" d="m959.5 292.7l-132.2 9 137.4 0.6z"/>
						<g id="&lt;Group&gt;">
							<path id="&lt;Path&gt;" class="s63" d="m169.7 301l-23.9-0.7c0 0 11.1-0.7 15.8-0.7 4.6 0 8.1 1.4 8.1 1.4z"/>
							<path id="&lt;Path&gt;" class="s63" d="m55.3 304.9c-36.7 0-79.5-3.1-79.5-3.1l91.7 0.8-26.1 0.8z"/>
							<path id="&lt;Path&gt;" class="s63" d="m159.7 303.3c-5.1 0.2-10.1-0.2-10.1-0.2z"/>
							<path id="&lt;Path&gt;" class="s63" d="m306.9 305.6c-12.2 0.8-97.8-0.7-97.8-0.7l91.7-0.8z"/>
							<path id="&lt;Path&gt;" class="s63" d="m125.9 307.9c15.2 0 30.5-0.9 30.5-0.9l-38.5 0.6z"/>
							<path id="&lt;Path&gt;" class="s63" d="m32 307.7c-3.4 0.2-5.1 0-5.1 0z"/>
							<path id="&lt;Path&gt;" class="s63" d="m86.9 301.8c-6.1 1.5-36.7 0-36.7 0z"/>
							<path id="&lt;Path&gt;" class="s63" d="m86.9 303.3c-12.3 0.8-73.4-0.7-73.4-0.7h122.3z"/>
							<path id="&lt;Path&gt;" class="s63" d="m371.8 304.7l-34-0.7c0 0 15.8-0.7 22.4-0.7 6.6 0 11.6 1.4 11.6 1.4z"/>
							<path id="&lt;Path&gt;" class="s63" d="m-45.4 305.2c-14.2 0-30.9-0.8-30.9-0.8l35.7 0.2-10.2 0.2z"/>
							<path id="&lt;Path&gt;" class="s63" d="m357.5 307.1c-7.1 0.2-14.3-0.2-14.3-0.2z"/>
							<path id="&lt;Path&gt;" class="s63" d="m235 306.9c-4.7 0.2-38-0.2-38-0.2l35.7-0.3z"/>
							<path id="&lt;Path&gt;" class="s63" d="m818.2 302.5c21.4 0 43.1-1 43.1-1l-54.6 0.6z"/>
							<path id="&lt;Path&gt;" class="s63" d="m131.3 310.9c-4.7 0.2-7.1 0-7.1 0z"/>
							<path id="&lt;Path&gt;" class="s63" d="m834.6 304.1c-8.6 1.6-52 0-52 0z"/>
							<path id="&lt;Path&gt;" class="s63" d="m834.6 305.7c-17.3 0.8-104-0.8-104-0.8h173.4z"/>
							<g id="&lt;Group&gt;">
								<path id="&lt;Path&gt;" class="s63" d="m140.8 309.5l6.7 0.7c0 0-3.1 0.7-4.4 0.7-1.3 0-2.3-1.4-2.3-1.4z"/>
								<path id="&lt;Path&gt;" class="s63" d="m325.6 307.5c2.8 0 6 0.9 6 0.9l-7-0.2 2-0.3z"/>
								<path id="&lt;Path&gt;" class="s63" d="m274.2 312.6c1.4-0.2 2.8 0.2 2.8 0.2z"/>
								<path id="&lt;Path&gt;" class="s63" d="m315.3 309c0.9-0.2 7.4 0.2 7.4 0.2l-7 0.2z"/>
								<path id="&lt;Path&gt;" class="s63" d="m283.6 308c-4.2 0-8.5 0.9-8.5 0.9l10.7-0.5z"/>
								<path id="&lt;Path&gt;" class="s63" d="m309.7 308.3c0.9-0.2 1.4 0 1.4 0z"/>
								<path id="&lt;Path&gt;" class="s63" d="m332 310.1c0.5-0.4 2.8 0 2.8 0z"/>
								<path id="&lt;Path&gt;" class="s63" d="m332.1 309.7c0.9-0.2 5.5 0.2 5.5 0.2h-9.3z"/>
							</g>
							<path id="&lt;Path&gt;" class="s63" d="m423.7 301.3l-49.1-3.2c0 0 59.1 0.1 65.7 0.1 6.6 0-16.6 3.1-16.6 3.1z"/>
							<path id="&lt;Path&gt;" class="s63" d="m54.2 310c-14.2 0-30.9-0.8-30.9-0.8l35.7 0.2-10.2 0.2z"/>
							<path id="&lt;Path&gt;" class="s63" d="m409.5 303.6c-7.2 0.2-14.3-0.2-14.3-0.2z"/>
							<path id="&lt;Path&gt;" class="s63" d="m51.9 310.2c-4.7 0.2-38-0.2-38-0.2l35.6-0.2z"/>
							<path id="&lt;Path&gt;" class="s63" d="m361.6 308.2c21.5 0 43.2-0.9 43.2-0.9l-54.6 0.6z"/>
							<path id="&lt;Path&gt;" class="s63" d="m228.4 308c-4.8 0.2-7.2 0-7.2 0z"/>
							<path id="&lt;Path&gt;" class="s63" d="m69.1 305.8c-2.4 0.4-14.3 0-14.3 0z"/>
							<path id="&lt;Path&gt;" class="s63" d="m-9 309.9c-4.8 0.2-28.6-0.3-28.6-0.3h47.6z"/>
							<g id="&lt;Group&gt;">
								<path id="&lt;Path&gt;" class="s63" d="m708.4 298.4l-34-0.7c0 0 15.8-0.7 22.4-0.7 6.6 0 11.6 1.4 11.6 1.4z"/>
								<path id="&lt;Path&gt;" class="s63" d="m432.1 306c-14.3 0-30.9-0.9-30.9-0.9l35.7 0.2-10.2 0.3z"/>
								<path id="&lt;Path&gt;" class="s63" d="m694.1 300.7c-7.1 0.2-14.3-0.2-14.3-0.2z"/>
								<path id="&lt;Path&gt;" class="s63" d="m484.5 304.5c-4.8 0.2-38.1-0.2-38.1-0.2l35.7-0.2z"/>
								<path id="&lt;Path&gt;" class="s63" d="m646.3 305.3c21.4 0 43.1-0.9 43.1-0.9l-54.6 0.6z"/>
								<path id="&lt;Path&gt;" class="s63" d="m513 305.1c-4.8 0.2-7.1 0-7.1 0z"/>
								<path id="&lt;Path&gt;" class="s63" d="m421.6 300.2c-9.6 5.5-32.6 3.5-32.6 3.5z"/>
								<path id="&lt;Path&gt;" class="s63" d="m404.4 305c-4.8 0.2-34.2-1.4-34.2-1.4h47.6z"/>
							</g>
						</g>
					</g>
					<path id="&lt;Path&gt;" class="s64" d="m617.8 302.4l99.3 20.6 9.4 1.9 97.6-3.5 114.8-1.7 23.4-0.8-143.2 2.4-130.1-19.4z"/>
					<path id="&lt;Path&gt;" class="s64" d="m98.6 309.1l39.4-0.1 2.4-0.4-39.4 0.2z"/>
					<path id="&lt;Path&gt;" class="s64" d="m-95.6 307.5l-81.3 12.5-1.6 0.6 85.6-12.8z"/>
					<path id="&lt;Path&gt;" class="s64" d="m370.7 319.4l2 0.3 73.7-3.2 76.8-3.2 30-1.3-3-0.3-29.1 1.2-77.6 3.4z"/>
					<path id="&lt;Path&gt;" class="s64" d="m933.9 300.6c-0.7-1.2-426.9 6.3-426.9 6.3l-29.1-3.6 458.1-4.1z"/>
					<g id="&lt;Group&gt;">
						<g id="&lt;Group&gt;">
							<path id="&lt;Path&gt;" class="s65" d="m574.2 325l-14.7-1.1c0 0 6.8-1 9.7-1 2.8 0 5 2.1 5 2.1z"/>
							<path id="&lt;Path&gt;" class="s65" d="m493.9 326.7c-6.1 0-13.3-1.2-13.3-1.2l15.4 0.3-4.4 0.4z"/>
							<path id="&lt;Path&gt;" class="s65" d="m568 328.2c-3.1 0.3-6.2-0.3-6.2-0.3z"/>
							<path id="&lt;Path&gt;" class="s65" d="m516.6 324.6c-2.1 0.3-16.5-0.2-16.5-0.2l15.4-0.3z"/>
							<path id="&lt;Path&gt;" class="s65" d="m586.5 325.8c9.3 0 18.7-1.3 18.7-1.3l-23.6 0.8z"/>
							<path id="&lt;Path&gt;" class="s65" d="m528.9 325.5c-2 0.3-3.1 0-3.1 0z"/>
							<path id="&lt;Path&gt;" class="s65" d="m479.5 323.2c-1 0.6-6.2 0-6.2 0z"/>
							<path id="&lt;Path&gt;" class="s65" d="m479.5 323.8c-2 0.3-12.3-0.3-12.3-0.3h20.6z"/>
						</g>
						<g id="&lt;Group&gt;">
							<path id="&lt;Path&gt;" class="s65" d="m506.3 337.6l-14.6-1.1c0 0 6.8-1 9.6-1 2.9 0 5 2.1 5 2.1z"/>
							<path id="&lt;Path&gt;" class="s65" d="m386.9 348.2c-6.2 0-13.4-1.2-13.4-1.2l15.4 0.3-4.4 0.3z"/>
							<path id="&lt;Path&gt;" class="s65" d="m500.2 340.8c-3.1 0.3-6.2-0.3-6.2-0.3z"/>
							<path id="&lt;Path&gt;" class="s65" d="m409.5 346.1c-2 0.3-16.4-0.3-16.4-0.3l15.4-0.3z"/>
							<path id="&lt;Path&gt;" class="s65" d="m479.5 347.3c9.2 0 18.6-1.3 18.6-1.3l-23.6 0.8z"/>
							<path id="&lt;Path&gt;" class="s65" d="m421.9 347c-2.1 0.3-3.1 0-3.1 0z"/>
							<path id="&lt;Path&gt;" class="s65" d="m372.5 344.6c-1.1 0.6-6.2 0-6.2 0z"/>
							<path id="&lt;Path&gt;" class="s65" d="m372.5 345.2c-2.1 0.3-12.4-0.3-12.4-0.3h20.6z"/>
						</g>
						<g id="&lt;Group&gt;">
							<path id="&lt;Path&gt;" class="s65" d="m310.3 345.1l-14.7-1c0 0 6.8-1 9.7-1 2.9 0 5 2 5 2z"/>
							<path id="&lt;Path&gt;" class="s65" d="m156.7 357c-6.2 0-13.4-1.1-13.4-1.1l15.5 0.3-4.4 0.3z"/>
							<path id="&lt;Path&gt;" class="s65" d="m304.1 348.4c-3 0.3-6.1-0.3-6.1-0.3z"/>
							<path id="&lt;Path&gt;" class="s65" d="m179.3 355c-2 0.3-16.4-0.3-16.4-0.3l15.4-0.3z"/>
							<path id="&lt;Path&gt;" class="s65" d="m249.3 356.2c9.3 0 18.7-1.4 18.7-1.4l-23.6 0.9z"/>
							<path id="&lt;Path&gt;" class="s65" d="m191.7 355.9c-2.1 0.3-3.1 0-3.1 0z"/>
							<path id="&lt;Path&gt;" class="s65" d="m142.3 353.5c-1 0.6-6.2 0-6.2 0z"/>
							<path id="&lt;Path&gt;" class="s65" d="m142.3 354.1c-2.1 0.3-12.4-0.3-12.4-0.3h20.6z"/>
						</g>
						<g id="&lt;Group&gt;">
							<path id="&lt;Path&gt;" class="s65" d="m236.3 354.3l24.2 1.7c0 0-11.3 1.7-16 1.7-4.7 0-8.2-3.4-8.2-3.4z"/>
							<path id="&lt;Path&gt;" class="s65" d="m238.8 338.7c6.1 0 13.3 1.2 13.3 1.2l-15.4-0.3 4.4-0.3z"/>
							<path id="&lt;Path&gt;" class="s65" d="m310.1 343.5c3.1-0.3 6.2 0.3 6.2 0.3z"/>
							<path id="&lt;Path&gt;" class="s65" d="m308.5 345.8c2-0.3 16.4 0.3 16.4 0.3l-15.4 0.3z"/>
							<path id="&lt;Path&gt;" class="s65" d="m291.6 345.9c-9.3 0-18.7 1.3-18.7 1.3l23.6-0.8z"/>
							<path id="&lt;Path&gt;" class="s65" d="m349.2 346.2c2.1-0.3 3.1 0 3.1 0z"/>
							<path id="&lt;Path&gt;" class="s65" d="m398.6 348.6c1-0.6 6.2 0 6.2 0z"/>
							<path id="&lt;Path&gt;" class="s65" d="m398.6 348c2.1-0.3 12.4 0.3 12.4 0.3h-20.6z"/>
						</g>
						<g id="&lt;Group&gt;">
							<path id="&lt;Path&gt;" class="s65" d="m518.2 338l-11.2 0.8c0 0 5.2 0.8 7.4 0.8 2.1 0 3.8-1.6 3.8-1.6z"/>
							<path id="&lt;Path&gt;" class="s65" d="m450 333.7c-2.8 0-6.1 0.6-6.1 0.6l7.1-0.2-2.1-0.1z"/>
							<path id="&lt;Path&gt;" class="s65" d="m446.2 335.6c-1.4-0.2-2.8 0.1-2.8 0.1z"/>
							<path id="&lt;Path&gt;" class="s65" d="m447 336.6c-1-0.1-7.6 0.2-7.6 0.2l7.1 0.1z"/>
							<path id="&lt;Path&gt;" class="s65" d="m454.7 336.7c4.3 0 8.6 0.6 8.6 0.6l-10.8-0.4z"/>
							<path id="&lt;Path&gt;" class="s65" d="m466.1 334.3c-0.9-0.2-1.4 0-1.4 0z"/>
							<path id="&lt;Path&gt;" class="s65" d="m443.4 335.4c-0.5-0.3-2.9 0-2.9 0z"/>
							<path id="&lt;Path&gt;" class="s65" d="m443.4 335.1c-1-0.1-5.7 0.1-5.7 0.1h9.5z"/>
						</g>
					</g>
					<g id="&lt;Group&gt;">
						<g id="&lt;Group&gt;">
							<path id="&lt;Path&gt;" class="s66" d="m932.5 331.5l-16.3-2.1c0 0 7.5-2.2 10.7-2.2 3.2 0 5.6 4.3 5.6 4.3z"/>
							<path id="&lt;Path&gt;" class="s66" d="m843.4 335.2c-6.9 0-14.9-2.5-14.9-2.5l17.2 0.6-4.9 0.7z"/>
							<path id="&lt;Path&gt;" class="s66" d="m925.6 338.3c-3.4 0.7-6.8-0.6-6.8-0.6z"/>
							<path id="&lt;Path&gt;" class="s66" d="m868.5 330.8c-2.3 0.7-18.3-0.6-18.3-0.6l17.2-0.6z"/>
							<path id="&lt;Path&gt;" class="s66" d="m946.2 333.3c10.3 0 20.7-2.7 20.7-2.7l-26.2 1.7z"/>
							<path id="&lt;Path&gt;" class="s66" d="m882.2 332.7c-2.3 0.6-3.4 0-3.4 0z"/>
							<path id="&lt;Path&gt;" class="s66" d="m827.4 327.7c-1.1 1.3-6.8 0-6.8 0z"/>
							<path id="&lt;Path&gt;" class="s66" d="m827.4 329c-2.3 0.6-13.7-0.7-13.7-0.7h22.8z"/>
						</g>
						<g id="&lt;Group&gt;">
							<path id="&lt;Path&gt;" class="s65" d="m857.2 358l-16.3-2.2c0 0 7.5-2.1 10.7-2.1 3.2 0 5.6 4.3 5.6 4.3z"/>
							<path id="&lt;Path&gt;" class="s65" d="m724.6 380.3c-6.9 0-14.9-2.5-14.9-2.5l17.2 0.6-4.9 0.7z"/>
							<path id="&lt;Path&gt;" class="s65" d="m850.3 364.8c-3.4 0.6-6.8-0.6-6.8-0.6z"/>
							<path id="&lt;Path&gt;" class="s65" d="m749.7 375.9c-2.3 0.6-18.3-0.6-18.3-0.6l17.2-0.7z"/>
							<path id="&lt;Path&gt;" class="s65" d="m827.4 378.4c10.2 0 20.7-2.7 20.7-2.7l-26.2 1.6z"/>
							<path id="&lt;Path&gt;" class="s65" d="m763.4 377.8c-2.3 0.6-3.4 0-3.4 0z"/>
							<path id="&lt;Path&gt;" class="s65" d="m708.6 372.8c-1.2 1.2-6.9 0-6.9 0z"/>
							<path id="&lt;Path&gt;" class="s65" d="m708.6 374c-2.3 0.6-13.7-0.6-13.7-0.6h22.8z"/>
						</g>
						<g id="&lt;Group&gt;">
							<path id="&lt;Path&gt;" class="s65" d="m639.6 373.9l-16.3-2.1c0 0 7.6-2.2 10.7-2.2 3.2 0 5.6 4.3 5.6 4.3z"/>
							<path id="&lt;Path&gt;" class="s65" d="m469.1 398.9c-6.9 0-14.9-2.5-14.9-2.5l17.2 0.6-4.9 0.7z"/>
							<path id="&lt;Path&gt;" class="s65" d="m632.7 380.7c-3.4 0.7-6.8-0.6-6.8-0.6z"/>
							<path id="&lt;Path&gt;" class="s65" d="m494.2 394.5c-2.3 0.6-18.3-0.6-18.3-0.6l17.2-0.7z"/>
							<path id="&lt;Path&gt;" class="s65" d="m571.9 397c10.3 0 20.7-2.8 20.7-2.8l-26.2 1.7z"/>
							<path id="&lt;Path&gt;" class="s65" d="m507.9 396.4c-2.3 0.6-3.4 0-3.4 0z"/>
							<path id="&lt;Path&gt;" class="s65" d="m453.1 391.4c-1.2 1.2-6.9 0-6.9 0z"/>
							<path id="&lt;Path&gt;" class="s65" d="m453.1 392.6c-2.3 0.6-13.7-0.6-13.7-0.6h22.8z"/>
						</g>
						<g id="&lt;Group&gt;">
							<path id="&lt;Path&gt;" class="s65" d="m557.4 393.1l26.9 3.5c0 0-12.5 3.6-17.8 3.6-5.2 0-9.1-7.1-9.1-7.1z"/>
							<path id="&lt;Path&gt;" class="s65" d="m560.2 360.3c6.8 0 14.8 2.5 14.8 2.5l-17.1-0.6 4.9-0.7z"/>
							<path id="&lt;Path&gt;" class="s65" d="m639.4 370.4c3.4-0.6 6.8 0.7 6.8 0.7z"/>
							<path id="&lt;Path&gt;" class="s65" d="m637.5 375.3c2.3-0.6 18.3 0.6 18.3 0.6l-17.1 0.6z"/>
							<path id="&lt;Path&gt;" class="s65" d="m618.8 375.5c-10.3 0-20.7 2.7-20.7 2.7l26.2-1.7z"/>
							<path id="&lt;Path&gt;" class="s65" d="m682.8 376.1c2.3-0.6 3.4 0 3.4 0z"/>
							<path id="&lt;Path&gt;" class="s65" d="m737.6 381.1c1.1-1.3 6.9 0 6.9 0z"/>
							<path id="&lt;Path&gt;" class="s65" d="m737.6 379.8c2.3-0.6 13.7 0.7 13.7 0.7h-22.8z"/>
						</g>
						<g id="&lt;Group&gt;">
							<path id="&lt;Path&gt;" class="s65" d="m870.3 358.9l-12.4 1.6c0 0 5.8 1.7 8.2 1.7 2.4 0 4.2-3.3 4.2-3.3z"/>
							<path id="&lt;Path&gt;" class="s65" d="m794.7 349.9c-3.2 0-6.9 1.2-6.9 1.2l7.9-0.3-2.2-0.3z"/>
							<path id="&lt;Path&gt;" class="s65" d="m790.4 353.8c-1.6-0.3-3.1 0.3-3.1 0.3z"/>
							<path id="&lt;Path&gt;" class="s65" d="m791.3 356c-1.1-0.3-8.4 0.3-8.4 0.3l7.9 0.3z"/>
							<path id="&lt;Path&gt;" class="s65" d="m799.9 356.1c4.7 0 9.5 1.2 9.5 1.2l-12-0.7z"/>
							<path id="&lt;Path&gt;" class="s65" d="m812.5 351.1c-1-0.3-1.5 0-1.5 0z"/>
							<path id="&lt;Path&gt;" class="s65" d="m787.3 353.4c-0.5-0.6-3.2 0-3.2 0z"/>
							<path id="&lt;Path&gt;" class="s65" d="m787.3 352.8c-1.1-0.3-6.3 0.3-6.3 0.3h10.5z"/>
						</g>
					</g>
					<path id="&lt;Path&gt;" class="s67" d="m521.6 358.7h0.1q0.3 0 0.3 0z"/>
					<path id="&lt;Path&gt;" class="s68" d="m732.8 87.5l-0.1 0.1q1-0.6 2.1-1.1z"/>
					<g id="&lt;Group&gt;">
						<path id="&lt;Path&gt;" class="s69" d="m665.8 275.6c0 0.7 0.5 1.2 1.2 1.2 0.6 0 1.1-0.5 1.1-1.2 0-0.6-0.5-1.1-1.1-1.1-0.7 0-1.2 0.5-1.2 1.1z"/>
						<path id="&lt;Path&gt;" class="s69" d="m693.9 276.9c0 0.6 0.5 1.1 1.1 1.1 0.6 0 1.1-0.5 1.1-1.1 0-0.7-0.5-1.2-1.1-1.2-0.6 0-1.1 0.5-1.1 1.2z"/>
						<path id="&lt;Path&gt;" class="s69" d="m653.7 281.5c0 0.6 0.5 1.1 1.2 1.1 0.6 0 1.1-0.5 1.1-1.1 0-0.7-0.5-1.2-1.1-1.2-0.7 0-1.2 0.5-1.2 1.2z"/>
						<path id="&lt;Path&gt;" class="s69" d="m672.2 279.2c0 0.6 0.5 1.1 1.1 1.1 0.6 0 1.2-0.5 1.2-1.1 0-0.7-0.6-1.2-1.2-1.2-0.6 0-1.1 0.5-1.1 1.2z"/>
						<path id="&lt;Path&gt;" class="s69" d="m728.1 276.9c0 0.6 0.6 1.1 1.2 1.1 0.6 0 1.1-0.5 1.1-1.1 0-0.7-0.5-1.2-1.1-1.2-0.6 0-1.2 0.5-1.2 1.2z"/>
						<path id="&lt;Path&gt;" class="s69" d="m714.4 278.3c0 0.6 0.5 1.2 1.2 1.2 0.6 0 1.1-0.6 1.1-1.2 0-0.6-0.5-1.1-1.1-1.1-0.7 0-1.2 0.5-1.2 1.1z"/>
						<path id="&lt;Path&gt;" class="s69" d="m738.4 275.6c0 0.7 0.5 1.2 1.1 1.2 0.7 0 1.2-0.5 1.2-1.2 0-0.6-0.5-1.1-1.2-1.1-0.6 0-1.1 0.5-1.1 1.1z"/>
						<path id="&lt;Path&gt;" class="s69" d="m712.1 280.3c0 0.6 0.5 1.2 1.2 1.2 0.6 0 1.1-0.6 1.1-1.2 0-0.6-0.5-1.1-1.1-1.1-0.7 0-1.2 0.5-1.2 1.1z"/>
						<path id="&lt;Path&gt;" class="s69" d="m783.6 275.6c0 0.7 0.5 1.2 1.2 1.2 0.6 0 1.1-0.5 1.1-1.2 0-0.6-0.5-1.1-1.1-1.1-0.7 0-1.2 0.5-1.2 1.1z"/>
						<path id="&lt;Path&gt;" class="s69" d="m778.4 278.3c0 0.6 0.5 1.2 1.1 1.2 0.7 0 1.2-0.6 1.2-1.2 0-0.6-0.5-1.1-1.2-1.1-0.6 0-1.1 0.5-1.1 1.1z"/>
						<path id="&lt;Path&gt;" class="s69" d="m771.2 275.7c0 0.7 0.5 1.2 1.1 1.2 0.7 0 1.2-0.5 1.2-1.2 0-0.6-0.5-1.1-1.2-1.1-0.6 0-1.1 0.5-1.1 1.1z"/>
						<path id="&lt;Path&gt;" class="s69" d="m749.3 278.3c0 0.6 0.5 1.2 1.2 1.2 0.6 0 1.1-0.6 1.1-1.2 0-0.6-0.5-1.1-1.1-1.1-0.7 0-1.2 0.5-1.2 1.1z"/>
						<path id="&lt;Path&gt;" class="s69" d="m682.6 275.6c0 0.7 0.5 1.2 1.1 1.2 0.6 0 1.2-0.5 1.2-1.2 0-0.6-0.6-1.1-1.2-1.1-0.6 0-1.1 0.5-1.1 1.1z"/>
						<path id="&lt;Path&gt;" class="s69" d="m688.1 279.5c0 0.6 0.5 1.1 1.2 1.1 0.6 0 1.1-0.5 1.1-1.1 0-0.7-0.5-1.2-1.1-1.2-0.7 0-1.2 0.5-1.2 1.2z"/>
						<path id="&lt;Path&gt;" class="s69" d="m736.1 279.2c0 0.6 0.5 1.1 1.1 1.1 0.7 0 1.2-0.5 1.2-1.1 0-0.7-0.5-1.2-1.2-1.2-0.6 0-1.1 0.5-1.1 1.2z"/>
						<path id="&lt;Path&gt;" class="s69" d="m633.9 281.7c0 0.7 0.5 1.2 1.1 1.2 0.7 0 1.2-0.5 1.2-1.2 0-0.6-0.5-1.1-1.2-1.1-0.6 0-1.1 0.5-1.1 1.1z"/>
						<path id="&lt;Path&gt;" class="s69" d="m637.8 279.2c0 0.6 0.5 1.1 1.2 1.1 0.6 0 1.1-0.5 1.1-1.1 0-0.7-0.5-1.2-1.1-1.2-0.7 0-1.2 0.5-1.2 1.2z"/>
						<path id="&lt;Path&gt;" class="s69" d="m630.6 276.8c0 0.6 0.5 1.1 1.2 1.1 0.6 0 1.1-0.5 1.1-1.1 0-0.7-0.5-1.2-1.1-1.2-0.7 0-1.2 0.5-1.2 1.2z"/>
						<path id="&lt;Path&gt;" class="s69" d="m618.4 278c0 0.6 0.5 1.2 1.1 1.2 0.6 0 1.2-0.6 1.2-1.2 0-0.6-0.6-1.1-1.2-1.1-0.6 0-1.1 0.5-1.1 1.1z"/>
						<path id="&lt;Path&gt;" class="s69" d="m615.1 281.2c-0.4 0.5-0.2 1.2 0.4 1.5 0.5 0.4 1.2 0.2 1.6-0.4 0.3-0.5 0.1-1.2-0.5-1.5-0.5-0.4-1.2-0.2-1.5 0.4z"/>
						<path id="&lt;Path&gt;" class="s69" d="m608.1 276.4c-0.2-0.6-0.9-0.8-1.5-0.6-0.6 0.3-0.8 1-0.5 1.6 0.2 0.5 0.9 0.8 1.5 0.5 0.6-0.3 0.8-1 0.5-1.5z"/>
						<path id="&lt;Path&gt;" class="s69" d="m472.6 277.3c0 0.6 0.5 1.1 1.1 1.1 0.7 0 1.2-0.5 1.2-1.1 0-0.7-0.5-1.2-1.2-1.2-0.6 0-1.1 0.5-1.1 1.2z"/>
						<path id="&lt;Path&gt;" class="s69" d="m500.6 278.5c0 0.6 0.5 1.1 1.2 1.1 0.6 0 1.1-0.5 1.1-1.1 0-0.6-0.5-1.2-1.1-1.2-0.7 0-1.2 0.6-1.2 1.2z"/>
						<path id="&lt;Path&gt;" class="s69" d="m460.5 283.1c0 0.6 0.5 1.1 1.2 1.1 0.6 0 1.1-0.5 1.1-1.1 0-0.7-0.5-1.2-1.1-1.2-0.7 0-1.2 0.5-1.2 1.2z"/>
						<path id="&lt;Path&gt;" class="s69" d="m478.9 280.8c0 0.6 0.5 1.1 1.2 1.1 0.6 0 1.1-0.5 1.1-1.1 0-0.7-0.5-1.2-1.1-1.2-0.7 0-1.2 0.5-1.2 1.2z"/>
						<path id="&lt;Path&gt;" class="s69" d="m534.9 278.5c0 0.6 0.5 1.1 1.2 1.1 0.6 0 1.1-0.5 1.1-1.1 0-0.6-0.5-1.2-1.1-1.2-0.7 0-1.2 0.6-1.2 1.2z"/>
						<path id="&lt;Path&gt;" class="s69" d="m521.2 279.9c0 0.7 0.5 1.2 1.1 1.2 0.7 0 1.2-0.5 1.2-1.2 0-0.6-0.5-1.1-1.2-1.1-0.6 0-1.1 0.5-1.1 1.1z"/>
						<path id="&lt;Path&gt;" class="s69" d="m545.1 277.3c0 0.6 0.6 1.1 1.2 1.1 0.6 0 1.1-0.5 1.1-1.1 0-0.7-0.5-1.2-1.1-1.2-0.6 0-1.2 0.5-1.2 1.2z"/>
						<path id="&lt;Path&gt;" class="s69" d="m518.9 281.9c0 0.7 0.5 1.2 1.1 1.2 0.7 0 1.2-0.5 1.2-1.2 0-0.6-0.5-1.1-1.2-1.1-0.6 0-1.1 0.5-1.1 1.1z"/>
						<path id="&lt;Path&gt;" class="s69" d="m590.4 277.3c0 0.6 0.5 1.1 1.1 1.1 0.7 0 1.2-0.5 1.2-1.1 0-0.7-0.5-1.2-1.2-1.2-0.6 0-1.1 0.5-1.1 1.2z"/>
						<path id="&lt;Path&gt;" class="s69" d="m585.2 279.9c0 0.7 0.5 1.2 1.1 1.2 0.7 0 1.2-0.5 1.2-1.2 0-0.6-0.5-1.1-1.2-1.1-0.6 0-1.1 0.5-1.1 1.1z"/>
						<path id="&lt;Path&gt;" class="s69" d="m577.9 277.3c0 0.7 0.6 1.2 1.2 1.2 0.6 0 1.1-0.5 1.1-1.2 0-0.6-0.5-1.1-1.1-1.1-0.6 0-1.2 0.5-1.2 1.1z"/>
						<path id="&lt;Path&gt;" class="s69" d="m556.1 279.9c0 0.7 0.5 1.2 1.1 1.2 0.7 0 1.2-0.5 1.2-1.2 0-0.6-0.5-1.1-1.2-1.1-0.6 0-1.1 0.5-1.1 1.1z"/>
						<path id="&lt;Path&gt;" class="s69" d="m489.3 277.3c0 0.6 0.5 1.1 1.2 1.1 0.6 0 1.1-0.5 1.1-1.1 0-0.7-0.5-1.2-1.1-1.2-0.7 0-1.2 0.5-1.2 1.2z"/>
						<path id="&lt;Path&gt;" class="s69" d="m494.9 281.1c0 0.6 0.5 1.1 1.1 1.1 0.7 0 1.2-0.5 1.2-1.1 0-0.7-0.5-1.2-1.2-1.2-0.6 0-1.1 0.5-1.1 1.2z"/>
						<path id="&lt;Path&gt;" class="s69" d="m542.9 280.8c0 0.6 0.5 1.1 1.1 1.1 0.6 0 1.1-0.5 1.1-1.1 0-0.7-0.5-1.2-1.1-1.2-0.6 0-1.1 0.5-1.1 1.2z"/>
						<path id="&lt;Path&gt;" class="s69" d="m440.7 283.4c0 0.6 0.5 1.1 1.1 1.1 0.6 0 1.2-0.5 1.2-1.1 0-0.7-0.6-1.2-1.2-1.2-0.6 0-1.1 0.5-1.1 1.2z"/>
						<path id="&lt;Path&gt;" class="s69" d="m444.6 280.8c0 0.6 0.5 1.1 1.2 1.1 0.6 0 1.1-0.5 1.1-1.1 0-0.7-0.5-1.2-1.1-1.2-0.7 0-1.2 0.5-1.2 1.2z"/>
						<path id="&lt;Path&gt;" class="s69" d="m437.4 278.4c0 0.6 0.5 1.1 1.1 1.1 0.7 0 1.2-0.5 1.2-1.1 0-0.6-0.5-1.1-1.2-1.1-0.6 0-1.1 0.5-1.1 1.1z"/>
						<path id="&lt;Path&gt;" class="s69" d="m425.1 279.6c0 0.7 0.5 1.2 1.2 1.2 0.6 0 1.1-0.5 1.1-1.2 0-0.6-0.5-1.1-1.1-1.1-0.7 0-1.2 0.5-1.2 1.1z"/>
						<path id="&lt;Path&gt;" class="s69" d="m421.8 282.8c-0.3 0.5-0.1 1.2 0.5 1.6 0.5 0.3 1.2 0.1 1.5-0.5 0.3-0.5 0.1-1.2-0.4-1.5-0.5-0.3-1.2-0.2-1.6 0.4z"/>
						<path id="&lt;Path&gt;" class="s69" d="m414.9 278c-0.3-0.6-1-0.8-1.5-0.5-0.6 0.2-0.8 0.9-0.6 1.5 0.3 0.6 1 0.8 1.6 0.5 0.5-0.3 0.8-0.9 0.5-1.5z"/>
						<path id="&lt;Path&gt;" class="s69" d="m280.1 277.3c0 0.6 0.6 1.1 1.2 1.1 0.6 0 1.1-0.5 1.1-1.1 0-0.7-0.5-1.2-1.1-1.2-0.6 0-1.2 0.5-1.2 1.2z"/>
						<path id="&lt;Path&gt;" class="s69" d="m308.2 278.5c0 0.6 0.5 1.1 1.1 1.1 0.7 0 1.2-0.5 1.2-1.1 0-0.6-0.5-1.2-1.2-1.2-0.6 0-1.1 0.6-1.1 1.2z"/>
						<path id="&lt;Path&gt;" class="s69" d="m268.1 283.1c0 0.6 0.5 1.1 1.1 1.1 0.6 0 1.2-0.5 1.2-1.1 0-0.7-0.6-1.2-1.2-1.2-0.6 0-1.1 0.5-1.1 1.2z"/>
						<path id="&lt;Path&gt;" class="s69" d="m286.5 280.8c0 0.6 0.5 1.1 1.1 1.1 0.7 0 1.2-0.5 1.2-1.1 0-0.7-0.5-1.2-1.2-1.2-0.6 0-1.1 0.5-1.1 1.2z"/>
						<path id="&lt;Path&gt;" class="s69" d="m342.5 278.5c0 0.6 0.5 1.1 1.1 1.1 0.7 0 1.2-0.5 1.2-1.1 0-0.6-0.5-1.2-1.2-1.2-0.6 0-1.1 0.6-1.1 1.2z"/>
						<path id="&lt;Path&gt;" class="s69" d="m328.8 279.9c0 0.7 0.5 1.2 1.1 1.2 0.6 0 1.1-0.5 1.1-1.2 0-0.6-0.5-1.1-1.1-1.1-0.6 0-1.1 0.5-1.1 1.1z"/>
						<path id="&lt;Path&gt;" class="s69" d="m352.7 277.3c0 0.6 0.5 1.1 1.2 1.1 0.6 0 1.1-0.5 1.1-1.1 0-0.7-0.5-1.2-1.1-1.2-0.7 0-1.2 0.5-1.2 1.2z"/>
						<path id="&lt;Path&gt;" class="s69" d="m326.5 281.9c0 0.7 0.5 1.2 1.1 1.2 0.6 0 1.2-0.5 1.2-1.2 0-0.6-0.6-1.1-1.2-1.1-0.6 0-1.1 0.5-1.1 1.1z"/>
						<path id="&lt;Path&gt;" class="s69" d="m398 277.3c0 0.6 0.5 1.1 1.1 1.1 0.6 0 1.2-0.5 1.2-1.1 0-0.7-0.6-1.2-1.2-1.2-0.6 0-1.1 0.5-1.1 1.2z"/>
						<path id="&lt;Path&gt;" class="s69" d="m392.7 279.9c0 0.7 0.5 1.2 1.2 1.2 0.6 0 1.1-0.5 1.1-1.2 0-0.6-0.5-1.1-1.1-1.1-0.7 0-1.2 0.5-1.2 1.1z"/>
						<path id="&lt;Path&gt;" class="s69" d="m385.5 277.3c0 0.7 0.5 1.2 1.2 1.2 0.6 0 1.1-0.5 1.1-1.2 0-0.6-0.5-1.1-1.1-1.1-0.7 0-1.2 0.5-1.2 1.1z"/>
						<path id="&lt;Path&gt;" class="s69" d="m363.6 279.9c0 0.7 0.6 1.2 1.2 1.2 0.6 0 1.1-0.5 1.1-1.2 0-0.6-0.5-1.1-1.1-1.1-0.6 0-1.2 0.5-1.2 1.1z"/>
						<path id="&lt;Path&gt;" class="s69" d="m296.9 277.3c0 0.6 0.5 1.1 1.1 1.1 0.7 0 1.2-0.5 1.2-1.1 0-0.7-0.5-1.2-1.2-1.2-0.6 0-1.1 0.5-1.1 1.2z"/>
						<path id="&lt;Path&gt;" class="s69" d="m302.5 281.1c0 0.6 0.5 1.1 1.1 1.1 0.6 0 1.1-0.5 1.1-1.1 0-0.7-0.5-1.2-1.1-1.2-0.6 0-1.1 0.5-1.1 1.2z"/>
						<path id="&lt;Path&gt;" class="s69" d="m350.4 280.8c0 0.6 0.5 1.1 1.2 1.1 0.6 0 1.1-0.5 1.1-1.1 0-0.7-0.5-1.2-1.1-1.2-0.7 0-1.2 0.5-1.2 1.2z"/>
						<path id="&lt;Path&gt;" class="s69" d="m248.2 283.4c0 0.6 0.5 1.1 1.2 1.1 0.6 0 1.1-0.5 1.1-1.1 0-0.7-0.5-1.2-1.1-1.2-0.7 0-1.2 0.5-1.2 1.2z"/>
						<path id="&lt;Path&gt;" class="s69" d="m252.2 280.8c0 0.6 0.5 1.1 1.1 1.1 0.6 0 1.2-0.5 1.2-1.1 0-0.7-0.6-1.2-1.2-1.2-0.6 0-1.1 0.5-1.1 1.2z"/>
						<path id="&lt;Path&gt;" class="s69" d="m244.9 278.4c0 0.6 0.6 1.1 1.2 1.1 0.6 0 1.1-0.5 1.1-1.1 0-0.6-0.5-1.1-1.1-1.1-0.6 0-1.2 0.5-1.2 1.1z"/>
						<path id="&lt;Path&gt;" class="s69" d="m232.7 279.6c0 0.7 0.5 1.2 1.1 1.2 0.7 0 1.2-0.5 1.2-1.2 0-0.6-0.5-1.1-1.2-1.1-0.6 0-1.1 0.5-1.1 1.1z"/>
						<path id="&lt;Path&gt;" class="s69" d="m229.4 282.8c-0.3 0.5-0.1 1.2 0.4 1.6 0.6 0.3 1.3 0.1 1.6-0.5 0.3-0.5 0.1-1.2-0.4-1.5-0.6-0.3-1.3-0.2-1.6 0.4z"/>
						<path id="&lt;Path&gt;" class="s69" d="m222.5 278c-0.3-0.6-1-0.8-1.6-0.5-0.5 0.2-0.8 0.9-0.5 1.5 0.3 0.6 1 0.8 1.5 0.5 0.6-0.3 0.8-0.9 0.6-1.5z"/>
					</g>
					<g id="&lt;Group&gt;">
						<path id="&lt;Path&gt;" class="s70" d="m23 325.3l69.8 12.5-12.3-50.1-45.1-51.3 45.7 42.9-2.1-9.6-50.2-58.8 48.7 33.8-48.3-39.2 48.9 30.9-33.6-133.2-22.4-12.4 15.2 4.6-20.6-87.2-21.3 124.9 19.4-4.5-25.6 28.3-9.6 130.8 36.6-29.9-42.6 40.9-9.3 37.8z"/>
						<g id="&lt;Group&gt;">
							<path id="&lt;Path&gt;" class="s71" d="m24.8 371.3l-6.9-175.3-2.1-129.4 0.7 304.7z"/>
							<path id="&lt;Path&gt;" class="s72" d="m17.3 156.9l14.2 4 0.9 1.9-15.1-4.5z"/>
						</g>
					</g>
					<g id="&lt;Group&gt;">
						<path id="&lt;Path&gt;" class="s73" d="m914.5 354.6l56.8 23.7-6.7-90.7-44.4-21.5 43.8 13.5-2-20.3-49.2-38.3 48.4 29.5-0.5-6.2-46.4-27.2 46 22.9-12.6-81.6-35.5-35.3 28.1 16.3-43.6-114.9-21.2 119.2 24.5-14.9-27.3 20.7-26.4 134.2 41.5-26.6-41.6 31.8-17.2 82.4z"/>
						<path id="&lt;Path&gt;" class="s72" d="m914.1 431.7l-14.5-357.7 1.7-0.2 18 357.5z"/>
						<path id="&lt;Path&gt;" class="s74" d="m846.3 283.7l60.2-40.6-1.9-35.9-54.9 52.9z"/>
						<path id="&lt;Path&gt;" class="s74" d="m831 360.7l78.1-44.3-80.1 54.9z"/>
						<path id="&lt;Path&gt;" class="s74" d="m964 279.6l-50.8-14.3 50.2 7.9z"/>
						<path id="&lt;Path&gt;" class="s74" d="m969 347.8l-55-45.6-0.8-20.7 55.3 48.1z"/>
						<path id="&lt;Path&gt;" class="s74" d="m955.5 209.4l-47.9-64.3-1.1-28.4 41.2 41.7z"/>
						<path id="&lt;Path&gt;" class="s74" d="m856.2 221.8l48.2-28.7-0.8-5.5-48 30.7z"/>
						<path id="&lt;Path&gt;" class="s75" d="m829 371.3l20.3-83.9-3.1 1.5z"/>
						<path id="&lt;Path&gt;" class="s75" d="m846.3 283.7l15.2-65 11.2-69.2z"/>
						<path id="&lt;Path&gt;" class="s75" d="m875.5 143.7l11.7-50.3 9.5-68.9z"/>
					</g>
					<g id="&lt;Group&gt;">
						<path id="&lt;Path&gt;" class="s76" d="m76.9 392l-70.7 14 16-55.9 48.8-57.3-48.8 47.9 2.8-10.8 54.4-65.6-51.1 37.7 51.1-43.7-51.1 34.5 43.4-148.7 23.3-13.8-15.6 5 27-97.3 12.2 139.5-19-5.1 23.4 31.7v146l-34.4-33.4 39.6 45.6 6.6 42.2z"/>
						<g id="&lt;Group&gt;">
							<path id="&lt;Path&gt;" class="s71" d="m71.7 443.3l19.8-195.6 11.5-144.5-23 340.1z"/>
							<path id="&lt;Path&gt;" class="s72" d="m95 204.1l-14.5 4.4-1.1 2.1 15.5-5z"/>
						</g>
						<path id="&lt;Path&gt;" class="s74" d="m6.2 406l70.7-14 2.7-26.8-66.5 16.5z"/>
						<path id="&lt;Path&gt;" class="s74" d="m15.6 373.1l66.2-29.6-65.2 24.2z"/>
						<path id="&lt;Path&gt;" class="s74" d="m123 350.1l-34.4-33.4 34.4 24z"/>
						<path id="&lt;Path&gt;" class="s74" d="m37.1 264.2l56.7-25.1-56.2 21.1z"/>
						<path id="&lt;Path&gt;" class="s74" d="m118.6 177.5l-19-5.1 18.2-3.5z"/>
						<path id="&lt;Path&gt;" class="s74" d="m56.3 196.8l41.2-11.6 0.7-21.7-35.8 12.3z"/>
						<path id="&lt;Path&gt;" class="s74" d="m79.4 135.3l20.2-5-16.4-4.2z"/>
						<path id="&lt;Path&gt;" class="s74" d="m123 309.7l-29.2-70.6 30 55.6z"/>
					</g>
				</g>
			</g>
		</g>
	</g>
</svg>