<svg version="1.2" xmlns="http://www.w3.org/2000/svg" viewBox="0 0 952 428" width="952" height="428">
	<title>2203_w026_n002_1490b_p1_1490-ai</title>
	<style>
		.s0 { fill: #1b1645 } 
		.s1 { opacity: .3;mix-blend-mode: multiply;fill: #0a001b } 
		.s2 { opacity: .2;mix-blend-mode: multiply;fill: #c24672 } 
		.s3 { fill: #191742 } 
		.s4 { opacity: .2;mix-blend-mode: multiply;fill: #96629b } 
	</style>
	<g id="_Artboards_">
	</g>
	<g id="layer1">
		<g id="&lt;Group&gt;">
			<g id="&lt;Group&gt;">
				<g id="&lt;Clip Group&gt;">
					<path id="&lt;Path&gt;" class="s0" d="m-174.1 444.4h1138.1l-0.8-146.4h-1138.2z"/>
					<path id="&lt;Path&gt;" class="s1" d="m999.8 338.5c-107.8-9.9-670.9-3.7-670.9-3.7 0 0 223.3 24.9 310.4 52.1 69.2 21.7 191.3 44.6 191.3 44.6l-306.1 70.2c0 0-134.2-105.2-238-136.2l-81.7-27.2 169.5-12.1 615.6 1.5z"/>
					<path id="&lt;Path&gt;" class="s1" d="m367 325.9c-65.5 5.2-554.1 30.8-554.1 30.8 0 0 204.6-7.2 292.2 12.8 81.1 18.4 190.2 74.9 190.2 74.9l-392.1 20.7c0 0-103-114.2-192-120.6-89-6.4-32.7-23.6-32.7-23.6l164.1-6.4 510.6 3.9z"/>
					<path id="&lt;Path&gt;" class="s2" d="m952.2 319.3l-270.4 3.4 262-1.5z"/>
					<path id="&lt;Path&gt;" class="s2" d="m726.5 324.9l-49.1 1.8 2.3 0.2 52.9-0.7z"/>
					<g id="&lt;Group&gt;">
						<path id="&lt;Path&gt;" class="s3" d="m959.5 292.7l-132.2 9 137.4 0.6z"/>
						<g id="&lt;Group&gt;">
							<path id="&lt;Path&gt;" class="s3" d="m169.7 301l-23.9-0.7c0 0 11.1-0.7 15.8-0.7 4.6 0 8.1 1.4 8.1 1.4z"/>
							<path id="&lt;Path&gt;" class="s3" d="m55.3 304.9c-36.7 0-79.5-3.1-79.5-3.1l91.7 0.8-26.1 0.8z"/>
							<path id="&lt;Path&gt;" class="s3" d="m159.7 303.3c-5.1 0.2-10.1-0.2-10.1-0.2z"/>
							<path id="&lt;Path&gt;" class="s3" d="m306.9 305.6c-12.2 0.8-97.8-0.7-97.8-0.7l91.7-0.8z"/>
							<path id="&lt;Path&gt;" class="s3" d="m125.9 307.9c15.2 0 30.5-0.9 30.5-0.9l-38.5 0.6z"/>
							<path id="&lt;Path&gt;" class="s3" d="m32 307.7c-3.4 0.2-5.1 0-5.1 0z"/>
							<path id="&lt;Path&gt;" class="s3" d="m86.9 301.8c-6.1 1.5-36.7 0-36.7 0z"/>
							<path id="&lt;Path&gt;" class="s3" d="m86.9 303.3c-12.3 0.8-73.4-0.7-73.4-0.7h122.3z"/>
							<path id="&lt;Path&gt;" class="s3" d="m371.8 304.7l-34-0.7c0 0 15.8-0.7 22.4-0.7 6.6 0 11.6 1.4 11.6 1.4z"/>
							<path id="&lt;Path&gt;" class="s3" d="m-45.4 305.2c-14.2 0-30.9-0.8-30.9-0.8l35.7 0.2-10.2 0.2z"/>
							<path id="&lt;Path&gt;" class="s3" d="m357.5 307.1c-7.1 0.2-14.3-0.2-14.3-0.2z"/>
							<path id="&lt;Path&gt;" class="s3" d="m235 306.9c-4.7 0.2-38-0.2-38-0.2l35.7-0.3z"/>
							<path id="&lt;Path&gt;" class="s3" d="m818.2 302.5c21.4 0 43.1-1 43.1-1l-54.6 0.6z"/>
							<path id="&lt;Path&gt;" class="s3" d="m131.3 310.9c-4.7 0.2-7.1 0-7.1 0z"/>
							<path id="&lt;Path&gt;" class="s3" d="m834.6 304.1c-8.6 1.6-52 0-52 0z"/>
							<path id="&lt;Path&gt;" class="s3" d="m834.6 305.7c-17.3 0.8-104-0.8-104-0.8h173.4z"/>
							<g id="&lt;Group&gt;">
								<path id="&lt;Path&gt;" class="s3" d="m140.8 309.5l6.7 0.7c0 0-3.1 0.7-4.4 0.7-1.3 0-2.3-1.4-2.3-1.4z"/>
								<path id="&lt;Path&gt;" class="s3" d="m325.6 307.5c2.8 0 6 0.9 6 0.9l-7-0.2 2-0.3z"/>
								<path id="&lt;Path&gt;" class="s3" d="m274.2 312.6c1.4-0.2 2.8 0.2 2.8 0.2z"/>
								<path id="&lt;Path&gt;" class="s3" d="m315.3 309c0.9-0.2 7.4 0.2 7.4 0.2l-7 0.2z"/>
								<path id="&lt;Path&gt;" class="s3" d="m283.6 308c-4.2 0-8.5 0.9-8.5 0.9l10.7-0.5z"/>
								<path id="&lt;Path&gt;" class="s3" d="m309.7 308.3c0.9-0.2 1.4 0 1.4 0z"/>
								<path id="&lt;Path&gt;" class="s3" d="m332 310.1c0.5-0.4 2.8 0 2.8 0z"/>
								<path id="&lt;Path&gt;" class="s3" d="m332.1 309.7c0.9-0.2 5.5 0.2 5.5 0.2h-9.3z"/>
							</g>
							<path id="&lt;Path&gt;" class="s3" d="m423.7 301.3l-49.1-3.2c0 0 59.1 0.1 65.7 0.1 6.6 0-16.6 3.1-16.6 3.1z"/>
							<path id="&lt;Path&gt;" class="s3" d="m54.2 310c-14.2 0-30.9-0.8-30.9-0.8l35.7 0.2-10.2 0.2z"/>
							<path id="&lt;Path&gt;" class="s3" d="m409.5 303.6c-7.2 0.2-14.3-0.2-14.3-0.2z"/>
							<path id="&lt;Path&gt;" class="s3" d="m51.9 310.2c-4.7 0.2-38-0.2-38-0.2l35.6-0.2z"/>
							<path id="&lt;Path&gt;" class="s3" d="m361.6 308.2c21.5 0 43.2-0.9 43.2-0.9l-54.6 0.6z"/>
							<path id="&lt;Path&gt;" class="s3" d="m228.4 308c-4.8 0.2-7.2 0-7.2 0z"/>
							<path id="&lt;Path&gt;" class="s3" d="m69.1 305.8c-2.4 0.4-14.3 0-14.3 0z"/>
							<path id="&lt;Path&gt;" class="s3" d="m-9 309.9c-4.8 0.2-28.6-0.3-28.6-0.3h47.6z"/>
							<g id="&lt;Group&gt;">
								<path id="&lt;Path&gt;" class="s3" d="m708.4 298.4l-34-0.7c0 0 15.8-0.7 22.4-0.7 6.6 0 11.6 1.4 11.6 1.4z"/>
								<path id="&lt;Path&gt;" class="s3" d="m432.1 306c-14.3 0-30.9-0.9-30.9-0.9l35.7 0.2-10.2 0.3z"/>
								<path id="&lt;Path&gt;" class="s3" d="m694.1 300.7c-7.1 0.2-14.3-0.2-14.3-0.2z"/>
								<path id="&lt;Path&gt;" class="s3" d="m484.5 304.5c-4.8 0.2-38.1-0.2-38.1-0.2l35.7-0.2z"/>
								<path id="&lt;Path&gt;" class="s3" d="m646.3 305.3c21.4 0 43.1-0.9 43.1-0.9l-54.6 0.6z"/>
								<path id="&lt;Path&gt;" class="s3" d="m513 305.1c-4.8 0.2-7.1 0-7.1 0z"/>
								<path id="&lt;Path&gt;" class="s3" d="m421.6 300.2c-9.6 5.5-32.6 3.5-32.6 3.5z"/>
								<path id="&lt;Path&gt;" class="s3" d="m404.4 305c-4.8 0.2-34.2-1.4-34.2-1.4h47.6z"/>
							</g>
						</g>
					</g>
					<path id="&lt;Path&gt;" class="s4" d="m617.8 302.4l99.3 20.6 9.4 1.9 97.6-3.5 114.8-1.7 23.4-0.8-143.2 2.4-130.1-19.4z"/>
					<path id="&lt;Path&gt;" class="s4" d="m98.6 309.1l39.4-0.1 2.4-0.4-39.4 0.2z"/>
					<path id="&lt;Path&gt;" class="s4" d="m-95.6 307.5l-81.3 12.5-1.6 0.6 85.6-12.8z"/>
					<path id="&lt;Path&gt;" class="s4" d="m370.7 319.4l2 0.3 73.7-3.2 76.8-3.2 30-1.3-3-0.3-29.1 1.2-77.6 3.4z"/>
					<path id="&lt;Path&gt;" class="s4" d="m933.9 300.6c-0.7-1.2-426.9 6.3-426.9 6.3l-29.1-3.6 458.1-4.1z"/>
				</g>
			</g>
		</g>
	</g>
</svg>