<svg version="1.2" xmlns="http://www.w3.org/2000/svg" viewBox="0 0 952 428" width="952" height="428">
	<title>2203_w026_n002_1490b_p1_1490-ai</title>
	<defs>
		<linearGradient id="g1" x2="1" gradientUnits="userSpaceOnUse" gradientTransform="matrix(-114.834,413.743,-193.567,-53.725,82.278,-20.17)">
			<stop offset="0" stop-color="#16224d"/>
			<stop offset="1" stop-color="#172861"/>
		</linearGradient>
		<linearGradient id="g2" x2="1" gradientUnits="userSpaceOnUse" gradientTransform="matrix(275.896,521.109,-53.167,28.149,344.069,33.202)">
			<stop offset="0" stop-color="#16224d"/>
			<stop offset="1" stop-color="#172861"/>
		</linearGradient>
		<linearGradient id="g3" x2="1" gradientUnits="userSpaceOnUse" gradientTransform="matrix(-46.292,192.429,-147.269,-35.428,239.156,80.642)">
			<stop offset="0" stop-color="#16224d"/>
			<stop offset="1" stop-color="#172861"/>
		</linearGradient>
		<linearGradient id="g4" x2="1" gradientUnits="userSpaceOnUse" gradientTransform="matrix(2.552,29.461,-27.552,2.386,258.859,113.075)">
			<stop offset="0" stop-color="#586400"/>
			<stop offset="1" stop-color="#ffffff"/>
		</linearGradient>
		<linearGradient id="g5" x2="1" gradientUnits="userSpaceOnUse" gradientTransform="matrix(-15.821,295.938,-105.066,-5.617,-122.918,-39.437)">
			<stop offset="0" stop-color="#16224d"/>
			<stop offset="1" stop-color="#172861"/>
		</linearGradient>
		<linearGradient id="g6" x2="1" gradientUnits="userSpaceOnUse" gradientTransform="matrix(-18.141,339.343,-77.603,-4.149,-163.241,-100.444)">
			<stop offset="0" stop-color="#16224d"/>
			<stop offset="1" stop-color="#172861"/>
		</linearGradient>
		<linearGradient id="g7" x2="1" gradientUnits="userSpaceOnUse" gradientTransform="matrix(-5.786,108.225,-88.021,-4.706,185.266,131.124)">
			<stop offset="0" stop-color="#16224d"/>
			<stop offset="1" stop-color="#172861"/>
		</linearGradient>
		<linearGradient id="g8" x2="1" gradientUnits="userSpaceOnUse" gradientTransform="matrix(-2.441,45.661,-31.067,-1.661,205.669,71.736)">
			<stop offset="0" stop-color="#586400"/>
			<stop offset="1" stop-color="#ffffff"/>
		</linearGradient>
		<linearGradient id="g9" x2="1" gradientUnits="userSpaceOnUse" gradientTransform="matrix(-0.211,4.123,-1.682,-0.086,158.678,221.574)">
			<stop offset="0" stop-color="#16224d"/>
			<stop offset="1" stop-color="#172861"/>
		</linearGradient>
		<linearGradient id="g10" x2="1" gradientUnits="userSpaceOnUse" gradientTransform="matrix(-6.127,119.853,-66.938,-3.422,95.584,180.343)">
			<stop offset="0" stop-color="#16224d"/>
			<stop offset="1" stop-color="#172861"/>
		</linearGradient>
	</defs>
	<style>
		.s0 { fill: url(#g1) } 
		.s1 { fill: url(#g2) } 
		.s2 { opacity: .5;mix-blend-mode: multiply;fill: url(#g3) } 
		.s3 { opacity: .5;mix-blend-mode: multiply;fill: url(#g4) } 
		.s4 { fill: url(#g5) } 
		.s5 { fill: url(#g6) } 
		.s6 { opacity: .5;mix-blend-mode: multiply;fill: url(#g7) } 
		.s7 { opacity: .5;mix-blend-mode: multiply;fill: url(#g8) } 
		.s8 { opacity: .5;mix-blend-mode: multiply;fill: url(#g9) } 
		.s9 { opacity: .5;mix-blend-mode: multiply;fill: url(#g10) } 
	</style>
	<g id="_Artboards_">
	</g>
	<g id="layer1">
		<g id="&lt;Group&gt;">
			<g id="&lt;Group&gt;">
				<g id="&lt;Clip Group&gt;">
					<g id="&lt;Group&gt;">
						<g id="&lt;Group&gt;">
							<g id="&lt;Group&gt;">
								<path id="&lt;Path&gt;" class="s0" d="m259.5 231.2l18.2-1.8 10.7-1 0.2-0.1h0.9l24.9-2.5-7.8-27.5-6.6-23.1-4.9-17.4 6.2 16.9 0.2 0.5 8.5-3.6-12.2-36.5-8.1-24.4 2.9-3.4q0 0 0 0c-0.6-1-8.4-15.5-11.6-33.3q-0.2-0.9-0.3-1.8l-12.9 43.6-1 3.5 1 2.4q0.7-3.2 1.5-6c2.6-9.3 5.1-14.4 5.2-14.6l-2.9 14.2-0.1 0.2-2.1 10.3 0.1 0.4-2.5 17.1-3.5 23.8-0.1 0.7 1.7 2.2-0.6 6.4-0.6 6.6-0.8 8.5-3.3 36.1z"/>
							</g>
							<path id="&lt;Path&gt;" class="s1" d="m320.1 210.8l-0.1 9.9-0.7-1.4-17-41.7z"/>
							<path id="&lt;Path&gt;" class="s2" d="m255.2 230.7l60.5 2.4-15.7-57.9-25.4 2.2 0.2-31-6.9 24.7-4.4-4-0.1 0.7 1.7 2.2-0.6 6.4-0.6 6.6z"/>
							<path id="&lt;Path&gt;" class="s3" d="m297.8 135.1l-8.1-24.4 2.9-3.4-5.6 5-15.4 3-0.1 0.2-2.1 10.3 0.1 0.4-2.5 17.1z"/>
						</g>
						<path id="&lt;Path&gt;" class="s4" d="m204 255.2l33.2-3.3 2.9 0.7v-36.5l1.4 10.5 3.4 24.7 0.2 1.3 54.5 3.2q-1.5-2.1-3.2-4.9c-2.7-4.6-5.7-10.6-8.8-17.3q-0.6-1.1-1.1-2.2c-5.7-12.5-11.8-27.2-17-40.6-2.1-5.3-14.5-38.2-14.5-38.2l4.6-2.2-0.7-3.2-10.5-49.9-4.1-19.4 4.7 1.7-3.3-25.4-8.2-63.6v-0.4l-0.2-1.4-0.2-1.2-0.5 3.6-14.2 95.8-0.1 0.6q0 0 0-0.1l2.9-1.1-6 28.9-8.4 40.7 2.9 4.8 9.5-36.7-5.7 37.9-8.9 58.4-3.7 24v0.1z"/>
						<path id="&lt;Path&gt;" class="s5" d="m128.5 246.9l16.7-2.9 16-2.8-2.2-20.4-0.7-6.4-0.1-0.8 3 8.3 0.6 2-0.1-1.1-4-24.3-2.5-15.4-0.6-4 1.8-1.1-11.5-77.1-0.2 1-8.3 67.4v0.6l2.4-1.1 0.6-2.4-1.6 7.7-4.9 22.6-3.8 18 3-1.1 3-12.7-3.1 21.8z"/>
						<path id="&lt;Path&gt;" class="s6" d="m208.6 220.4l75.1 13.5c-2.1-5.3-28.7-81.3-28.7-81.3l4.6-2.2-21.3 6.5-4.2-18.9-1.5 25.4-15.1-1.4z"/>
						<path id="&lt;Path&gt;" class="s7" d="m219.2 115.3l29.2-18-4.1-19.4-9-3.2-12.9 12.3-0.1 0.6q0 0 0-0.1l2.9-1.1z"/>
						<path id="&lt;Path&gt;" class="s8" d="m161.2 221.9l0.6 2-0.1-1.1z"/>
						<path id="&lt;Path&gt;" class="s9" d="m128.5 246.9l16.7-2.9 16-2.8-2.2-20.4-0.7-6.4-9.3-24.6-1.1 29.6-15.9 3.3z"/>
					</g>
				</g>
			</g>
		</g>
	</g>
</svg>