<svg version="1.2" xmlns="http://www.w3.org/2000/svg" viewBox="0 0 952 428" width="952" height="428">
	<title>2203_w026_n002_1490b_p1_1490-ai</title>
	<defs>
		<linearGradient id="g1" x2="1" gradientUnits="userSpaceOnUse" gradientTransform="matrix(-0.429,-11.488,53.018,-1.982,107.665,180.908)">
			<stop offset=".229" stop-color="#000000"/>
			<stop offset="1" stop-color="#c1d2ed"/>
		</linearGradient>
		<linearGradient id="g2" x2="1" gradientUnits="userSpaceOnUse" gradientTransform="matrix(-176.773,0,0,-5.609,487.066,274.617)">
			<stop offset="0" stop-color="#f1f1ff"/>
			<stop offset=".992" stop-color="#eaeffd"/>
		</linearGradient>
		<linearGradient id="g3" x2="1" gradientUnits="userSpaceOnUse" gradientTransform="matrix(-270.485,-2.191,.961,-118.619,178.941,96.151)">
			<stop offset="0" stop-color="#221e38"/>
			<stop offset="1" stop-color="#231a42"/>
		</linearGradient>
		<linearGradient id="g4" x2="1" gradientUnits="userSpaceOnUse" gradientTransform="matrix(-697.592,-5.65,.408,-50.402,1021.671,232.279)">
			<stop offset="0" stop-color="#221e38"/>
			<stop offset="1" stop-color="#231a42"/>
		</linearGradient>
		<linearGradient id="g5" x2="1" gradientUnits="userSpaceOnUse" gradientTransform="matrix(-523.236,-4.238,.764,-94.282,452.784,185.601)">
			<stop offset="0" stop-color="#221e38"/>
			<stop offset="1" stop-color="#231a42"/>
		</linearGradient>
		<linearGradient id="g6" x2="1" gradientUnits="userSpaceOnUse" gradientTransform="matrix(-115.792,-4.774,1.973,-47.85,124.407,213.844)">
			<stop offset="0" stop-color="#221e38"/>
			<stop offset="1" stop-color="#231a42"/>
		</linearGradient>
		<linearGradient id="g7" x2="1" gradientUnits="userSpaceOnUse" gradientTransform="matrix(-182.997,-7.546,2.403,-58.269,137.36,227.126)">
			<stop offset="0" stop-color="#221e38"/>
			<stop offset="1" stop-color="#231a42"/>
		</linearGradient>
		<linearGradient id="g8" x2="1" gradientUnits="userSpaceOnUse" gradientTransform="matrix(-61.223,-0.496,.132,-16.266,527.058,261.458)">
			<stop offset="0" stop-color="#221e38"/>
			<stop offset="1" stop-color="#231a42"/>
		</linearGradient>
		<linearGradient id="g9" x2="1" gradientUnits="userSpaceOnUse" gradientTransform="matrix(-22.177,-0.18,.122,-15.121,523.106,267.056)">
			<stop offset="0" stop-color="#221e38"/>
			<stop offset="1" stop-color="#231a42"/>
		</linearGradient>
		<linearGradient id="g10" x2="1" gradientUnits="userSpaceOnUse" gradientTransform="matrix(-72.602,-0.588,.139,-17.148,852.979,238.99)">
			<stop offset="0" stop-color="#221e38"/>
			<stop offset="1" stop-color="#231a42"/>
		</linearGradient>
		<linearGradient id="g11" x2="1" gradientUnits="userSpaceOnUse" gradientTransform="matrix(-183.817,-1.489,.126,-15.614,858.289,228.885)">
			<stop offset="0" stop-color="#221e38"/>
			<stop offset="1" stop-color="#231a42"/>
		</linearGradient>
		<linearGradient id="g12" x2="1" gradientUnits="userSpaceOnUse" gradientTransform="matrix(-24.925,56.979,-19.578,-8.564,138.195,221.054)">
			<stop offset="0" stop-color="#221e38"/>
			<stop offset="1" stop-color="#231a42"/>
		</linearGradient>
		<linearGradient id="g13" x2="1" gradientUnits="userSpaceOnUse" gradientTransform="matrix(-17.696,40.453,-31.323,-13.702,361.042,252.447)">
			<stop offset="0" stop-color="#221e38"/>
			<stop offset="1" stop-color="#231a42"/>
		</linearGradient>
		<linearGradient id="g14" x2="1" gradientUnits="userSpaceOnUse" gradientTransform="matrix(0,-35.205,845.979,0,442.475,311.511)">
			<stop offset="0" stop-color="#077fa9"/>
			<stop offset="1" stop-color="#331189"/>
		</linearGradient>
		<linearGradient id="g15" x2="1" gradientUnits="userSpaceOnUse" gradientTransform="matrix(1.118,-79.732,12.181,.171,271.339,373.446)">
			<stop offset="0" stop-color="#ffffff"/>
			<stop offset="1" stop-color="#5a70b8"/>
		</linearGradient>
		<linearGradient id="g16" x2="1" gradientUnits="userSpaceOnUse" gradientTransform="matrix(-1.334,54.676,-838.139,-20.443,751.32,273.988)">
			<stop offset="0" stop-color="#295ed1"/>
			<stop offset="1" stop-color="#ffffff"/>
		</linearGradient>
		<linearGradient id="g17" x2="1" gradientUnits="userSpaceOnUse" gradientTransform="matrix(3.336,197.93,-1303.305,21.967,238.559,195.678)">
			<stop offset="0" stop-color="#295ed1"/>
			<stop offset="1" stop-color="#ffffff"/>
		</linearGradient>
	</defs>
	<style>
		.s0 { mix-blend-mode: screen;fill: url(#g1) } 
		.s1 { fill: url(#g2) } 
		.s2 { fill: url(#g3) } 
		.s3 { mix-blend-mode: multiply;fill: #6b5f9e } 
		.s4 { fill: #152f69 } 
		.s5 { fill: url(#g4) } 
		.s6 { fill: #4138a2 } 
		.s7 { fill: url(#g5) } 
		.s8 { fill: url(#g6) } 
		.s9 { fill: url(#g7) } 
		.s10 { fill: url(#g8) } 
		.s11 { fill: url(#g9) } 
		.s12 { fill: url(#g10) } 
		.s13 { fill: url(#g11) } 
		.s14 { fill: url(#g12) } 
		.s15 { fill: url(#g13) } 
		.s16 { opacity: .3;mix-blend-mode: multiply;fill: #c24672 } 
		.s17 { fill: url(#g14) } 
		.s18 { opacity: .1;mix-blend-mode: multiply;fill: url(#g15) } 
		.s19 { mix-blend-mode: multiply;fill: url(#g16) } 
		.s20 { mix-blend-mode: multiply;fill: url(#g17) } 
		.s21 { opacity: .5;mix-blend-mode: screen;fill: #6a6fff } 
	</style>
	<g id="_Artboards_">
	</g>
	<g id="layer1">
		<g id="&lt;Group&gt;">
			<g id="&lt;Group&gt;">
				<g id="&lt;Clip Group&gt;">
					<g id="&lt;Group&gt;">
						<path id="&lt;Path&gt;" class="s0" d="m81.2 165.3c0.8 0.3 20.4 6.1 50.2 9-33.1-5.4-49.5-8.8-50.2-9z"/>
						<path id="&lt;Path&gt;" class="s1" d="m400.4 274.6c20.9 3.4 65.3 4.2 86.7 3.4-40.3 1.6-137.8 4.3-176.8-0.5z"/>
						<g id="&lt;Group&gt;">
							<g id="&lt;Group&gt;">
								<g id="&lt;Group&gt;">
									<g id="&lt;Group&gt;">
										<path id="&lt;Path&gt;" class="s2" d="m-91.5 94l8 56.9c16.3 8.8 43.3 23.3 59.6 32.1 12.8 2 187.7 29.5 201.9 31.8-10.9-13.2-44.3-53.5-55.7-67.3-0.4-0.1-213.3-53.4-213.8-53.5z"/>
										<path id="&lt;Path&gt;" class="s3" d="m130 204.8l-15.5-28.1-4.3-0.9-8.6-19.1-123.8-25.3-49.9 15.6 8.1 24.3z"/>
										<g id="&lt;Group&gt;">
											<path id="&lt;Path&gt;" class="s4" d="m-108.5 80.6l12.7 148.8c107.8-2.2 222.4-4.5 330.3-6.6-44.6-14.4-93.8-30.1-138.3-44.5l18.3-1.6-4.5-1.2-57.5-16.5-109.9-7.3v-5.5l95.5 10-39.2-8.6-7.1-8.7 109.8 17.8-17.6-12.3c-10.9-3.2-108.1-30.5-115.9-33 0.9 0.2 155 37 155.8 37.1-21.5-16.7-152.1-57.1-179.5-66.8 0 0-52.9-1.1-52.9-1.1z"/>
										</g>
									</g>
									<g id="&lt;Group&gt;">
										<g id="&lt;Group&gt;">
											<path id="&lt;Path&gt;" class="s5" d="m323.9 248c80.1 11.2 179.4 12.5 267.4 17.7 97.5 4.4 299.2 16.4 384.1 16.6 1.2-14.5 44.2-22.9 46.1-24.8 0-0.2-168.5-20.9-168.5-21 0 0-5.4-2.8-5.4-2.8-2.7 0-11.6-0.2-14.1-0.3-53.2-1.2-125.5-2.9-179.3-4.1-0.2 1.2-0.8 3.6-1.1 4.7l-105.7-0.9-4.7 9.5c-63.1 1.6-156.5 3.9-218.8 5.4z"/>
											<path id="&lt;Compound Path&gt;" fill-rule="evenodd" class="s3" d="m461.3 246.9c0-0.1 0-0.7 0-0.8l88.7-1-7.3-2.5 25.6 5.2 0.2-9.1 104.3-3.6c0.1 1 0.3 7.8 0.3 8.9l3.1 1c0-3.2 0-8.6 0-11.8 18.4-0.6 68.5-2.3 86-2.9 3.6 0.9 11.2 2.8 14.8 3.7 3.9 0.9 17.1 4.3 20.6 5.1 0 0 53 13.2 53 13.2 2 0.1 170.3 4.9 172.3 5.3l-49.7 28.2c-81.6 7.8-143.6-10.1-225.3-5.2-0.4-4-1.2-10.3-1.6-14.2-40.1-1.6-234.8-9.2-278.8-10.9l-8.7-8.8zm153.4 2.1l24.5 8.2-0.4-7.5-13.3-11.3-11.4 10.4c0 0 0.6 0.2 0.6 0.2z"/>
											<g id="&lt;Group&gt;">
												<path id="&lt;Path&gt;" class="s6" d="m625.5 238.4l13.3 11.3c97.9 3.1 285.4 7.3 382.7 7.8-0.3 0.1-20.1-31.8-20.2-31.8l-347.1 3.6c13.9 5.9 98.1 3.7 114.3 4.1-33.2 1.2-110.9 3.9-143 5z"/>
												<path id="&lt;Path&gt;" class="s4" d="m547.4 233.1l21.1 5.6 104.3-3.6c-10.4-5.6-111.8-1.5-125.4-2z"/>
												<path id="&lt;Path&gt;" class="s4" d="m639.1 257.1l-24.4-8.1-155.9-2.3 8.7 8.8 278.8 10.9-5.7-2.9z"/>
												<path id="&lt;Path&gt;" class="s6" d="m550 245.1l-7.3-2.5-141.4 3.7z"/>
											</g>
											<path id="&lt;Path&gt;" class="s3" d="m571.2 259.6l12.8 15.7 21.2 1.9-20.6-17.1z"/>
											<path id="&lt;Path&gt;" class="s3" d="m467.5 255.5l0.2 6.8 109.4 9.8-7.9-12.6z"/>
										</g>
										<path id="&lt;Path&gt;" class="s4" d="m-48.7 265.4c318.4 5.9 672 13.5 991.5 18.6-5.7-2.2-18.8-7.1-24.7-9.3-2-0.1-5.9-0.2-7.8-0.3-0.6 0-163.5-5.3-164-5.3l0.3 3.7c-76.3-3.9-204.1-10.3-279-14.1 0 0-13.2-0.7-13.2-0.7-4.1-2.3-15.9-9.5-20.1-11.9l-0.9-0.6c-0.2-0.1-0.9-0.5-1-0.6 0 0-9-5.3-9-5.3l-188.9-24.6-2.6-7c-43.8-7.4-104.8-17.7-148.1-25-12.8-0.2-93-1.1-103.9-1.2-7.2 21.2-21.4 62.6-28.6 83.6z"/>
										<path id="&lt;Path&gt;" class="s7" d="m-71.2 275.6c162.7 1.1 339.9 2.2 502.5 3.2 3.7-3.8 17-17.6 20.9-21.5-8-5-20.8-12.8-28.8-17.7-10.5 1.6-47.6 7.7-57.3 9.3-38.3-4.3-124.1-13.9-161.8-18.1 9.5-5 20.8-10.9 30.2-15.8l-2.6-7c-43.1 3.5-93.4 7.6-136.5 11.1-4.1-1.3-115.8-37.5-115.5-37.3-12.9 23.8-38.1 70-51.1 93.8z"/>
										<path id="&lt;Path&gt;" class="s3" d="m199 277.4c66.3 0.4 163.6 1 229.8 1.4-17.2-8.4-45.3-21.6-62.7-29.9-38.2-4.3-124.1-13.9-161.8-18.1-0.5 5.1-4.8 42.5-5.3 46.6z"/>
										<path id="&lt;Path&gt;" class="s3" d="m-71.2 275.6c17.2 0.2 140.1 0.9 160.3 1.1 2-18.7 4.2-38.9 6.3-57.6-4.7-1.5-115-37.2-115.5-37.3-12.9 23.8-38.1 70-51.1 93.8z"/>
										<path id="&lt;Path&gt;" class="s4" d="m354.2 251.5l-73-7.8-40 3c8.6 0.2 108.1 8.8 113 4.8z"/>
										<path id="&lt;Path&gt;" class="s4" d="m377.9 261.9l-72.3-8.5-5-0.5 53.1 10.3z"/>
										<path id="&lt;Path&gt;" class="s6" d="m182.1 214.5l-87.6 12.9c-4.1-0.3-83.7-22.7-85.9-18.3l114.5 35.4 90.1-28.2z"/>
										<path id="&lt;Path&gt;" class="s6" d="m165.7 236.8l-23.8 10.4 51.8-9.2z"/>
										<path id="&lt;Path&gt;" class="s8" d="m123.1 244.5l-1 17.2-97.1-43.3-14.8 0.7-1.6-10z"/>
										<path id="&lt;Path&gt;" class="s9" d="m134.2 270.9l1 8.4-183.2-1.5 26.6-57.2z"/>
										<path id="&lt;Path&gt;" class="s3" d="m182.1 214.5l31.1 1.8c-0.3 2.5-0.8 8.2-1 10.6 6.6-3.5 15.8-8.4 22.3-11.9l-2.6-7c-32.7 2.7-74.4 6.1-107.1 8.6-0.1 0.2-2.9 6.6-3.1 6.9z"/>
										<path id="&lt;Path&gt;" class="s3" d="m123.1 244.5l-1 17.2-40.6-17.6 0.5-12.2 15.1 5-1.2 15.6 1.5 0.7 1.7-16 9.3 2.3 0.1 18.6 11.6 5z"/>
										<path id="&lt;Path&gt;" class="s6" d="m141.5 270.5c-1.3-0.3-114.3-51.9-114.3-51.9l-48.6 2 155.6 50.3z"/>
										<path id="&lt;Path&gt;" class="s3" d="m-46.4 281.6c37.9-0.9 126-2.8 163.2-3.6-15.3-1.9-40.1-4.9-55.6-6.7l-1.6 4.4-44.1-0.1c1.4-5.9 7.1-30.3 8.6-36.7-0.5 1-12.2 27.4-12.7 28.4l-1.9-0.7c0-0.1 13.3-30.6 13.3-30.7-5-1.5-29.2-9-33.7-10.4-7.3 11.5-25.9 39.5-35.5 56.1z"/>
										<path id="&lt;Path&gt;" class="s3" d="m193.7 238l-9 39.7-41.9 1.6-0.9-32.1z"/>
										<path id="&lt;Path&gt;" class="s6" d="m184.1 243.8c-1.7 0.4-37.8 2.3-38 4.5l24.7 3.7z"/>
										<path id="&lt;Path&gt;" class="s10" d="m527.1 261.5l-59.8 15.7-1.6-0.4 58.7-15.4z"/>
										<path id="&lt;Path&gt;" class="s11" d="m500.9 268.4l11 7.8c2.8 2.3 7.7 4.8 11.1 6-1.1-1.5-4.3-4.1-6.3-5.9q0 0 0 0c-4.7-4.1-9.8-8.4-11-9.4-0.2 0.1-4.6 1.4-4.8 1.5z"/>
										<path id="&lt;Path&gt;" class="s12" d="m852.8 256l-72.4-17.6c8.8 2.1 64.5 19.6 72.4 17.6z"/>
										<path id="&lt;Path&gt;" class="s13" d="m674.3 243c7.4-0.5 144.2-3.3 183.9-7.1l-21-7.2c-1.7 0.2-5.8 0.5-7.5 0.7-27.1 2.3-126.6 11.1-155.4 13.6z"/>
										<path id="&lt;Path&gt;" class="s3" d="m832.2 229.2l-2.5 0.2 7.5 8.1q2.2-0.2 4.2-0.3z"/>
										<path id="&lt;Path&gt;" class="s3" d="m790.3 232.8l3 6.5c11.2-0.4 21.7-0.8 31-1.2l-9.7-7.4z"/>
										<path id="&lt;Path&gt;" class="s14" d="m170.9 252l-1.9 29.3 5.9-4.2 8.9-33.1z"/>
										<path id="&lt;Path&gt;" class="s15" d="m353.7 263.2c0.4 5.3 1 13.9 1.3 19.2l13.3-0.7c2.5-5 7.1-14.7 9.6-19.8z"/>
										<path id="&lt;Path&gt;" class="s3" d="m-50.4 280.9c2.5 0 17.7 0.3 20.6 0.3 0 0 277.2 4.4 277.2 4.4-1.1-6.6-6.1-38.2-6.2-38.9l39-3.3 34.5 3.3 3.7-2.7c-26.8-3.2-86.7-10.3-113-13.4l6.8-3.7c0.2-2.3 0.7-8.1 1-10.6-15.6 4.9-73.5 23-90.1 28.2-32.8-10.2-81.2-25.1-114.5-35.4l1.6 10-31.6 1.5c-7.1 14.9-21.9 45.5-29 60.3z"/>
										<path id="&lt;Path&gt;" class="s3" d="m409.7 270.5c6 2 15.6 6.9 21.7 8.2 133.2 2 388.5 5.3 521.3 7.3-10.1-2.9 14.1 5.4 4 2.5 0 0 14.9-11.9 14.9-11.9l48.6-18.7c-1.3-0.1-169.6-2.4-170.8-2.5-0.2 0.4-6.4 16.9-6.5 17.3l-2.1-0.3c0-0.2-1-17.3-1-17.5-0.3 0-200.7-5.2-201-5.2l0.3 7.5c0.9 0.1 46.3 6.8 47.1 6.9l-98.6-3.5 3.7 3.8c-23.2-1.1-113.3-5.3-136.9-6.4l-5.1-3.3c-6.7 2.6-32.5 13-39.6 15.8z"/>
									</g>
									<path id="&lt;Path&gt;" class="s3" d="m49.4 162.1l-39.3-3.8v1.2l54.4 8.5z"/>
									<path id="&lt;Path&gt;" class="s3" d="m36.5 185.2l-10.4-4.7-17.3-2.5 5.8 3.5z"/>
									<path id="&lt;Path&gt;" class="s3" d="m33.2 164.3l-64.7-9.8 76.3 13.4z"/>
									<path id="&lt;Path&gt;" class="s3" d="m120.7 203.8l-116.6-17.7 6.8 2.4 120.4 21.8-8.1-9.4z"/>
									<path id="&lt;Path&gt;" class="s4" d="m123.2 200.9c-4.4-0.3-118.3-17-119.1-14.8l116.6 17.7z"/>
									<path id="&lt;Path&gt;" class="s3" d="m113.9 176.9l-15.6 1.2-43.1-17.1c1.5-2.1 55.9 15.6 58.7 15.9z"/>
									<path id="&lt;Path&gt;" class="s3" d="m238.8 232l79.9-0.5-76.4-4.1z"/>
									<path id="&lt;Path&gt;" class="s3" d="m342.9 238.6l-42.8-6.1-1.1-0.1 53.2 9.7z"/>
								</g>
							</g>
							<path id="&lt;Path&gt;" class="s16" d="m926.5 257.8l-79.4-17.2c4.8-2.2 118.9 18.9 122.4 17.5-13.6-3.1-123.2-22.4-132.3-29.4l188.6 21.4 3.8-4.4-62.5-15-54.5-0.7v-1.9l100.9 1.4 7.6 26.5z"/>
						</g>
						<g id="&lt;Group&gt;">
							<path id="&lt;Path&gt;" class="s17" d="m-69.8 273.4v42.6h1022.8v-42.6z"/>
							<path id="&lt;Path&gt;" class="s18" d="m-69.8 273.4c-1 13.9 3.7 87.1 4.5 102.5l7.1-1.6 4-100.9z"/>
						</g>
						<path id="&lt;Path&gt;" class="s19" d="m548 273.7l94.6 7.5 7 9.2 306.9 9.7-2.2-26.7z"/>
						<path id="&lt;Path&gt;" class="s20" d="m592.6 273.1l-148 5.4-38.1 14.6-167.8 11.3-1.6 4.9-96.4 10.5-29.2 55.1-205.8-5.6 24.5-95.9z"/>
						<path id="&lt;Path&gt;" class="s21" d="m-108.5 279.2l915.8-0.6-915.8 4.2z"/>
						<path id="&lt;Path&gt;" class="s21" d="m1014.9 293.1c-5.5 1.6-657.8-5.4-657.8-5.4l653.6 14.1z"/>
					</g>
				</g>
			</g>
		</g>
	</g>
</svg>