<svg version="1.2" xmlns="http://www.w3.org/2000/svg" viewBox="0 0 952 428" width="952" height="428">
	<title>2203_w026_n002_1490b_p1_1490-ai</title>
	<style>
		.s0 { fill: #6a6fff } 
	</style>
	<g id="_Artboards_">
	</g>
	<g id="layer1">
		<g id="&lt;Group&gt;">
			<g id="&lt;Group&gt;">
				<g id="&lt;Clip Group&gt;">
					<g id="&lt;Group&gt;">
						<path id="&lt;Path&gt;" class="s0" d="m665.8 275.6c0 0.7 0.5 1.2 1.2 1.2 0.6 0 1.1-0.5 1.1-1.2 0-0.6-0.5-1.1-1.1-1.1-0.7 0-1.2 0.5-1.2 1.1z"/>
						<path id="&lt;Path&gt;" class="s0" d="m693.9 276.9c0 0.6 0.5 1.1 1.1 1.1 0.6 0 1.1-0.5 1.1-1.1 0-0.7-0.5-1.2-1.1-1.2-0.6 0-1.1 0.5-1.1 1.2z"/>
						<path id="&lt;Path&gt;" class="s0" d="m653.7 281.5c0 0.6 0.5 1.1 1.2 1.1 0.6 0 1.1-0.5 1.1-1.1 0-0.7-0.5-1.2-1.1-1.2-0.7 0-1.2 0.5-1.2 1.2z"/>
						<path id="&lt;Path&gt;" class="s0" d="m672.2 279.2c0 0.6 0.5 1.1 1.1 1.1 0.6 0 1.2-0.5 1.2-1.1 0-0.7-0.6-1.2-1.2-1.2-0.6 0-1.1 0.5-1.1 1.2z"/>
						<path id="&lt;Path&gt;" class="s0" d="m728.1 276.9c0 0.6 0.6 1.1 1.2 1.1 0.6 0 1.1-0.5 1.1-1.1 0-0.7-0.5-1.2-1.1-1.2-0.6 0-1.2 0.5-1.2 1.2z"/>
						<path id="&lt;Path&gt;" class="s0" d="m714.4 278.3c0 0.6 0.5 1.2 1.2 1.2 0.6 0 1.1-0.6 1.1-1.2 0-0.6-0.5-1.1-1.1-1.1-0.7 0-1.2 0.5-1.2 1.1z"/>
						<path id="&lt;Path&gt;" class="s0" d="m738.4 275.6c0 0.7 0.5 1.2 1.1 1.2 0.7 0 1.2-0.5 1.2-1.2 0-0.6-0.5-1.1-1.2-1.1-0.6 0-1.1 0.5-1.1 1.1z"/>
						<path id="&lt;Path&gt;" class="s0" d="m712.1 280.3c0 0.6 0.5 1.2 1.2 1.2 0.6 0 1.1-0.6 1.1-1.2 0-0.6-0.5-1.1-1.1-1.1-0.7 0-1.2 0.5-1.2 1.1z"/>
						<path id="&lt;Path&gt;" class="s0" d="m783.6 275.6c0 0.7 0.5 1.2 1.2 1.2 0.6 0 1.1-0.5 1.1-1.2 0-0.6-0.5-1.1-1.1-1.1-0.7 0-1.2 0.5-1.2 1.1z"/>
						<path id="&lt;Path&gt;" class="s0" d="m778.4 278.3c0 0.6 0.5 1.2 1.1 1.2 0.7 0 1.2-0.6 1.2-1.2 0-0.6-0.5-1.1-1.2-1.1-0.6 0-1.1 0.5-1.1 1.1z"/>
						<path id="&lt;Path&gt;" class="s0" d="m771.2 275.7c0 0.7 0.5 1.2 1.1 1.2 0.7 0 1.2-0.5 1.2-1.2 0-0.6-0.5-1.1-1.2-1.1-0.6 0-1.1 0.5-1.1 1.1z"/>
						<path id="&lt;Path&gt;" class="s0" d="m749.3 278.3c0 0.6 0.5 1.2 1.2 1.2 0.6 0 1.1-0.6 1.1-1.2 0-0.6-0.5-1.1-1.1-1.1-0.7 0-1.2 0.5-1.2 1.1z"/>
						<path id="&lt;Path&gt;" class="s0" d="m682.6 275.6c0 0.7 0.5 1.2 1.1 1.2 0.6 0 1.2-0.5 1.2-1.2 0-0.6-0.6-1.1-1.2-1.1-0.6 0-1.1 0.5-1.1 1.1z"/>
						<path id="&lt;Path&gt;" class="s0" d="m688.1 279.5c0 0.6 0.5 1.1 1.2 1.1 0.6 0 1.1-0.5 1.1-1.1 0-0.7-0.5-1.2-1.1-1.2-0.7 0-1.2 0.5-1.2 1.2z"/>
						<path id="&lt;Path&gt;" class="s0" d="m736.1 279.2c0 0.6 0.5 1.1 1.1 1.1 0.7 0 1.2-0.5 1.2-1.1 0-0.7-0.5-1.2-1.2-1.2-0.6 0-1.1 0.5-1.1 1.2z"/>
						<path id="&lt;Path&gt;" class="s0" d="m633.9 281.7c0 0.7 0.5 1.2 1.1 1.2 0.7 0 1.2-0.5 1.2-1.2 0-0.6-0.5-1.1-1.2-1.1-0.6 0-1.1 0.5-1.1 1.1z"/>
						<path id="&lt;Path&gt;" class="s0" d="m637.8 279.2c0 0.6 0.5 1.1 1.2 1.1 0.6 0 1.1-0.5 1.1-1.1 0-0.7-0.5-1.2-1.1-1.2-0.7 0-1.2 0.5-1.2 1.2z"/>
						<path id="&lt;Path&gt;" class="s0" d="m630.6 276.8c0 0.6 0.5 1.1 1.2 1.1 0.6 0 1.1-0.5 1.1-1.1 0-0.7-0.5-1.2-1.1-1.2-0.7 0-1.2 0.5-1.2 1.2z"/>
						<path id="&lt;Path&gt;" class="s0" d="m618.4 278c0 0.6 0.5 1.2 1.1 1.2 0.6 0 1.2-0.6 1.2-1.2 0-0.6-0.6-1.1-1.2-1.1-0.6 0-1.1 0.5-1.1 1.1z"/>
						<path id="&lt;Path&gt;" class="s0" d="m615.1 281.2c-0.4 0.5-0.2 1.2 0.4 1.5 0.5 0.4 1.2 0.2 1.6-0.4 0.3-0.5 0.1-1.2-0.5-1.5-0.5-0.4-1.2-0.2-1.5 0.4z"/>
						<path id="&lt;Path&gt;" class="s0" d="m608.1 276.4c-0.2-0.6-0.9-0.8-1.5-0.6-0.6 0.3-0.8 1-0.5 1.6 0.2 0.5 0.9 0.8 1.5 0.5 0.6-0.3 0.8-1 0.5-1.5z"/>
						<path id="&lt;Path&gt;" class="s0" d="m472.6 277.3c0 0.6 0.5 1.1 1.1 1.1 0.7 0 1.2-0.5 1.2-1.1 0-0.7-0.5-1.2-1.2-1.2-0.6 0-1.1 0.5-1.1 1.2z"/>
						<path id="&lt;Path&gt;" class="s0" d="m500.6 278.5c0 0.6 0.5 1.1 1.2 1.1 0.6 0 1.1-0.5 1.1-1.1 0-0.6-0.5-1.2-1.1-1.2-0.7 0-1.2 0.6-1.2 1.2z"/>
						<path id="&lt;Path&gt;" class="s0" d="m460.5 283.1c0 0.6 0.5 1.1 1.2 1.1 0.6 0 1.1-0.5 1.1-1.1 0-0.7-0.5-1.2-1.1-1.2-0.7 0-1.2 0.5-1.2 1.2z"/>
						<path id="&lt;Path&gt;" class="s0" d="m478.9 280.8c0 0.6 0.5 1.1 1.2 1.1 0.6 0 1.1-0.5 1.1-1.1 0-0.7-0.5-1.2-1.1-1.2-0.7 0-1.2 0.5-1.2 1.2z"/>
						<path id="&lt;Path&gt;" class="s0" d="m534.9 278.5c0 0.6 0.5 1.1 1.2 1.1 0.6 0 1.1-0.5 1.1-1.1 0-0.6-0.5-1.2-1.1-1.2-0.7 0-1.2 0.6-1.2 1.2z"/>
						<path id="&lt;Path&gt;" class="s0" d="m521.2 279.9c0 0.7 0.5 1.2 1.1 1.2 0.7 0 1.2-0.5 1.2-1.2 0-0.6-0.5-1.1-1.2-1.1-0.6 0-1.1 0.5-1.1 1.1z"/>
						<path id="&lt;Path&gt;" class="s0" d="m545.1 277.3c0 0.6 0.6 1.1 1.2 1.1 0.6 0 1.1-0.5 1.1-1.1 0-0.7-0.5-1.2-1.1-1.2-0.6 0-1.2 0.5-1.2 1.2z"/>
						<path id="&lt;Path&gt;" class="s0" d="m518.9 281.9c0 0.7 0.5 1.2 1.1 1.2 0.7 0 1.2-0.5 1.2-1.2 0-0.6-0.5-1.1-1.2-1.1-0.6 0-1.1 0.5-1.1 1.1z"/>
						<path id="&lt;Path&gt;" class="s0" d="m590.4 277.3c0 0.6 0.5 1.1 1.1 1.1 0.7 0 1.2-0.5 1.2-1.1 0-0.7-0.5-1.2-1.2-1.2-0.6 0-1.1 0.5-1.1 1.2z"/>
						<path id="&lt;Path&gt;" class="s0" d="m585.2 279.9c0 0.7 0.5 1.2 1.1 1.2 0.7 0 1.2-0.5 1.2-1.2 0-0.6-0.5-1.1-1.2-1.1-0.6 0-1.1 0.5-1.1 1.1z"/>
						<path id="&lt;Path&gt;" class="s0" d="m577.9 277.3c0 0.7 0.6 1.2 1.2 1.2 0.6 0 1.1-0.5 1.1-1.2 0-0.6-0.5-1.1-1.1-1.1-0.6 0-1.2 0.5-1.2 1.1z"/>
						<path id="&lt;Path&gt;" class="s0" d="m556.1 279.9c0 0.7 0.5 1.2 1.1 1.2 0.7 0 1.2-0.5 1.2-1.2 0-0.6-0.5-1.1-1.2-1.1-0.6 0-1.1 0.5-1.1 1.1z"/>
						<path id="&lt;Path&gt;" class="s0" d="m489.3 277.3c0 0.6 0.5 1.1 1.2 1.1 0.6 0 1.1-0.5 1.1-1.1 0-0.7-0.5-1.2-1.1-1.2-0.7 0-1.2 0.5-1.2 1.2z"/>
						<path id="&lt;Path&gt;" class="s0" d="m494.9 281.1c0 0.6 0.5 1.1 1.1 1.1 0.7 0 1.2-0.5 1.2-1.1 0-0.7-0.5-1.2-1.2-1.2-0.6 0-1.1 0.5-1.1 1.2z"/>
						<path id="&lt;Path&gt;" class="s0" d="m542.9 280.8c0 0.6 0.5 1.1 1.1 1.1 0.6 0 1.1-0.5 1.1-1.1 0-0.7-0.5-1.2-1.1-1.2-0.6 0-1.1 0.5-1.1 1.2z"/>
						<path id="&lt;Path&gt;" class="s0" d="m440.7 283.4c0 0.6 0.5 1.1 1.1 1.1 0.6 0 1.2-0.5 1.2-1.1 0-0.7-0.6-1.2-1.2-1.2-0.6 0-1.1 0.5-1.1 1.2z"/>
						<path id="&lt;Path&gt;" class="s0" d="m444.6 280.8c0 0.6 0.5 1.1 1.2 1.1 0.6 0 1.1-0.5 1.1-1.1 0-0.7-0.5-1.2-1.1-1.2-0.7 0-1.2 0.5-1.2 1.2z"/>
						<path id="&lt;Path&gt;" class="s0" d="m437.4 278.4c0 0.6 0.5 1.1 1.1 1.1 0.7 0 1.2-0.5 1.2-1.1 0-0.6-0.5-1.1-1.2-1.1-0.6 0-1.1 0.5-1.1 1.1z"/>
						<path id="&lt;Path&gt;" class="s0" d="m425.1 279.6c0 0.7 0.5 1.2 1.2 1.2 0.6 0 1.1-0.5 1.1-1.2 0-0.6-0.5-1.1-1.1-1.1-0.7 0-1.2 0.5-1.2 1.1z"/>
						<path id="&lt;Path&gt;" class="s0" d="m421.8 282.8c-0.3 0.5-0.1 1.2 0.5 1.6 0.5 0.3 1.2 0.1 1.5-0.5 0.3-0.5 0.1-1.2-0.4-1.5-0.5-0.3-1.2-0.2-1.6 0.4z"/>
						<path id="&lt;Path&gt;" class="s0" d="m414.9 278c-0.3-0.6-1-0.8-1.5-0.5-0.6 0.2-0.8 0.9-0.6 1.5 0.3 0.6 1 0.8 1.6 0.5 0.5-0.3 0.8-0.9 0.5-1.5z"/>
						<path id="&lt;Path&gt;" class="s0" d="m280.1 277.3c0 0.6 0.6 1.1 1.2 1.1 0.6 0 1.1-0.5 1.1-1.1 0-0.7-0.5-1.2-1.1-1.2-0.6 0-1.2 0.5-1.2 1.2z"/>
						<path id="&lt;Path&gt;" class="s0" d="m308.2 278.5c0 0.6 0.5 1.1 1.1 1.1 0.7 0 1.2-0.5 1.2-1.1 0-0.6-0.5-1.2-1.2-1.2-0.6 0-1.1 0.6-1.1 1.2z"/>
						<path id="&lt;Path&gt;" class="s0" d="m268.1 283.1c0 0.6 0.5 1.1 1.1 1.1 0.6 0 1.2-0.5 1.2-1.1 0-0.7-0.6-1.2-1.2-1.2-0.6 0-1.1 0.5-1.1 1.2z"/>
						<path id="&lt;Path&gt;" class="s0" d="m286.5 280.8c0 0.6 0.5 1.1 1.1 1.1 0.7 0 1.2-0.5 1.2-1.1 0-0.7-0.5-1.2-1.2-1.2-0.6 0-1.1 0.5-1.1 1.2z"/>
						<path id="&lt;Path&gt;" class="s0" d="m342.5 278.5c0 0.6 0.5 1.1 1.1 1.1 0.7 0 1.2-0.5 1.2-1.1 0-0.6-0.5-1.2-1.2-1.2-0.6 0-1.1 0.6-1.1 1.2z"/>
						<path id="&lt;Path&gt;" class="s0" d="m328.8 279.9c0 0.7 0.5 1.2 1.1 1.2 0.6 0 1.1-0.5 1.1-1.2 0-0.6-0.5-1.1-1.1-1.1-0.6 0-1.1 0.5-1.1 1.1z"/>
						<path id="&lt;Path&gt;" class="s0" d="m352.7 277.3c0 0.6 0.5 1.1 1.2 1.1 0.6 0 1.1-0.5 1.1-1.1 0-0.7-0.5-1.2-1.1-1.2-0.7 0-1.2 0.5-1.2 1.2z"/>
						<path id="&lt;Path&gt;" class="s0" d="m326.5 281.9c0 0.7 0.5 1.2 1.1 1.2 0.6 0 1.2-0.5 1.2-1.2 0-0.6-0.6-1.1-1.2-1.1-0.6 0-1.1 0.5-1.1 1.1z"/>
						<path id="&lt;Path&gt;" class="s0" d="m398 277.3c0 0.6 0.5 1.1 1.1 1.1 0.6 0 1.2-0.5 1.2-1.1 0-0.7-0.6-1.2-1.2-1.2-0.6 0-1.1 0.5-1.1 1.2z"/>
						<path id="&lt;Path&gt;" class="s0" d="m392.7 279.9c0 0.7 0.5 1.2 1.2 1.2 0.6 0 1.1-0.5 1.1-1.2 0-0.6-0.5-1.1-1.1-1.1-0.7 0-1.2 0.5-1.2 1.1z"/>
						<path id="&lt;Path&gt;" class="s0" d="m385.5 277.3c0 0.7 0.5 1.2 1.2 1.2 0.6 0 1.1-0.5 1.1-1.2 0-0.6-0.5-1.1-1.1-1.1-0.7 0-1.2 0.5-1.2 1.1z"/>
						<path id="&lt;Path&gt;" class="s0" d="m363.6 279.9c0 0.7 0.6 1.2 1.2 1.2 0.6 0 1.1-0.5 1.1-1.2 0-0.6-0.5-1.1-1.1-1.1-0.6 0-1.2 0.5-1.2 1.1z"/>
						<path id="&lt;Path&gt;" class="s0" d="m296.9 277.3c0 0.6 0.5 1.1 1.1 1.1 0.7 0 1.2-0.5 1.2-1.1 0-0.7-0.5-1.2-1.2-1.2-0.6 0-1.1 0.5-1.1 1.2z"/>
						<path id="&lt;Path&gt;" class="s0" d="m302.5 281.1c0 0.6 0.5 1.1 1.1 1.1 0.6 0 1.1-0.5 1.1-1.1 0-0.7-0.5-1.2-1.1-1.2-0.6 0-1.1 0.5-1.1 1.2z"/>
						<path id="&lt;Path&gt;" class="s0" d="m350.4 280.8c0 0.6 0.5 1.1 1.2 1.1 0.6 0 1.1-0.5 1.1-1.1 0-0.7-0.5-1.2-1.1-1.2-0.7 0-1.2 0.5-1.2 1.2z"/>
						<path id="&lt;Path&gt;" class="s0" d="m248.2 283.4c0 0.6 0.5 1.1 1.2 1.1 0.6 0 1.1-0.5 1.1-1.1 0-0.7-0.5-1.2-1.1-1.2-0.7 0-1.2 0.5-1.2 1.2z"/>
						<path id="&lt;Path&gt;" class="s0" d="m252.2 280.8c0 0.6 0.5 1.1 1.1 1.1 0.6 0 1.2-0.5 1.2-1.1 0-0.7-0.6-1.2-1.2-1.2-0.6 0-1.1 0.5-1.1 1.2z"/>
						<path id="&lt;Path&gt;" class="s0" d="m244.9 278.4c0 0.6 0.6 1.1 1.2 1.1 0.6 0 1.1-0.5 1.1-1.1 0-0.6-0.5-1.1-1.1-1.1-0.6 0-1.2 0.5-1.2 1.1z"/>
						<path id="&lt;Path&gt;" class="s0" d="m232.7 279.6c0 0.7 0.5 1.2 1.1 1.2 0.7 0 1.2-0.5 1.2-1.2 0-0.6-0.5-1.1-1.2-1.1-0.6 0-1.1 0.5-1.1 1.1z"/>
						<path id="&lt;Path&gt;" class="s0" d="m229.4 282.8c-0.3 0.5-0.1 1.2 0.4 1.6 0.6 0.3 1.3 0.1 1.6-0.5 0.3-0.5 0.1-1.2-0.4-1.5-0.6-0.3-1.3-0.2-1.6 0.4z"/>
						<path id="&lt;Path&gt;" class="s0" d="m222.5 278c-0.3-0.6-1-0.8-1.6-0.5-0.5 0.2-0.8 0.9-0.5 1.5 0.3 0.6 1 0.8 1.5 0.5 0.6-0.3 0.8-0.9 0.6-1.5z"/>
					</g>
				</g>
			</g>
		</g>
	</g>
</svg>