<svg version="1.2" xmlns="http://www.w3.org/2000/svg" viewBox="0 0 952 428" width="952" height="428">
	<title>2203_w026_n002_1490b_p1_1490-ai</title>
	<style>
		.s0 { fill: #180b38 } 
		.s1 { fill: #000010 } 
		.s2 { fill: #09000f } 
		.s3 { fill: #0a0906 } 
	</style>
	<g id="_Artboards_">
	</g>
	<g id="layer1">
		<g id="&lt;Group&gt;">
			<g id="&lt;Group&gt;">
				<g id="&lt;Clip Group&gt;">
					<g id="&lt;Group&gt;">
						<path id="&lt;Path&gt;" class="s0" d="m76.9 392l-70.7 14 16-55.9 48.8-57.3-48.8 47.9 2.8-10.8 54.4-65.6-51.1 37.7 51.1-43.7-51.1 34.5 43.4-148.7 23.3-13.8-15.6 5 27-97.3 12.2 139.5-19-5.1 23.4 31.7v146l-34.4-33.4 39.6 45.6 6.6 42.2z"/>
						<g id="&lt;Group&gt;">
							<path id="&lt;Path&gt;" class="s1" d="m71.7 443.3l19.8-195.6 11.5-144.5-23 340.1z"/>
							<path id="&lt;Path&gt;" class="s2" d="m95 204.1l-14.5 4.4-1.1 2.1 15.5-5z"/>
						</g>
						<path id="&lt;Path&gt;" class="s3" d="m6.2 406l70.7-14 2.7-26.8-66.5 16.5z"/>
						<path id="&lt;Path&gt;" class="s3" d="m15.6 373.1l66.2-29.6-65.2 24.2z"/>
						<path id="&lt;Path&gt;" class="s3" d="m123 350.1l-34.4-33.4 34.4 24z"/>
						<path id="&lt;Path&gt;" class="s3" d="m37.1 264.2l56.7-25.1-56.2 21.1z"/>
						<path id="&lt;Path&gt;" class="s3" d="m118.6 177.5l-19-5.1 18.2-3.5z"/>
						<path id="&lt;Path&gt;" class="s3" d="m56.3 196.8l41.2-11.6 0.7-21.7-35.8 12.3z"/>
						<path id="&lt;Path&gt;" class="s3" d="m79.4 135.3l20.2-5-16.4-4.2z"/>
						<path id="&lt;Path&gt;" class="s3" d="m123 309.7l-29.2-70.6 30 55.6z"/>
					</g>
				</g>
			</g>
		</g>
	</g>
</svg>