<svg version="1.2" xmlns="http://www.w3.org/2000/svg" viewBox="0 0 952 428" width="952" height="428">
	<title>2203_w026_n002_1490b_p1_1490-ai</title>
	<defs>
		<linearGradient id="g1" x2="1" gradientUnits="userSpaceOnUse" gradientTransform="matrix(1.002,-0.261,.065,.25,733.123,87.854)">
			<stop offset="0" stop-color="#ffffff"/>
			<stop offset="1" stop-color="#870050"/>
		</linearGradient>
	</defs>
	<style>
		.s0 { mix-blend-mode: multiply;fill: #420163 } 
		.s1 { opacity: .8;mix-blend-mode: multiply;fill: #b57445 } 
		.s2 { opacity: .3;mix-blend-mode: multiply;fill: url(#g1) } 
	</style>
	<g id="_Artboards_">
	</g>
	<g id="layer1">
		<g id="&lt;Group&gt;">
			<g id="&lt;Group&gt;">
				<g id="&lt;Clip Group&gt;">
					<g id="&lt;Group&gt;" style="mix-blend-mode: multiply">
						<g id="&lt;Group&gt;">
							<path id="&lt;Path&gt;" class="s0" d="m932.5 331.5l-16.3-2.1c0 0 7.5-2.2 10.7-2.2 3.2 0 5.6 4.3 5.6 4.3z"/>
							<path id="&lt;Path&gt;" class="s0" d="m843.4 335.2c-6.9 0-14.9-2.5-14.9-2.5l17.2 0.6-4.9 0.7z"/>
							<path id="&lt;Path&gt;" class="s0" d="m925.6 338.3c-3.4 0.7-6.8-0.6-6.8-0.6z"/>
							<path id="&lt;Path&gt;" class="s0" d="m868.5 330.8c-2.3 0.7-18.3-0.6-18.3-0.6l17.2-0.6z"/>
							<path id="&lt;Path&gt;" class="s0" d="m946.2 333.3c10.3 0 20.7-2.7 20.7-2.7l-26.2 1.7z"/>
							<path id="&lt;Path&gt;" class="s0" d="m882.2 332.7c-2.3 0.6-3.4 0-3.4 0z"/>
							<path id="&lt;Path&gt;" class="s0" d="m827.4 327.7c-1.1 1.3-6.8 0-6.8 0z"/>
							<path id="&lt;Path&gt;" class="s0" d="m827.4 329c-2.3 0.6-13.7-0.7-13.7-0.7h22.8z"/>
						</g>
						<g id="&lt;Group&gt;">
							<path id="&lt;Path&gt;" class="s0" d="m857.2 358l-16.3-2.2c0 0 7.5-2.1 10.7-2.1 3.2 0 5.6 4.3 5.6 4.3z"/>
							<path id="&lt;Path&gt;" class="s0" d="m724.6 380.3c-6.9 0-14.9-2.5-14.9-2.5l17.2 0.6-4.9 0.7z"/>
							<path id="&lt;Path&gt;" class="s0" d="m850.3 364.8c-3.4 0.6-6.8-0.6-6.8-0.6z"/>
							<path id="&lt;Path&gt;" class="s0" d="m749.7 375.9c-2.3 0.6-18.3-0.6-18.3-0.6l17.2-0.7z"/>
							<path id="&lt;Path&gt;" class="s0" d="m827.4 378.4c10.2 0 20.7-2.7 20.7-2.7l-26.2 1.6z"/>
							<path id="&lt;Path&gt;" class="s0" d="m763.4 377.8c-2.3 0.6-3.4 0-3.4 0z"/>
							<path id="&lt;Path&gt;" class="s0" d="m708.6 372.8c-1.2 1.2-6.9 0-6.9 0z"/>
							<path id="&lt;Path&gt;" class="s0" d="m708.6 374c-2.3 0.6-13.7-0.6-13.7-0.6h22.8z"/>
						</g>
						<g id="&lt;Group&gt;">
							<path id="&lt;Path&gt;" class="s0" d="m639.6 373.9l-16.3-2.1c0 0 7.6-2.2 10.7-2.2 3.2 0 5.6 4.3 5.6 4.3z"/>
							<path id="&lt;Path&gt;" class="s0" d="m469.1 398.9c-6.9 0-14.9-2.5-14.9-2.5l17.2 0.6-4.9 0.7z"/>
							<path id="&lt;Path&gt;" class="s0" d="m632.7 380.7c-3.4 0.7-6.8-0.6-6.8-0.6z"/>
							<path id="&lt;Path&gt;" class="s0" d="m494.2 394.5c-2.3 0.6-18.3-0.6-18.3-0.6l17.2-0.7z"/>
							<path id="&lt;Path&gt;" class="s0" d="m571.9 397c10.3 0 20.7-2.8 20.7-2.8l-26.2 1.7z"/>
							<path id="&lt;Path&gt;" class="s0" d="m507.9 396.4c-2.3 0.6-3.4 0-3.4 0z"/>
							<path id="&lt;Path&gt;" class="s0" d="m453.1 391.4c-1.2 1.2-6.9 0-6.9 0z"/>
							<path id="&lt;Path&gt;" class="s0" d="m453.1 392.6c-2.3 0.6-13.7-0.6-13.7-0.6h22.8z"/>
						</g>
						<g id="&lt;Group&gt;">
							<path id="&lt;Path&gt;" class="s0" d="m557.4 393.1l26.9 3.5c0 0-12.5 3.6-17.8 3.6-5.2 0-9.1-7.1-9.1-7.1z"/>
							<path id="&lt;Path&gt;" class="s0" d="m560.2 360.3c6.8 0 14.8 2.5 14.8 2.5l-17.1-0.6 4.9-0.7z"/>
							<path id="&lt;Path&gt;" class="s0" d="m639.4 370.4c3.4-0.6 6.8 0.7 6.8 0.7z"/>
							<path id="&lt;Path&gt;" class="s0" d="m637.5 375.3c2.3-0.6 18.3 0.6 18.3 0.6l-17.1 0.6z"/>
							<path id="&lt;Path&gt;" class="s0" d="m618.8 375.5c-10.3 0-20.7 2.7-20.7 2.7l26.2-1.7z"/>
							<path id="&lt;Path&gt;" class="s0" d="m682.8 376.1c2.3-0.6 3.4 0 3.4 0z"/>
							<path id="&lt;Path&gt;" class="s0" d="m737.6 381.1c1.1-1.3 6.9 0 6.9 0z"/>
							<path id="&lt;Path&gt;" class="s0" d="m737.6 379.8c2.3-0.6 13.7 0.7 13.7 0.7h-22.8z"/>
						</g>
						<g id="&lt;Group&gt;">
							<path id="&lt;Path&gt;" class="s0" d="m870.3 358.9l-12.4 1.6c0 0 5.8 1.7 8.2 1.7 2.4 0 4.2-3.3 4.2-3.3z"/>
							<path id="&lt;Path&gt;" class="s0" d="m794.7 349.9c-3.2 0-6.9 1.2-6.9 1.2l7.9-0.3-2.2-0.3z"/>
							<path id="&lt;Path&gt;" class="s0" d="m790.4 353.8c-1.6-0.3-3.1 0.3-3.1 0.3z"/>
							<path id="&lt;Path&gt;" class="s0" d="m791.3 356c-1.1-0.3-8.4 0.3-8.4 0.3l7.9 0.3z"/>
							<path id="&lt;Path&gt;" class="s0" d="m799.9 356.1c4.7 0 9.5 1.2 9.5 1.2l-12-0.7z"/>
							<path id="&lt;Path&gt;" class="s0" d="m812.5 351.1c-1-0.3-1.5 0-1.5 0z"/>
							<path id="&lt;Path&gt;" class="s0" d="m787.3 353.4c-0.5-0.6-3.2 0-3.2 0z"/>
							<path id="&lt;Path&gt;" class="s0" d="m787.3 352.8c-1.1-0.3-6.3 0.3-6.3 0.3h10.5z"/>
						</g>
					</g>
					<path id="&lt;Path&gt;" class="s1" d="m521.6 358.7h0.1q0.3 0 0.3 0z"/>
					<path id="&lt;Path&gt;" class="s2" d="m732.8 87.5l-0.1 0.1q1-0.6 2.1-1.1z"/>
				</g>
			</g>
		</g>
	</g>
</svg>