<svg version="1.2" xmlns="http://www.w3.org/2000/svg" viewBox="0 0 952 428" width="952" height="428">
	<title>2203_w026_n002_1490b_p1_1490-ai</title>
	<defs>
		<linearGradient id="g1" x2="1" gradientUnits="userSpaceOnUse" gradientTransform="matrix(-9.073,502.386,-1082.061,-19.541,442.61,-1.125)">
			<stop offset="0" stop-color="#3434c6"/>
			<stop offset=".641" stop-color="#a7ccdd"/>
		</linearGradient>
		<radialGradient id="g2" cx="0" cy="0" r="1" gradientUnits="userSpaceOnUse" gradientTransform="matrix(5.291,0,0,5.291,389.422,8.452)">
			<stop offset="0" stop-color="#364efd"/>
			<stop offset="1" stop-color="#000000"/>
		</radialGradient>
		<radialGradient id="g3" cx="0" cy="0" r="1" gradientUnits="userSpaceOnUse" gradientTransform="matrix(5.291,0,0,5.291,602.512,57.584)">
			<stop offset="0" stop-color="#364efd"/>
			<stop offset="1" stop-color="#000000"/>
		</radialGradient>
	</defs>
	<style>
		.s0 { fill: url(#g1) } 
		.s1 { fill: #00ffff } 
		.s2 { fill: #0d96e1 } 
		.s3 { opacity: .5;fill: #00ffff } 
		.s4 { mix-blend-mode: screen;fill: url(#g2) } 
		.s5 { mix-blend-mode: screen;fill: url(#g3) } 
	</style>
	<g id="_Artboards_">
	</g>
	<g id="layer1">
		<g id="&lt;Group&gt;">
			<g id="&lt;Group&gt;">
				<g id="&lt;Clip Group&gt;">
					<path id="&lt;Path&gt;" class="s0" d="m-0.5 428.5h952.2v-428.5h-952.2z"/>
					<g id="&lt;Group&gt;">
						<path id="&lt;Path&gt;" class="s1" d="m626.4 141.9c0 0.4-0.2 0.6-0.5 0.6-0.4 0-0.6-0.2-0.6-0.6 0-0.3 0.2-0.6 0.6-0.6 0.3 0 0.5 0.3 0.5 0.6z"/>
						<path id="&lt;Path&gt;" class="s1" d="m914.5 46.9c0 0.3-0.2 0.5-0.6 0.5-0.3 0-0.6-0.2-0.6-0.5 0-0.4 0.3-0.6 0.6-0.6 0.4 0 0.6 0.2 0.6 0.6z"/>
						<path id="&lt;Path&gt;" class="s2" d="m444.5 248.6c0 0.3-0.3 0.6-0.6 0.6-0.3 0-0.6-0.3-0.6-0.6 0-0.3 0.3-0.6 0.6-0.6 0.3 0 0.6 0.3 0.6 0.6z"/>
						<path id="&lt;Path&gt;" class="s1" d="m514.5 29.1c0.2-0.1 0.4 0.1 0.4 0.3 0 0.2-0.1 0.4-0.3 0.4-0.2 0-0.4-0.1-0.4-0.3-0.1-0.2 0.1-0.4 0.3-0.4z"/>
						<path id="&lt;Path&gt;" class="s1" d="m603.7 57.1c0 0.7-0.5 1.2-1.1 1.2-0.7 0-1.2-0.5-1.2-1.2 0-0.6 0.5-1.1 1.2-1.1 0.6 0 1.1 0.5 1.1 1.1z"/>
						<path id="&lt;Path&gt;" class="s1" d="m560.9 13.2c0 0.3-0.3 0.6-0.6 0.6-0.3 0-0.6-0.3-0.6-0.6 0-0.4 0.3-0.6 0.6-0.6 0.3 0 0.6 0.2 0.6 0.6z"/>
						<path id="&lt;Path&gt;" class="s1" d="m698.8 40.1c0 0.3-0.2 0.6-0.6 0.6-0.3 0-0.5-0.3-0.5-0.6 0-0.4 0.2-0.6 0.5-0.6 0.4 0 0.6 0.2 0.6 0.6z"/>
						<path id="&lt;Path&gt;" class="s1" d="m603.2 8.2c0 0.4-0.2 0.6-0.6 0.6-0.3 0-0.6-0.2-0.6-0.6 0-0.3 0.3-0.5 0.6-0.5 0.4 0 0.6 0.2 0.6 0.5z"/>
						<path id="&lt;Path&gt;" class="s1" d="m484.6 254.3c0 0.4-0.3 0.6-0.6 0.6-0.4 0-0.6-0.2-0.6-0.6 0-0.3 0.2-0.6 0.6-0.6 0.3 0 0.6 0.3 0.6 0.6z"/>
						<path id="&lt;Path&gt;" class="s1" d="m833 17.8c0 0.3-0.3 0.6-0.6 0.6-0.4 0-0.6-0.3-0.6-0.6 0-0.4 0.2-0.6 0.6-0.6 0.3 0 0.6 0.2 0.6 0.6z"/>
						<path id="&lt;Path&gt;" class="s1" d="m596.6 59.3c0 0.3-0.3 0.6-0.6 0.6-0.3 0-0.6-0.3-0.6-0.6 0-0.3 0.3-0.6 0.6-0.6 0.3 0 0.6 0.3 0.6 0.6z"/>
						<path id="&lt;Path&gt;" class="s1" d="m497 36.9c0 0.2-0.2 0.4-0.4 0.4-0.2 0-0.3-0.2-0.3-0.4 0-0.2 0.1-0.4 0.3-0.4 0.2 0 0.4 0.2 0.4 0.4z"/>
						<path id="&lt;Path&gt;" class="s2" d="m554.1 261.6c0 0.4-0.3 0.6-0.6 0.6-0.3 0-0.6-0.2-0.6-0.6 0-0.3 0.3-0.5 0.6-0.5 0.3 0 0.6 0.2 0.6 0.5z"/>
						<path id="&lt;Path&gt;" class="s1" d="m480.6 56.6c0.3 0 0.6 0.2 0.7 0.5 0.1 0.3-0.2 0.6-0.5 0.7-0.3 0.1-0.6-0.2-0.7-0.5 0-0.3 0.2-0.6 0.5-0.7z"/>
						<path id="&lt;Path&gt;" class="s1" d="m699.4 81.4c0 0.4-0.3 0.6-0.6 0.6-0.4 0-0.6-0.2-0.6-0.6 0-0.3 0.2-0.6 0.6-0.6 0.3 0 0.6 0.3 0.6 0.6z"/>
						<path id="&lt;Path&gt;" class="s1" d="m565 32.7c0 0.2-0.2 0.3-0.4 0.3-0.2 0-0.3-0.1-0.3-0.3 0-0.2 0.1-0.4 0.3-0.4 0.2 0 0.4 0.2 0.4 0.4z"/>
						<path id="&lt;Path&gt;" class="s1" d="m447.9 14.3c0 0.4-0.3 0.6-0.6 0.6-0.3 0-0.6-0.2-0.6-0.6 0-0.3 0.3-0.5 0.6-0.5 0.3 0 0.6 0.2 0.6 0.5z"/>
						<path id="&lt;Path&gt;" class="s1" d="m706.8 154c0 0.3-0.3 0.6-0.6 0.6-0.3 0-0.6-0.3-0.6-0.6 0-0.3 0.3-0.6 0.6-0.6 0.3 0 0.6 0.3 0.6 0.6z"/>
						<path id="&lt;Path&gt;" class="s1" d="m500.8 31.1c0.2 0 0.4 0.1 0.5 0.3 0 0.3-0.1 0.5-0.3 0.5-0.2 0-0.4-0.1-0.5-0.3 0-0.2 0.1-0.4 0.3-0.5z"/>
						<path id="&lt;Path&gt;" class="s1" d="m900.1 49c0 0.4-0.2 0.6-0.6 0.6-0.3 0-0.5-0.2-0.5-0.6 0-0.3 0.2-0.6 0.5-0.6 0.4 0 0.6 0.3 0.6 0.6z"/>
						<path id="&lt;Path&gt;" class="s1" d="m613.9 83.5c0 0.3-0.2 0.6-0.5 0.6-0.4 0-0.6-0.3-0.6-0.6 0-0.3 0.2-0.6 0.6-0.6 0.3 0 0.5 0.3 0.5 0.6z"/>
						<path id="&lt;Path&gt;" class="s1" d="m534 16.9c0 0.3-0.2 0.5-0.5 0.5-0.3 0-0.5-0.2-0.5-0.5 0-0.3 0.2-0.5 0.5-0.5 0.3 0 0.5 0.2 0.5 0.5z"/>
						<path id="&lt;Path&gt;" class="s1" d="m559.3 46.5c0 0.3-0.2 0.6-0.6 0.6-0.3 0-0.5-0.3-0.5-0.6 0-0.3 0.2-0.6 0.5-0.6 0.4 0 0.6 0.3 0.6 0.6z"/>
						<path id="&lt;Path&gt;" class="s1" d="m948.7 55.8c0.2 0.1 0.3 0.5 0.2 0.8-0.2 0.3-0.6 0.4-0.8 0.2-0.3-0.2-0.4-0.5-0.2-0.8 0.1-0.3 0.5-0.4 0.8-0.2z"/>
						<path id="&lt;Path&gt;" class="s1" d="m458.5 180.6c0 0.4-0.3 0.6-0.6 0.6-0.3 0-0.6-0.2-0.6-0.6 0-0.3 0.3-0.6 0.6-0.6 0.3 0 0.6 0.3 0.6 0.6z"/>
						<path id="&lt;Path&gt;" class="s1" d="m736.8 63.4c0 0.8-0.6 1.4-1.4 1.4-0.7 0-1.3-0.6-1.3-1.4 0-0.7 0.6-1.3 1.3-1.3 0.8 0 1.4 0.6 1.4 1.3z"/>
						<path id="&lt;Path&gt;" class="s1" d="m618.9 47c0 0.3-0.2 0.6-0.6 0.6-0.3 0-0.5-0.3-0.5-0.6 0-0.3 0.2-0.6 0.5-0.6 0.4 0 0.6 0.3 0.6 0.6z"/>
						<path id="&lt;Path&gt;" class="s1" d="m673 12.8c0.4-0.2 0.9 0.1 1 0.6 0.2 0.4-0.1 0.9-0.6 1-0.4 0.1-0.9-0.1-1-0.6-0.2-0.4 0.1-0.9 0.6-1z"/>
						<path id="&lt;Path&gt;" class="s1" d="m751.9 123.5c0.4-0.1 0.9 0.1 1 0.6 0.1 0.5-0.1 0.9-0.6 1.1-0.5 0.1-0.9-0.2-1.1-0.7-0.1-0.4 0.2-0.9 0.7-1z"/>
						<path id="&lt;Path&gt;" class="s1" d="m874.3 66.1c0.4-0.2 0.9 0.1 1 0.6 0.2 0.4-0.1 0.9-0.6 1-0.4 0.2-0.9-0.1-1-0.6-0.2-0.4 0.1-0.9 0.6-1z"/>
						<path id="&lt;Path&gt;" class="s1" d="m779.2 4.2c0.5-0.1 1 0.2 1.1 0.6 0.1 0.5-0.2 1-0.6 1.1-0.5 0.1-1-0.2-1.1-0.6-0.1-0.5 0.2-1 0.6-1.1z"/>
						<path id="&lt;Path&gt;" class="s1" d="m658.4 25.2c0.5-0.1 0.9 0.1 1 0.6 0.2 0.5-0.1 0.9-0.6 1.1-0.4 0.1-0.9-0.2-1-0.7-0.1-0.4 0.1-0.9 0.6-1z"/>
						<path id="&lt;Path&gt;" class="s1" d="m190.4 54.2c0 0.4-0.2 0.6-0.6 0.6-0.3 0-0.5-0.2-0.5-0.6 0-0.3 0.2-0.5 0.5-0.5 0.4 0 0.6 0.2 0.6 0.5z"/>
						<path id="&lt;Path&gt;" class="s1" d="m121 45.1c0 0.3-0.3 0.6-0.6 0.6-0.3 0-0.6-0.3-0.6-0.6 0-0.3 0.3-0.6 0.6-0.6 0.3 0 0.6 0.3 0.6 0.6z"/>
						<path id="&lt;Path&gt;" class="s1" d="m390.3 8c0 0.5-0.4 0.9-0.9 0.9-0.5 0-0.9-0.4-0.9-0.9 0-0.5 0.4-0.9 0.9-0.9 0.5 0 0.9 0.4 0.9 0.9z"/>
						<path id="&lt;Path&gt;" class="s1" d="m191.3 26.1c0 0.2-0.2 0.4-0.4 0.4-0.2 0-0.4-0.2-0.4-0.4 0-0.3 0.2-0.5 0.4-0.5 0.2 0 0.4 0.2 0.4 0.5z"/>
						<path id="&lt;Path&gt;" class="s1" d="m388.7 68.1c0 0.2-0.2 0.4-0.5 0.4-0.2 0-0.4-0.2-0.4-0.4 0-0.2 0.2-0.4 0.4-0.4 0.3 0 0.5 0.2 0.5 0.4z"/>
						<path id="&lt;Path&gt;" class="s1" d="m359.7 10.1c0 0.3-0.3 0.6-0.6 0.6-0.3 0-0.6-0.3-0.6-0.6 0-0.3 0.3-0.6 0.6-0.6 0.3 0 0.6 0.3 0.6 0.6z"/>
						<path id="&lt;Path&gt;" class="s1" d="m110.2 77.8c0 0.4-0.3 0.6-0.6 0.6-0.4 0-0.6-0.2-0.6-0.6 0-0.3 0.2-0.6 0.6-0.6 0.3 0 0.6 0.3 0.6 0.6z"/>
						<path id="&lt;Path&gt;" class="s1" d="m97.7 17c0 0.3-0.2 0.6-0.6 0.6-0.3 0-0.5-0.3-0.5-0.6 0-0.3 0.2-0.6 0.5-0.6 0.4 0 0.6 0.3 0.6 0.6z"/>
						<path id="&lt;Path&gt;" class="s1" d="m316.5 13.4c0 0.3-0.2 0.5-0.5 0.5-0.2 0-0.4-0.2-0.4-0.5 0-0.2 0.2-0.4 0.4-0.4 0.3 0 0.5 0.2 0.5 0.4z"/>
						<path id="&lt;Path&gt;" class="s1" d="m153.9 103.5c0 0.3-0.3 0.6-0.6 0.6-0.3 0-0.6-0.3-0.6-0.6 0-0.3 0.3-0.6 0.6-0.6 0.3 0 0.6 0.3 0.6 0.6z"/>
						<path id="&lt;Path&gt;" class="s1" d="m201.2 86.1c0 0.4-0.3 0.6-0.6 0.6-0.3 0-0.6-0.2-0.6-0.6 0-0.3 0.3-0.5 0.6-0.5 0.3 0 0.6 0.2 0.6 0.5z"/>
						<path id="&lt;Path&gt;" class="s1" d="m302.8 25.8c0 0.3-0.2 0.5-0.5 0.5-0.2 0-0.4-0.2-0.4-0.5 0-0.2 0.2-0.4 0.4-0.4 0.3 0 0.5 0.2 0.5 0.4z"/>
						<path id="&lt;Path&gt;" class="s1" d="m21.6 64.7c0 0.3-0.2 0.5-0.5 0.5-0.4 0-0.6-0.2-0.6-0.5 0-0.4 0.2-0.6 0.6-0.6 0.3 0 0.5 0.2 0.5 0.6z"/>
						<path id="&lt;Path&gt;" class="s1" d="m72.2 92.2c0 0.3-0.2 0.6-0.6 0.6-0.3 0-0.5-0.3-0.5-0.6 0-0.4 0.2-0.6 0.5-0.6 0.4 0 0.6 0.2 0.6 0.6z"/>
						<path id="&lt;Path&gt;" class="s1" d="m48.8 77c0 0.3-0.2 0.6-0.6 0.6-0.3 0-0.6-0.3-0.6-0.6 0-0.4 0.3-0.6 0.6-0.6 0.4 0 0.6 0.2 0.6 0.6z"/>
						<path id="&lt;Path&gt;" class="s1" d="m21.5-18c0 0.4-0.3 0.6-0.6 0.6-0.3 0-0.6-0.2-0.6-0.6 0-0.3 0.3-0.6 0.6-0.6 0.3 0 0.6 0.3 0.6 0.6z"/>
						<path id="&lt;Path&gt;" class="s1" d="m-18.3 34.8c0 0.3-0.3 0.5-0.6 0.5-0.3 0-0.6-0.2-0.6-0.5 0-0.4 0.3-0.6 0.6-0.6 0.3 0 0.6 0.2 0.6 0.6z"/>
						<path id="&lt;Path&gt;" class="s1" d="m405.7 14c0 0.1-0.1 0.2-0.3 0.2-0.1 0-0.2-0.1-0.2-0.2 0-0.2 0.1-0.3 0.2-0.3 0.2 0 0.3 0.1 0.3 0.3z"/>
						<path id="&lt;Path&gt;" class="s1" d="m233.1 10.6c0 0.3-0.2 0.6-0.6 0.6-0.3 0-0.5-0.3-0.5-0.6 0-0.3 0.2-0.6 0.5-0.6 0.4 0 0.6 0.3 0.6 0.6z"/>
						<path id="&lt;Path&gt;" class="s1" d="m167.7 71.8c0 0.3-0.2 0.6-0.6 0.6-0.3 0-0.6-0.3-0.6-0.6 0-0.3 0.3-0.6 0.6-0.6 0.4 0 0.6 0.3 0.6 0.6z"/>
						<path id="&lt;Path&gt;" class="s1" d="m921.5 62.3c0 0.3-0.3 0.6-0.6 0.6-0.3 0-0.6-0.3-0.6-0.6 0-0.3 0.3-0.6 0.6-0.6 0.3 0 0.6 0.3 0.6 0.6z"/>
						<path id="&lt;Path&gt;" class="s1" d="m941.6 56.1c-0.1-0.2 0-0.4 0.2-0.4 0.1-0.1 0.3 0 0.4 0.1 0 0.2 0 0.4-0.2 0.4-0.2 0.1-0.3 0-0.4-0.1z"/>
						<path id="&lt;Path&gt;" class="s1" d="m395.1-6c0 0.3-0.3 0.6-0.6 0.6-0.4 0-0.6-0.3-0.6-0.6 0-0.3 0.2-0.6 0.6-0.6 0.3 0 0.6 0.3 0.6 0.6z"/>
						<path id="&lt;Path&gt;" class="s1" d="m963.2 36.7c0.3 0.2 0.4 0.6 0.2 0.8-0.2 0.3-0.5 0.4-0.8 0.2-0.3-0.1-0.4-0.5-0.2-0.8 0.2-0.3 0.5-0.3 0.8-0.2z"/>
						<path id="&lt;Path&gt;" class="s1" d="m394.2 73.4c0 0.3-0.2 0.5-0.4 0.5-0.3 0-0.5-0.2-0.5-0.5 0-0.2 0.2-0.4 0.5-0.4 0.2 0 0.4 0.2 0.4 0.4z"/>
						<path id="&lt;Path&gt;" class="s1" d="m525.6 10c0 0.4-0.4 0.8-0.8 0.8-0.4 0-0.8-0.4-0.8-0.8 0-0.5 0.4-0.8 0.8-0.8 0.4 0 0.8 0.3 0.8 0.8z"/>
						<path id="&lt;Path&gt;" class="s1" d="m864.3 8.1c0.3 0.2 0.4 0.6 0.2 0.8-0.1 0.3-0.5 0.4-0.8 0.2-0.2-0.1-0.3-0.5-0.2-0.8 0.2-0.3 0.6-0.3 0.8-0.2z"/>
						<path id="&lt;Path&gt;" class="s1" d="m400.1 144.8c0 0.4-0.3 0.6-0.6 0.6-0.4 0-0.6-0.2-0.6-0.6 0-0.3 0.2-0.5 0.6-0.5 0.3 0 0.6 0.2 0.6 0.5z"/>
						<path id="&lt;Path&gt;" class="s1" d="m571.5 28c0 0.3-0.2 0.5-0.6 0.5-0.3 0-0.6-0.2-0.6-0.5 0-0.4 0.3-0.6 0.6-0.6 0.4 0 0.6 0.2 0.6 0.6z"/>
						<path id="&lt;Path&gt;" class="s1" d="m439.3 66c0 0.4-0.2 0.6-0.5 0.6-0.4 0-0.6-0.2-0.6-0.6 0-0.3 0.2-0.6 0.6-0.6 0.3 0 0.5 0.3 0.5 0.6z"/>
						<path id="&lt;Path&gt;" class="s1" d="m916.2 41.3c0.2 0.2 0.3 0.5 0.2 0.8-0.2 0.3-0.6 0.4-0.8 0.2-0.3-0.1-0.4-0.5-0.2-0.8 0.1-0.3 0.5-0.4 0.8-0.2z"/>
						<path id="&lt;Path&gt;" class="s1" d="m783.9 76.9c0.3 0.2 0.4 0.5 0.3 0.8-0.1 0.3-0.4 0.5-0.7 0.3-0.3-0.1-0.5-0.4-0.4-0.7 0.1-0.3 0.5-0.5 0.8-0.4z"/>
						<path id="&lt;Path&gt;" class="s1" d="m767.2 70.6c0 0.3-0.2 0.5-0.6 0.5-0.3 0-0.5-0.2-0.5-0.5 0-0.4 0.2-0.6 0.5-0.6 0.4 0 0.6 0.2 0.6 0.6z"/>
						<path id="&lt;Path&gt;" class="s1" d="m734.9 72.5c0 0.3-0.3 0.6-0.6 0.6-0.3 0-0.6-0.3-0.6-0.6 0-0.3 0.3-0.6 0.6-0.6 0.3 0 0.6 0.3 0.6 0.6z"/>
						<path id="&lt;Path&gt;" class="s1" d="m794.1 60.4c0.5-0.2 1 0.1 1.1 0.6 0.1 0.4-0.2 0.9-0.6 1-0.5 0.1-0.9-0.1-1.1-0.6-0.1-0.5 0.2-0.9 0.6-1z"/>
						<path id="&lt;Path&gt;" class="s1" d="m752 80.8c0 0.4-0.2 0.6-0.6 0.6-0.3 0-0.6-0.2-0.6-0.6 0-0.3 0.3-0.5 0.6-0.5 0.4 0 0.6 0.2 0.6 0.5z"/>
						<path id="&lt;Path&gt;" class="s1" d="m194.3 44.7c0 0.5-0.4 0.9-0.9 0.9-0.5 0-0.9-0.4-0.9-0.9 0-0.5 0.4-0.9 0.9-0.9 0.5 0 0.9 0.4 0.9 0.9z"/>
						<path id="&lt;Path&gt;" class="s1" d="m12.7 18.1c0 0.3-0.3 0.6-0.6 0.6-0.3 0-0.6-0.3-0.6-0.6 0-0.3 0.3-0.6 0.6-0.6 0.3 0 0.6 0.3 0.6 0.6z"/>
						<path id="&lt;Path&gt;" class="s1" d="m80 19.4c0 0.4-0.3 0.6-0.6 0.6-0.4 0-0.6-0.2-0.6-0.6 0-0.3 0.2-0.5 0.6-0.5 0.3 0 0.6 0.2 0.6 0.5z"/>
						<path id="&lt;Path&gt;" class="s1" d="m372 25.6c0 0.3-0.2 0.5-0.5 0.5-0.2 0-0.4-0.2-0.4-0.5 0-0.2 0.2-0.4 0.4-0.4 0.3 0 0.5 0.2 0.5 0.4z"/>
						<g id="&lt;Group&gt;">
							<path id="&lt;Path&gt;" class="s3" d="m758 67.4c0 0.2-0.2 0.4-0.4 0.4-0.2 0-0.4-0.2-0.4-0.4 0-0.2 0.2-0.4 0.4-0.4 0.2 0 0.4 0.2 0.4 0.4z"/>
							<path id="&lt;Path&gt;" class="s3" d="m704.3 71.6c0 0.2-0.1 0.4-0.3 0.4-0.2 0-0.4-0.2-0.4-0.4 0-0.2 0.2-0.3 0.4-0.3 0.2 0 0.3 0.1 0.3 0.3z"/>
							<path id="&lt;Path&gt;" class="s3" d="m689.6 40c0 0.2-0.2 0.4-0.4 0.4-0.2 0-0.3-0.2-0.3-0.4 0-0.2 0.1-0.3 0.3-0.3 0.2 0 0.4 0.1 0.4 0.3z"/>
							<path id="&lt;Path&gt;" class="s3" d="m709.9 71.3c0 0.2-0.1 0.3-0.3 0.3-0.2 0-0.4-0.1-0.4-0.3 0-0.2 0.2-0.4 0.4-0.4 0.2 0 0.3 0.2 0.3 0.4z"/>
							<path id="&lt;Path&gt;" class="s3" d="m723 60.1c0 0.2-0.2 0.4-0.4 0.4-0.2 0-0.3-0.2-0.3-0.4 0-0.2 0.1-0.4 0.3-0.4 0.2 0 0.4 0.2 0.4 0.4z"/>
							<path id="&lt;Path&gt;" class="s3" d="m706 40c0.3 0.1 0.4 0.4 0.3 0.7-0.1 0.3-0.4 0.5-0.7 0.4-0.3-0.2-0.5-0.5-0.4-0.8 0.1-0.3 0.5-0.5 0.8-0.3z"/>
							<path id="&lt;Path&gt;" class="s3" d="m879.5 56.4c0 0.4-0.2 0.6-0.6 0.6-0.3 0-0.6-0.2-0.6-0.6 0-0.3 0.3-0.5 0.6-0.5 0.4 0 0.6 0.2 0.6 0.5z"/>
							<path id="&lt;Path&gt;" class="s3" d="m871.9 81.2c0 0.3-0.3 0.6-0.6 0.6-0.3 0-0.6-0.3-0.6-0.6 0-0.4 0.3-0.6 0.6-0.6 0.3 0 0.6 0.2 0.6 0.6z"/>
							<path id="&lt;Path&gt;" class="s3" d="m754.8 53.4c0 0.2-0.2 0.3-0.4 0.3-0.2 0-0.4-0.1-0.4-0.3 0-0.2 0.2-0.4 0.4-0.4 0.2 0 0.4 0.2 0.4 0.4z"/>
							<path id="&lt;Path&gt;" class="s3" d="m812.2 9.8c0.5-0.2 1 0.1 1.1 0.6 0.1 0.4-0.1 0.9-0.6 1-0.5 0.2-0.9-0.1-1.1-0.6-0.1-0.4 0.2-0.9 0.6-1z"/>
							<path id="&lt;Path&gt;" class="s3" d="m713 25.3c0 0.2-0.2 0.4-0.4 0.4-0.2 0-0.4-0.2-0.4-0.4 0-0.2 0.2-0.3 0.4-0.3 0.2 0 0.4 0.1 0.4 0.3z"/>
							<path id="&lt;Path&gt;" class="s3" d="m676.2 28c0 0.2-0.2 0.4-0.4 0.4-0.2 0-0.4-0.2-0.4-0.4 0-0.2 0.2-0.3 0.4-0.3 0.2 0 0.4 0.1 0.4 0.3z"/>
							<path id="&lt;Path&gt;" class="s3" d="m83.3 10.3c0 0.5-0.4 0.9-0.9 0.9-0.5 0-0.9-0.4-0.9-0.9 0-0.5 0.4-0.9 0.9-0.9 0.5 0 0.9 0.4 0.9 0.9z"/>
							<path id="&lt;Path&gt;" class="s3" d="m39 86.8c0 0.4-0.3 0.6-0.6 0.6-0.3 0-0.6-0.2-0.6-0.6 0-0.3 0.3-0.6 0.6-0.6 0.3 0 0.6 0.3 0.6 0.6z"/>
							<path id="&lt;Path&gt;" class="s3" d="m160.7 54.6c0 0.2-0.2 0.4-0.5 0.4-0.2 0-0.4-0.2-0.4-0.4 0-0.3 0.2-0.5 0.4-0.5 0.3 0 0.5 0.2 0.5 0.5z"/>
							<path id="&lt;Path&gt;" class="s3" d="m712.3 59.1c0.3 0.1 0.4 0.4 0.3 0.7-0.1 0.3-0.4 0.5-0.8 0.4-0.3-0.1-0.4-0.5-0.3-0.8 0.1-0.3 0.5-0.4 0.8-0.3z"/>
							<path id="&lt;Path&gt;" class="s3" d="m892.3 74.7c0.1-0.2 0.3-0.2 0.4-0.1 0.2 0.1 0.2 0.3 0.1 0.5-0.1 0.1-0.3 0.1-0.4 0-0.2-0.1-0.2-0.3-0.1-0.4z"/>
							<path id="&lt;Path&gt;" class="s3" d="m898.1 73.6c0.1-0.1 0.3-0.1 0.4 0 0.2 0.1 0.2 0.3 0.1 0.4-0.1 0.1-0.3 0.2-0.5 0.1-0.1-0.2-0.1-0.3 0-0.5z"/>
							<path id="&lt;Path&gt;" class="s3" d="m899.2 67.7c0 0.4-0.3 0.6-0.6 0.6-0.3 0-0.6-0.2-0.6-0.6 0-0.3 0.3-0.5 0.6-0.5 0.3 0 0.6 0.2 0.6 0.5z"/>
							<path id="&lt;Path&gt;" class="s3" d="m154.9 56.7c0.2 0.1 0.3 0.3 0.2 0.6 0 0.2-0.3 0.3-0.5 0.2-0.2-0.1-0.3-0.3-0.2-0.5 0.1-0.2 0.3-0.3 0.5-0.3z"/>
							<path id="&lt;Path&gt;" class="s3" d="m143.7 55.5c0 0.3-0.1 0.5-0.4 0.5-0.2 0-0.4-0.2-0.4-0.5 0-0.2 0.2-0.4 0.4-0.4 0.3 0 0.4 0.2 0.4 0.4z"/>
							<path id="&lt;Path&gt;" class="s3" d="m23.9 64.7c0 0.3-0.3 0.6-0.6 0.6-0.3 0-0.6-0.3-0.6-0.6 0-0.3 0.3-0.6 0.6-0.6 0.3 0 0.6 0.3 0.6 0.6z"/>
							<path id="&lt;Path&gt;" class="s3" d="m48.4 39.3c0 0.4-0.3 0.6-0.6 0.6-0.3 0-0.6-0.2-0.6-0.6 0-0.3 0.3-0.5 0.6-0.5 0.3 0 0.6 0.2 0.6 0.5z"/>
							<path id="&lt;Path&gt;" class="s3" d="m41 55.9c0 0.3-0.2 0.6-0.5 0.6-0.4 0-0.6-0.3-0.6-0.6 0-0.3 0.2-0.6 0.6-0.6 0.3 0 0.5 0.3 0.5 0.6z"/>
							<path id="&lt;Path&gt;" class="s3" d="m163.6 73.2c0.2 0.1 0.3 0.3 0.2 0.5 0 0.2-0.3 0.3-0.5 0.2-0.2-0.1-0.3-0.3-0.2-0.5 0.1-0.2 0.3-0.3 0.5-0.2z"/>
						</g>
						<path id="&lt;Path&gt;" class="s1" d="m274.4 65.8c0 0.4-0.3 0.6-0.6 0.6-0.3 0-0.6-0.2-0.6-0.6 0-0.3 0.3-0.5 0.6-0.5 0.3 0 0.6 0.2 0.6 0.5z"/>
						<path id="&lt;Path&gt;" class="s1" d="m457.6 34.9c0 0.3-0.2 0.6-0.5 0.6-0.4 0-0.6-0.3-0.6-0.6 0-0.3 0.2-0.6 0.6-0.6 0.3 0 0.5 0.3 0.5 0.6z"/>
						<path id="&lt;Path&gt;" class="s4" d="m394.7 8.5c0 2.9-2.4 5.2-5.3 5.2-2.9 0-5.3-2.3-5.3-5.2 0-3 2.4-5.3 5.3-5.3 2.9 0 5.3 2.3 5.3 5.3z"/>
						<path id="&lt;Path&gt;" class="s5" d="m607.8 57.6c0 2.9-2.4 5.3-5.3 5.3-2.9 0-5.3-2.4-5.3-5.3 0-2.9 2.4-5.3 5.3-5.3 2.9 0 5.3 2.4 5.3 5.3z"/>
					</g>
				</g>
			</g>
		</g>
	</g>
</svg>