<svg version="1.2" xmlns="http://www.w3.org/2000/svg" viewBox="0 0 952 428" width="952" height="428">
	<title>2203_w026_n002_1490b_p1_1490-ai</title>
	<style>
		.s0 { fill: #0c0726 } 
		.s1 { fill: #000010 } 
		.s2 { fill: #09000f } 
	</style>
	<g id="_Artboards_">
	</g>
	<g id="layer1">
		<g id="&lt;Group&gt;">
			<g id="&lt;Group&gt;">
				<g id="&lt;Clip Group&gt;">
					<g id="&lt;Group&gt;">
						<path id="&lt;Path&gt;" class="s0" d="m23 325.3l69.8 12.5-12.3-50.1-45.1-51.3 45.7 42.9-2.1-9.6-50.2-58.8 48.7 33.8-48.3-39.2 48.9 30.9-33.6-133.2-22.4-12.4 15.2 4.6-20.6-87.2-21.3 124.9 19.4-4.5-25.6 28.3-9.6 130.8 36.6-29.9-42.6 40.9-9.3 37.8z"/>
						<g id="&lt;Group&gt;">
							<path id="&lt;Path&gt;" class="s1" d="m24.8 371.3l-6.9-175.3-2.1-129.4 0.7 304.7z"/>
							<path id="&lt;Path&gt;" class="s2" d="m17.3 156.9l14.2 4 0.9 1.9-15.1-4.5z"/>
						</g>
					</g>
				</g>
			</g>
		</g>
	</g>
</svg>