<svg version="1.2" xmlns="http://www.w3.org/2000/svg" viewBox="0 0 952 428" width="952" height="428">
	<title>2203_w026_n002_1490b_p1_1490-ai</title>
	<style>
		.s0 { fill: #420163 } 
	</style>
	<g id="_Artboards_">
	</g>
	<g id="layer1">
		<g id="&lt;Group&gt;">
			<g id="&lt;Group&gt;">
				<g id="&lt;Clip Group&gt;">
					<g id="&lt;Group&gt;" style="mix-blend-mode: multiply">
						<g id="&lt;Group&gt;">
							<path id="&lt;Path&gt;" class="s0" d="m574.2 325l-14.7-1.1c0 0 6.8-1 9.7-1 2.8 0 5 2.1 5 2.1z"/>
							<path id="&lt;Path&gt;" class="s0" d="m493.9 326.7c-6.1 0-13.3-1.2-13.3-1.2l15.4 0.3-4.4 0.4z"/>
							<path id="&lt;Path&gt;" class="s0" d="m568 328.2c-3.1 0.3-6.2-0.3-6.2-0.3z"/>
							<path id="&lt;Path&gt;" class="s0" d="m516.6 324.6c-2.1 0.3-16.5-0.2-16.5-0.2l15.4-0.3z"/>
							<path id="&lt;Path&gt;" class="s0" d="m586.5 325.8c9.3 0 18.7-1.3 18.7-1.3l-23.6 0.8z"/>
							<path id="&lt;Path&gt;" class="s0" d="m528.9 325.5c-2 0.3-3.1 0-3.1 0z"/>
							<path id="&lt;Path&gt;" class="s0" d="m479.5 323.2c-1 0.6-6.2 0-6.2 0z"/>
							<path id="&lt;Path&gt;" class="s0" d="m479.5 323.8c-2 0.3-12.3-0.3-12.3-0.3h20.6z"/>
						</g>
						<g id="&lt;Group&gt;">
							<path id="&lt;Path&gt;" class="s0" d="m506.3 337.6l-14.6-1.1c0 0 6.8-1 9.6-1 2.9 0 5 2.1 5 2.1z"/>
							<path id="&lt;Path&gt;" class="s0" d="m386.9 348.2c-6.2 0-13.4-1.2-13.4-1.2l15.4 0.3-4.4 0.3z"/>
							<path id="&lt;Path&gt;" class="s0" d="m500.2 340.8c-3.1 0.3-6.2-0.3-6.2-0.3z"/>
							<path id="&lt;Path&gt;" class="s0" d="m409.5 346.1c-2 0.3-16.4-0.3-16.4-0.3l15.4-0.3z"/>
							<path id="&lt;Path&gt;" class="s0" d="m479.5 347.3c9.2 0 18.6-1.3 18.6-1.3l-23.6 0.8z"/>
							<path id="&lt;Path&gt;" class="s0" d="m421.9 347c-2.1 0.3-3.1 0-3.1 0z"/>
							<path id="&lt;Path&gt;" class="s0" d="m372.5 344.6c-1.1 0.6-6.2 0-6.2 0z"/>
							<path id="&lt;Path&gt;" class="s0" d="m372.5 345.2c-2.1 0.3-12.4-0.3-12.4-0.3h20.6z"/>
						</g>
						<g id="&lt;Group&gt;">
							<path id="&lt;Path&gt;" class="s0" d="m310.3 345.1l-14.7-1c0 0 6.8-1 9.7-1 2.9 0 5 2 5 2z"/>
							<path id="&lt;Path&gt;" class="s0" d="m156.7 357c-6.2 0-13.4-1.1-13.4-1.1l15.5 0.3-4.4 0.3z"/>
							<path id="&lt;Path&gt;" class="s0" d="m304.1 348.4c-3 0.3-6.1-0.3-6.1-0.3z"/>
							<path id="&lt;Path&gt;" class="s0" d="m179.3 355c-2 0.3-16.4-0.3-16.4-0.3l15.4-0.3z"/>
							<path id="&lt;Path&gt;" class="s0" d="m249.3 356.2c9.3 0 18.7-1.4 18.7-1.4l-23.6 0.9z"/>
							<path id="&lt;Path&gt;" class="s0" d="m191.7 355.9c-2.1 0.3-3.1 0-3.1 0z"/>
							<path id="&lt;Path&gt;" class="s0" d="m142.3 353.5c-1 0.6-6.2 0-6.2 0z"/>
							<path id="&lt;Path&gt;" class="s0" d="m142.3 354.1c-2.1 0.3-12.4-0.3-12.4-0.3h20.6z"/>
						</g>
						<g id="&lt;Group&gt;">
							<path id="&lt;Path&gt;" class="s0" d="m236.3 354.3l24.2 1.7c0 0-11.3 1.7-16 1.7-4.7 0-8.2-3.4-8.2-3.4z"/>
							<path id="&lt;Path&gt;" class="s0" d="m238.8 338.7c6.1 0 13.3 1.2 13.3 1.2l-15.4-0.3 4.4-0.3z"/>
							<path id="&lt;Path&gt;" class="s0" d="m310.1 343.5c3.1-0.3 6.2 0.3 6.2 0.3z"/>
							<path id="&lt;Path&gt;" class="s0" d="m308.5 345.8c2-0.3 16.4 0.3 16.4 0.3l-15.4 0.3z"/>
							<path id="&lt;Path&gt;" class="s0" d="m291.6 345.9c-9.3 0-18.7 1.3-18.7 1.3l23.6-0.8z"/>
							<path id="&lt;Path&gt;" class="s0" d="m349.2 346.2c2.1-0.3 3.1 0 3.1 0z"/>
							<path id="&lt;Path&gt;" class="s0" d="m398.6 348.6c1-0.6 6.2 0 6.2 0z"/>
							<path id="&lt;Path&gt;" class="s0" d="m398.6 348c2.1-0.3 12.4 0.3 12.4 0.3h-20.6z"/>
						</g>
						<g id="&lt;Group&gt;">
							<path id="&lt;Path&gt;" class="s0" d="m518.2 338l-11.2 0.8c0 0 5.2 0.8 7.4 0.8 2.1 0 3.8-1.6 3.8-1.6z"/>
							<path id="&lt;Path&gt;" class="s0" d="m450 333.7c-2.8 0-6.1 0.6-6.1 0.6l7.1-0.2-2.1-0.1z"/>
							<path id="&lt;Path&gt;" class="s0" d="m446.2 335.6c-1.4-0.2-2.8 0.1-2.8 0.1z"/>
							<path id="&lt;Path&gt;" class="s0" d="m447 336.6c-1-0.1-7.6 0.2-7.6 0.2l7.1 0.1z"/>
							<path id="&lt;Path&gt;" class="s0" d="m454.7 336.7c4.3 0 8.6 0.6 8.6 0.6l-10.8-0.4z"/>
							<path id="&lt;Path&gt;" class="s0" d="m466.1 334.3c-0.9-0.2-1.4 0-1.4 0z"/>
							<path id="&lt;Path&gt;" class="s0" d="m443.4 335.4c-0.5-0.3-2.9 0-2.9 0z"/>
							<path id="&lt;Path&gt;" class="s0" d="m443.4 335.1c-1-0.1-5.7 0.1-5.7 0.1h9.5z"/>
						</g>
					</g>
				</g>
			</g>
		</g>
	</g>
</svg>